{
copyright = "Copyright (c) 2015, Cadson Demak (info@cadsondemak.com)";
customParameters = (
{
name = vendorID;
value = CDK;
},
{
name = description;
value = "Copyright (c) 2015, Cadson Demak (info@cadsondemak.com)";
},
{
name = license;

glyphs = (
{
glyphname = A;
lastChange = "2015-07-16 07:54:35 +0000";
layers = (
{
layerId = "0E118B91-E289-4192-A9B8-5E503DF06BFB";
name = Light;
paths = (
{
closed = 1;
nodes = (
"198 0 LINE SMOOTH",
"205 0 OFFCURVE",
"207 5 OFFCURVE",
"207 11 CURVE SMOOTH",
"207 22 OFFCURVE",
"200 29 OFFCURVE",
"184 31 CURVE SMOOTH",
"123 40 LINE",
"192 235 LINE",
"484 235 LINE",
"552 39 LINE",
"507 39 LINE SMOOTH",
"489 39 OFFCURVE",
"479 31 OFFCURVE",
"479 17 CURVE SMOOTH",
"479 7 OFFCURVE",
"485 0 OFFCURVE",
"493 0 CURVE SMOOTH",
"674 0 LINE SMOOTH",
"682 0 OFFCURVE",
"683 6 OFFCURVE",
"683 12 CURVE SMOOTH",
"683 23 OFFCURVE",
"676 30 OFFCURVE",
"661 32 CURVE SMOOTH",
"614 40 LINE",
"380 695 LINE",
"308 695 LINE",
"74 39 LINE",
"39 39 LINE SMOOTH",
"21 39 OFFCURVE",
"11 31 OFFCURVE",
"11 17 CURVE SMOOTH",
"11 7 OFFCURVE",
"16 0 OFFCURVE",
"24 0 CURVE SMOOTH"
);
},
{
closed = 1;
nodes = (
"337 644 LINE",
"467 277 LINE",
"207 277 LINE"
);
}
);
width = 694;
}
);
unicode = 0041;
},
{
glyphname = Aacute;
lastChange = "2015-07-16 07:54:35 +0000";
layers = (
{
components = (
{
name = A;
}
);
layerId = "0E118B91-E289-4192-A9B8-5E503DF06BFB";
name = Light;
paths = (
{
closed = 1;
nodes = (
"425 876 LINE",
"378 906 LINE",
"297 772 LINE",
"332 750 LINE"
);
}
);
width = 694;
}
);
note = Aacute;
unicode = 00C1;
},
{
glyphname = Abreve;
lastChange = "2015-07-16 07:54:35 +0000";
layers = (
{
components = (
{
name = A;
}
);
layerId = "0E118B91-E289-4192-A9B8-5E503DF06BFB";
name = Light;
paths = (
{
closed = 1;
nodes = (
"400 747 OFFCURVE",
"456 778 OFFCURVE",
"479 860 CURVE",
"441 874 LINE",
"427 826 OFFCURVE",
"394 790 OFFCURVE",
"341 790 CURVE SMOOTH",
"288 790 OFFCURVE",
"254 826 OFFCURVE",
"241 874 CURVE",
"203 860 LINE",
"226 778 OFFCURVE",
"281 747 OFFCURVE",
"341 747 CURVE SMOOTH"
);
}
);
width = 694;
}
);
note = Abreve;
unicode = 0102;
},
{
glyphname = Abreveacute;
lastChange = "2015-07-16 07:54:35 +0000";
layers = (
{
components = (
{
name = A;
}
);
layerId = "0E118B91-E289-4192-A9B8-5E503DF06BFB";
name = Light;
paths = (
{
closed = 1;
nodes = (
"401 747 OFFCURVE",
"457 778 OFFCURVE",
"480 860 CURVE",
"442 874 LINE",
"428 826 OFFCURVE",
"395 790 OFFCURVE",
"342 790 CURVE SMOOTH",
"289 790 OFFCURVE",
"255 826 OFFCURVE",
"242 874 CURVE",
"204 860 LINE",
"227 778 OFFCURVE",
"282 747 OFFCURVE",
"342 747 CURVE SMOOTH"
);
},
{
closed = 1;
nodes = (
"432 984 LINE",
"387 1012 LINE",
"311 884 LINE",
"344 864 LINE"
);
}
);
width = 694;
}
);
note = Abreveacute;
unicode = 1EAE;
},
{
glyphname = Abrevedotbelow;
lastChange = "2015-07-16 07:54:35 +0000";
layers = (
{
components = (
{
name = A;
}
);
layerId = "0E118B91-E289-4192-A9B8-5E503DF06BFB";
name = Light;
paths = (
{
closed = 1;
nodes = (
"364 -151 OFFCURVE",
"383 -133 OFFCURVE",
"383 -108 CURVE SMOOTH",
"383 -84 OFFCURVE",
"364 -65 OFFCURVE",
"340 -65 CURVE SMOOTH",
"316 -65 OFFCURVE",
"297 -84 OFFCURVE",
"297 -108 CURVE SMOOTH",
"297 -133 OFFCURVE",
"316 -151 OFFCURVE",
"340 -151 CURVE SMOOTH"
);
},
{
closed = 1;
nodes = (
"400 747 OFFCURVE",
"456 778 OFFCURVE",
"479 860 CURVE",
"441 874 LINE",
"427 826 OFFCURVE",
"394 790 OFFCURVE",
"341 790 CURVE SMOOTH",
"288 790 OFFCURVE",
"254 826 OFFCURVE",
"241 874 CURVE",
"203 860 LINE",
"226 778 OFFCURVE",
"281 747 OFFCURVE",
"341 747 CURVE SMOOTH"
);
}
);
width = 694;
}
);
note = Abrevedotbelow;
unicode = 1EB6;
},
{
glyphname = Abrevegrave;
lastChange = "2015-07-16 07:54:35 +0000";
layers = (
{
components = (
{
name = A;
}
);
layerId = "0E118B91-E289-4192-A9B8-5E503DF06BFB";
name = Light;
paths = (
{
closed = 1;
nodes = (
"400 747 OFFCURVE",
"456 778 OFFCURVE",
"479 860 CURVE",
"441 874 LINE",
"427 826 OFFCURVE",
"394 790 OFFCURVE",
"341 790 CURVE SMOOTH",
"288 790 OFFCURVE",
"254 826 OFFCURVE",
"241 874 CURVE",
"203 860 LINE",
"226 778 OFFCURVE",
"281 747 OFFCURVE",
"341 747 CURVE SMOOTH"
);
},
{
closed = 1;
nodes = (
"371 884 LINE",
"295 1012 LINE",
"250 984 LINE",
"338 864 LINE"
);
}
);
width = 694;
}
);
note = Abrevegrave;
unicode = 1EB0;
},
{
glyphname = Abrevehookabove;
lastChange = "2015-07-16 07:54:35 +0000";
layers = (
{
components = (
{
name = A;
}
);
layerId = "0E118B91-E289-4192-A9B8-5E503DF06BFB";
name = Light;
paths = (
{
closed = 1;
nodes = (
"400 747 OFFCURVE",
"456 778 OFFCURVE",
"479 860 CURVE",
"441 874 LINE",
"427 826 OFFCURVE",
"394 790 OFFCURVE",
"341 790 CURVE SMOOTH",
"288 790 OFFCURVE",
"254 826 OFFCURVE",
"241 874 CURVE",
"203 860 LINE",
"226 778 OFFCURVE",
"281 747 OFFCURVE",
"341 747 CURVE SMOOTH"
);
},
{
closed = 1;
nodes = (
"359 864 LINE",
"364 906 LINE",
"392 915 OFFCURVE",
"410 936 OFFCURVE",
"410 962 CURVE SMOOTH",
"410 999 OFFCURVE",
"380 1019 OFFCURVE",
"343 1019 CURVE SMOOTH",
"324 1019 OFFCURVE",
"304 1013 OFFCURVE",
"290 1008 CURVE",
"296 982 LINE",
"308 985 OFFCURVE",
"322 989 OFFCURVE",
"336 989 CURVE SMOOTH",
"355 989 OFFCURVE",
"368 980 OFFCURVE",
"368 962 CURVE SMOOTH",
"368 942 OFFCURVE",
"352 928 OFFCURVE",
"323 919 CURVE",
"327 864 LINE"
);
}
);
width = 694;
}
);
note = Abrevehookabove;
unicode = 1EB2;
},
{
glyphname = Abrevetilde;
lastChange = "2015-07-16 07:54:36 +0000";
layers = (
{
components = (
{
name = A;
}
);
layerId = "0E118B91-E289-4192-A9B8-5E503DF06BFB";
name = Light;
paths = (
{
closed = 1;
nodes = (
"401 747 OFFCURVE",
"457 778 OFFCURVE",
"480 860 CURVE",
"442 874 LINE",
"428 826 OFFCURVE",
"395 790 OFFCURVE",
"342 790 CURVE SMOOTH",
"289 790 OFFCURVE",
"255 826 OFFCURVE",
"242 874 CURVE",
"204 860 LINE",
"227 778 OFFCURVE",
"282 747 OFFCURVE",
"342 747 CURVE SMOOTH"
);
},
{
closed = 1;
nodes = (
"407 915 OFFCURVE",
"431 930 OFFCURVE",
"451 948 CURVE",
"433 978 LINE",
"418 966 OFFCURVE",
"402 956 OFFCURVE",
"383 956 CURVE SMOOTH",
"359 956 OFFCURVE",
"330 982 OFFCURVE",
"302 982 CURVE SMOOTH",
"280 982 OFFCURVE",
"254 967 OFFCURVE",
"235 950 CURVE",
"252 920 LINE",
"267 932 OFFCURVE",
"283 941 OFFCURVE",
"302 941 CURVE SMOOTH",
"331 941 OFFCURVE",
"353 915 OFFCURVE",
"384 915 CURVE SMOOTH"
);
}
);
width = 694;
}
);
note = Abrevetilde;
unicode = 1EB4;
},
{
glyphname = Acaron;
lastChange = "2015-07-16 07:54:36 +0000";
layers = (
{
components = (
{
name = A;
}
);
layerId = "0E118B91-E289-4192-A9B8-5E503DF06BFB";
name = Light;
paths = (
{
closed = 1;
nodes = (
"357 750 LINE",
"458 878 LINE",
"428 901 LINE",
"339 806 LINE",
"250 901 LINE",
"220 878 LINE",
"322 750 LINE"
);
}
);
width = 694;
}
);
note = Acaron;
unicode = 01CD;
},
{
glyphname = Acircumflex;
lastChange = "2015-07-16 07:54:36 +0000";
layers = (
{
components = (
{
name = A;
}
);
layerId = "0E118B91-E289-4192-A9B8-5E503DF06BFB";
name = Light;
paths = (
{
closed = 1;
nodes = (
"339 846 LINE",
"428 750 LINE",
"458 773 LINE",
"357 901 LINE",
"322 901 LINE",
"220 773 LINE",
"250 750 LINE"
);
}
);
width = 694;
}
);
note = Acircumflex;
unicode = 00C2;
},
{
glyphname = Acircumflexacute;
lastChange = "2015-07-16 07:54:36 +0000";
layers = (
{
components = (
{
name = A;
}
);
layerId = "0E118B91-E289-4192-A9B8-5E503DF06BFB";
name = Light;
paths = (
{
closed = 1;
nodes = (
"341 846 LINE",
"430 750 LINE",
"460 773 LINE",
"359 901 LINE",
"324 901 LINE",
"222 773 LINE",
"252 750 LINE"
);
},
{
closed = 1;
nodes = (
"535 937 LINE",
"491 964 LINE",
"430 861 LINE",
"461 842 LINE"
);
}
);
width = 694;
}
);
note = Acircumflexacute;
unicode = 1EA4;
},
{
glyphname = Acircumflexdotbelow;
lastChange = "2015-07-16 07:54:35 +0000";
layers = (
{
components = (
{
name = A;
}
);
layerId = "0E118B91-E289-4192-A9B8-5E503DF06BFB";
name = Light;
paths = (
{
closed = 1;
nodes = (
"363 -151 OFFCURVE",
"382 -133 OFFCURVE",
"382 -108 CURVE SMOOTH",
"382 -84 OFFCURVE",
"363 -65 OFFCURVE",
"339 -65 CURVE SMOOTH",
"315 -65 OFFCURVE",
"296 -84 OFFCURVE",
"296 -108 CURVE SMOOTH",
"296 -133 OFFCURVE",
"315 -151 OFFCURVE",
"339 -151 CURVE SMOOTH"
);
},
{
closed = 1;
nodes = (
"340 846 LINE",
"429 750 LINE",
"459 773 LINE",
"358 901 LINE",
"323 901 LINE",
"221 773 LINE",
"251 750 LINE"
);
}
);
width = 694;
}
);
note = Acircumflexdotbelow;
unicode = 1EAC;
},
{
glyphname = Acircumflexgrave;
lastChange = "2015-07-16 07:54:35 +0000";
layers = (
{
components = (
{
name = A;
}
);
layerId = "0E118B91-E289-4192-A9B8-5E503DF06BFB";
name = Light;
paths = (
{
closed = 1;
nodes = (
"253 861 LINE",
"192 964 LINE",
"148 937 LINE",
"222 842 LINE"
);
},
{
closed = 1;
nodes = (
"341 846 LINE",
"430 750 LINE",
"460 773 LINE",
"359 901 LINE",
"324 901 LINE",
"222 773 LINE",
"252 750 LINE"
);
}
);
width = 694;
}
);
note = Acircumflexgrave;
unicode = 1EA6;
},
{
glyphname = Acircumflexhookabove;
lastChange = "2015-07-16 07:54:35 +0000";
layers = (
{
components = (
{
name = A;
}
);
layerId = "0E118B91-E289-4192-A9B8-5E503DF06BFB";
name = Light;
paths = (
{
closed = 1;
nodes = (
"341 846 LINE",
"430 750 LINE",
"460 773 LINE",
"359 901 LINE",
"324 901 LINE",
"222 773 LINE",
"252 750 LINE"
);
},
{
closed = 1;
nodes = (
"492 834 LINE",
"497 876 LINE",
"525 886 OFFCURVE",
"543 906 OFFCURVE",
"543 932 CURVE SMOOTH",
"543 969 OFFCURVE",
"513 990 OFFCURVE",
"476 990 CURVE SMOOTH",
"457 990 OFFCURVE",
"437 984 OFFCURVE",
"423 979 CURVE",
"429 952 LINE",
"441 956 OFFCURVE",
"455 959 OFFCURVE",
"469 959 CURVE SMOOTH",
"488 959 OFFCURVE",
"501 950 OFFCURVE",
"501 932 CURVE SMOOTH",
"501 912 OFFCURVE",
"485 898 OFFCURVE",
"456 889 CURVE",
"460 834 LINE"
);
}
);
width = 694;
}
);
note = Acircumflexhookabove;
unicode = 1EA8;
},
{
glyphname = Acircumflextilde;
lastChange = "2015-07-16 07:54:36 +0000";
layers = (
{
components = (
{
name = A;
}
);
layerId = "0E118B91-E289-4192-A9B8-5E503DF06BFB";
name = Light;
paths = (
{
closed = 1;
nodes = (
"341 846 LINE",
"430 750 LINE",
"460 773 LINE",
"359 901 LINE",
"324 901 LINE",
"222 773 LINE",
"252 750 LINE"
);
},
{
closed = 1;
nodes = (
"406 932 OFFCURVE",
"430 946 OFFCURVE",
"450 964 CURVE",
"432 994 LINE",
"417 982 OFFCURVE",
"401 973 OFFCURVE",
"382 973 CURVE SMOOTH",
"358 973 OFFCURVE",
"329 999 OFFCURVE",
"301 999 CURVE SMOOTH",
"279 999 OFFCURVE",
"253 984 OFFCURVE",
"234 967 CURVE",
"251 936 LINE",
"266 948 OFFCURVE",
"282 958 OFFCURVE",
"301 958 CURVE SMOOTH",
"330 958 OFFCURVE",
"352 932 OFFCURVE",
"383 932 CURVE SMOOTH"
);
}
);
width = 694;
}
);
note = Acircumflextilde;
unicode = 1EAA;
},
{
glyphname = Adieresis;
lastChange = "2015-07-16 07:54:36 +0000";
layers = (
{
components = (
{
name = A;
}
);
layerId = "0E118B91-E289-4192-A9B8-5E503DF06BFB";
name = Light;
paths = (
{
closed = 1;
nodes = (
"457 761 OFFCURVE",
"476 779 OFFCURVE",
"476 803 CURVE SMOOTH",
"476 828 OFFCURVE",
"457 846 OFFCURVE",
"434 846 CURVE SMOOTH",
"412 846 OFFCURVE",
"392 828 OFFCURVE",
"392 803 CURVE SMOOTH",
"392 779 OFFCURVE",
"412 761 OFFCURVE",
"434 761 CURVE SMOOTH"
);
},
{
closed = 1;
nodes = (
"271 761 OFFCURVE",
"290 779 OFFCURVE",
"290 803 CURVE SMOOTH",
"290 828 OFFCURVE",
"271 846 OFFCURVE",
"248 846 CURVE SMOOTH",
"226 846 OFFCURVE",
"206 828 OFFCURVE",
"206 803 CURVE SMOOTH",
"206 779 OFFCURVE",
"226 761 OFFCURVE",
"248 761 CURVE SMOOTH"
);
}
);
width = 694;
}
);
note = Adieresis;
unicode = 00C4;
},
{
glyphname = Adotbelow;
lastChange = "2015-07-16 07:54:36 +0000";
layers = (
{
components = (
{
name = A;
}
);
layerId = "0E118B91-E289-4192-A9B8-5E503DF06BFB";
name = Light;
paths = (
{
closed = 1;
nodes = (
"366 -151 OFFCURVE",
"385 -133 OFFCURVE",
"385 -108 CURVE SMOOTH",
"385 -84 OFFCURVE",
"366 -65 OFFCURVE",
"342 -65 CURVE SMOOTH",
"318 -65 OFFCURVE",
"299 -84 OFFCURVE",
"299 -108 CURVE SMOOTH",
"299 -133 OFFCURVE",
"318 -151 OFFCURVE",
"342 -151 CURVE SMOOTH"
);
}
);
width = 694;
}
);
note = Adotbelow;
unicode = 1EA0;
},
{
glyphname = Agrave;
lastChange = "2015-07-16 07:54:36 +0000";
layers = (
{
components = (
{
name = A;
}
);
layerId = "0E118B91-E289-4192-A9B8-5E503DF06BFB";
name = Light;
paths = (
{
closed = 1;
nodes = (
"390 773 LINE",
"309 907 LINE",
"262 877 LINE",
"355 751 LINE"
);
}
);
width = 694;
}
);
note = Agrave;
unicode = 00C0;
},
{
glyphname = Ahookabove;
lastChange = "2015-07-16 07:54:35 +0000";
layers = (
{
components = (
{
name = A;
}
);
layerId = "0E118B91-E289-4192-A9B8-5E503DF06BFB";
name = Light;
paths = (
{
closed = 1;
nodes = (
"355 750 LINE",
"361 794 LINE",
"391 805 OFFCURVE",
"410 827 OFFCURVE",
"410 855 CURVE SMOOTH",
"410 893 OFFCURVE",
"378 916 OFFCURVE",
"338 916 CURVE SMOOTH",
"319 916 OFFCURVE",
"296 910 OFFCURVE",
"282 904 CURVE",
"288 876 LINE",
"301 879 OFFCURVE",
"317 883 OFFCURVE",
"331 883 CURVE SMOOTH",
"352 883 OFFCURVE",
"366 874 OFFCURVE",
"366 854 CURVE SMOOTH",
"366 833 OFFCURVE",
"349 818 OFFCURVE",
"318 808 CURVE",
"322 750 LINE"
);
}
);
width = 694;
}
);
note = Ahookabove;
unicode = 1EA2;
},
{
glyphname = Amacron;
lastChange = "2015-07-16 07:54:36 +0000";
layers = (
{
components = (
{
name = A;
}
);
layerId = "0E118B91-E289-4192-A9B8-5E503DF06BFB";
name = Light;
paths = (
{
closed = 1;
nodes = (
"479 776 LINE",
"479 818 LINE",
"202 818 LINE",
"202 776 LINE"
);
}
);
width = 694;
}
);
note = Amacron;
unicode = 0100;
},
{
glyphname = Aogonek;
lastChange = "2015-07-16 07:54:36 +0000";
layers = (
{
layerId = "0E118B91-E289-4192-A9B8-5E503DF06BFB";
name = Light;
paths = (
{
closed = 1;
nodes = (
"606 -204 OFFCURVE",
"626 -200 OFFCURVE",
"642 -193 CURVE",
"636 -166 LINE",
"624 -169 OFFCURVE",
"612 -172 OFFCURVE",
"598 -172 CURVE SMOOTH",
"560 -172 OFFCURVE",
"529 -153 OFFCURVE",
"529 -109 CURVE SMOOTH",
"529 -60 OFFCURVE",
"568 -19 OFFCURVE",
"607 0 CURVE",
"674 0 LINE SMOOTH",
"682 0 OFFCURVE",
"683 6 OFFCURVE",
"683 12 CURVE SMOOTH",
"683 23 OFFCURVE",
"678 29 OFFCURVE",
"661 32 CURVE SMOOTH",
"614 40 LINE",
"380 695 LINE",
"308 695 LINE",
"74 39 LINE",
"39 39 LINE SMOOTH",
"21 39 OFFCURVE",
"11 31 OFFCURVE",
"11 17 CURVE SMOOTH",
"11 7 OFFCURVE",
"16 0 OFFCURVE",
"24 0 CURVE SMOOTH",
"198 0 LINE SMOOTH",
"205 0 OFFCURVE",
"207 5 OFFCURVE",
"207 11 CURVE SMOOTH",
"207 22 OFFCURVE",
"202 28 OFFCURVE",
"184 31 CURVE SMOOTH",
"123 40 LINE",
"192 235 LINE",
"484 235 LINE",
"552 39 LINE",
"507 39 LINE SMOOTH",
"489 39 OFFCURVE",
"479 31 OFFCURVE",
"479 17 CURVE SMOOTH",
"479 7 OFFCURVE",
"485 0 OFFCURVE",
"493 0 CURVE SMOOTH",
"560 0 LINE",
"518 -21 OFFCURVE",
"485 -62 OFFCURVE",
"485 -110 CURVE SMOOTH",
"485 -172 OFFCURVE",
"531 -204 OFFCURVE",
"588 -204 CURVE SMOOTH"
);
},
{
closed = 1;
nodes = (
"337 644 LINE",
"467 277 LINE",
"207 277 LINE"
);
}
);
width = 694;
}
);
note = Aogonek;
unicode = 0104;
},
{
glyphname = Aring;
lastChange = "2015-07-16 07:54:36 +0000";
layers = (
{
components = (
{
name = A;
}
);
layerId = "0E118B91-E289-4192-A9B8-5E503DF06BFB";
name = Light;
paths = (
{
closed = 1;
nodes = (
"396 735 OFFCURVE",
"428 772 OFFCURVE",
"428 816 CURVE SMOOTH",
"428 860 OFFCURVE",
"396 896 OFFCURVE",
"344 896 CURVE SMOOTH",
"291 896 OFFCURVE",
"259 860 OFFCURVE",
"259 816 CURVE SMOOTH",
"259 772 OFFCURVE",
"291 735 OFFCURVE",
"344 735 CURVE SMOOTH"
);
},
{
closed = 1;
nodes = (
"318 768 OFFCURVE",
"297 785 OFFCURVE",
"297 816 CURVE SMOOTH",
"297 847 OFFCURVE",
"318 864 OFFCURVE",
"344 864 CURVE SMOOTH",
"370 864 OFFCURVE",
"390 847 OFFCURVE",
"390 816 CURVE SMOOTH",
"390 785 OFFCURVE",
"370 768 OFFCURVE",
"344 768 CURVE SMOOTH"
);
}
);
width = 694;
}
);
note = Aring;
unicode = 00C5;
},
{
glyphname = Aringacute;
lastChange = "2015-07-16 07:54:36 +0000";
layers = (
{
components = (
{
name = A;
}
);
layerId = "0E118B91-E289-4192-A9B8-5E503DF06BFB";
name = Light;
paths = (
{
closed = 1;
nodes = (
"392 733 OFFCURVE",
"424 770 OFFCURVE",
"424 814 CURVE SMOOTH",
"424 858 OFFCURVE",
"392 894 OFFCURVE",
"340 894 CURVE SMOOTH",
"287 894 OFFCURVE",
"255 858 OFFCURVE",
"255 814 CURVE SMOOTH",
"255 770 OFFCURVE",
"287 733 OFFCURVE",
"340 733 CURVE SMOOTH"
);
},
{
closed = 1;
nodes = (
"314 766 OFFCURVE",
"293 783 OFFCURVE",
"293 814 CURVE SMOOTH",
"293 845 OFFCURVE",
"314 862 OFFCURVE",
"340 862 CURVE SMOOTH",
"366 862 OFFCURVE",
"386 845 OFFCURVE",
"386 814 CURVE SMOOTH",
"386 783 OFFCURVE",
"366 766 OFFCURVE",
"340 766 CURVE SMOOTH"
);
},
{
closed = 1;
nodes = (
"441 1045 LINE",
"394 1074 LINE",
"313 941 LINE",
"348 919 LINE"
);
}
);
width = 694;
}
);
note = Aringacute;
unicode = 01FA;
},
{
glyphname = Atilde;
lastChange = "2015-07-16 07:54:35 +0000";
layers = (
{
components = (
{
name = A;
}
);
layerId = "0E118B91-E289-4192-A9B8-5E503DF06BFB";
name = Light;
paths = (
{
closed = 1;
nodes = (
"429 761 OFFCURVE",
"462 780 OFFCURVE",
"487 804 CURVE",
"465 833 LINE",
"443 817 OFFCURVE",
"422 806 OFFCURVE",
"398 806 CURVE SMOOTH",
"366 806 OFFCURVE",
"327 839 OFFCURVE",
"289 839 CURVE SMOOTH",
"259 839 OFFCURVE",
"224 819 OFFCURVE",
"199 796 CURVE",
"221 767 LINE",
"242 783 OFFCURVE",
"263 794 OFFCURVE",
"289 794 CURVE SMOOTH",
"328 794 OFFCURVE",
"358 761 OFFCURVE",
"399 761 CURVE SMOOTH"
);
}
);
width = 694;
}
);
note = Atilde;
unicode = 00C3;
},
{
glyphname = AE;
lastChange = "2015-07-16 07:54:35 +0000";
layers = (
{
layerId = "0E118B91-E289-4192-A9B8-5E503DF06BFB";
name = Light;
paths = (
{
closed = 1;
nodes = (
"210 0 LINE SMOOTH",
"217 0 OFFCURVE",
"220 5 OFFCURVE",
"220 11 CURVE SMOOTH",
"220 22 OFFCURVE",
"215 28 OFFCURVE",
"197 31 CURVE SMOOTH",
"136 40 LINE",
"276 235 LINE",
"570 235 LINE",
"570 43 LINE",
"532 37 LINE SMOOTH",
"513 34 OFFCURVE",
"502 27 OFFCURVE",
"502 13 CURVE SMOOTH",
"502 5 OFFCURVE",
"507 0 OFFCURVE",
"513 0 CURVE SMOOTH",
"1038 0 LINE",
"1038 118 LINE SMOOTH",
"1038 125 OFFCURVE",
"1034 131 OFFCURVE",
"1026 131 CURVE SMOOTH",
"1014 131 OFFCURVE",
"1006 122 OFFCURVE",
"1003 98 CURVE SMOOTH",
"995 42 LINE",
"630 42 LINE",
"630 335 LINE",
"931 335 LINE",
"941 287 LINE SMOOTH",
"945 268 OFFCURVE",
"951 262 OFFCURVE",
"960 262 CURVE SMOOTH",
"968 262 OFFCURVE",
"972 266 OFFCURVE",
"972 273 CURVE SMOOTH",
"972 438 LINE SMOOTH",
"972 445 OFFCURVE",
"968 450 OFFCURVE",
"960 450 CURVE SMOOTH",
"951 450 OFFCURVE",
"945 443 OFFCURVE",
"941 424 CURVE SMOOTH",
"931 377 LINE",
"630 377 LINE",
"630 653 LINE",
"983 653 LINE",
"991 602 LINE SMOOTH",
"995 578 OFFCURVE",
"1002 569 OFFCURVE",
"1013 569 CURVE SMOOTH",
"1022 569 OFFCURVE",
"1025 574 OFFCURVE",
"1025 581 CURVE SMOOTH",
"1025 695 LINE",
"455 695 LINE SMOOTH",
"449 695 OFFCURVE",
"444 690 OFFCURVE",
"444 682 CURVE SMOOTH",
"444 668 OFFCURVE",
"454 661 OFFCURVE",
"473 658 CURVE SMOOTH",
"512 652 LINE",
"76 39 LINE",
"41 39 LINE SMOOTH",
"23 39 OFFCURVE",
"13 31 OFFCURVE",
"13 17 CURVE SMOOTH",
"13 7 OFFCURVE",
"18 0 OFFCURVE",
"26 0 CURVE SMOOTH"
);
},
{
closed = 1;
nodes = (
"571 652 LINE",
"571 277 LINE",
"304 277 LINE"
);
}
);
width = 1111;
}
);
note = AE;
unicode = 00C6;
},
{
glyphname = AEacute;
lastChange = "2015-07-16 07:54:35 +0000";
layers = (
{
layerId = "0E118B91-E289-4192-A9B8-5E503DF06BFB";
name = Light;
paths = (
{
closed = 1;
nodes = (
"210 0 LINE SMOOTH",
"217 0 OFFCURVE",
"220 5 OFFCURVE",
"220 11 CURVE SMOOTH",
"220 22 OFFCURVE",
"214 28 OFFCURVE",
"197 31 CURVE SMOOTH",
"136 40 LINE",
"276 235 LINE",
"570 235 LINE",
"570 43 LINE",
"532 37 LINE SMOOTH",
"512 34 OFFCURVE",
"502 27 OFFCURVE",
"502 13 CURVE SMOOTH",
"502 5 OFFCURVE",
"507 0 OFFCURVE",
"513 0 CURVE SMOOTH",
"1038 0 LINE",
"1038 118 LINE SMOOTH",
"1038 125 OFFCURVE",
"1034 131 OFFCURVE",
"1026 131 CURVE SMOOTH",
"1014 131 OFFCURVE",
"1006 122 OFFCURVE",
"1003 98 CURVE SMOOTH",
"995 42 LINE",
"630 42 LINE",
"630 335 LINE",
"931 335 LINE",
"941 287 LINE SMOOTH",
"945 268 OFFCURVE",
"951 262 OFFCURVE",
"960 262 CURVE SMOOTH",
"968 262 OFFCURVE",
"972 266 OFFCURVE",
"972 273 CURVE SMOOTH",
"972 438 LINE SMOOTH",
"972 445 OFFCURVE",
"968 450 OFFCURVE",
"960 450 CURVE SMOOTH",
"951 450 OFFCURVE",
"945 443 OFFCURVE",
"941 424 CURVE SMOOTH",
"931 377 LINE",
"630 377 LINE",
"630 653 LINE",
"983 653 LINE",
"991 602 LINE SMOOTH",
"995 579 OFFCURVE",
"1002 569 OFFCURVE",
"1013 569 CURVE SMOOTH",
"1022 569 OFFCURVE",
"1025 574 OFFCURVE",
"1025 581 CURVE SMOOTH",
"1025 695 LINE",
"455 695 LINE SMOOTH",
"449 695 OFFCURVE",
"444 690 OFFCURVE",
"444 682 CURVE SMOOTH",
"444 668 OFFCURVE",
"454 661 OFFCURVE",
"473 658 CURVE SMOOTH",
"512 652 LINE",
"76 39 LINE",
"41 39 LINE SMOOTH",
"23 39 OFFCURVE",
"13 31 OFFCURVE",
"13 17 CURVE SMOOTH",
"13 7 OFFCURVE",
"18 0 OFFCURVE",
"26 0 CURVE SMOOTH"
);
},
{
closed = 1;
nodes = (
"571 652 LINE",
"571 277 LINE",
"304 277 LINE"
);
},
{
closed = 1;
nodes = (
"838 876 LINE",
"791 906 LINE",
"710 772 LINE",
"745 750 LINE"
);
}
);
width = 1111;
}
);
note = AEacute;
unicode = 01FC;
},
{
glyphname = B;
lastChange = "2015-07-16 07:54:36 +0000";
layers = (
{
layerId = "0E118B91-E289-4192-A9B8-5E503DF06BFB";
name = Light;
paths = (
{
closed = 1;
nodes = (
"386 0 LINE SMOOTH",
"520 0 OFFCURVE",
"609 63 OFFCURVE",
"609 190 CURVE SMOOTH",
"609 286 OFFCURVE",
"550 343 OFFCURVE",
"466 366 CURVE",
"466 370 LINE",
"526 394 OFFCURVE",
"567 441 OFFCURVE",
"567 517 CURVE SMOOTH",
"567 639 OFFCURVE",
"477 695 OFFCURVE",
"351 695 CURVE SMOOTH",
"72 695 LINE SMOOTH",
"66 695 OFFCURVE",
"61 690 OFFCURVE",
"61 682 CURVE SMOOTH",
"61 668 OFFCURVE",
"71 661 OFFCURVE",
"91 658 CURVE SMOOTH",
"129 652 LINE",
"129 43 LINE",
"91 37 LINE SMOOTH",
"71 34 OFFCURVE",
"61 27 OFFCURVE",
"61 13 CURVE SMOOTH",
"61 5 OFFCURVE",
"66 0 OFFCURVE",
"72 0 CURVE SMOOTH"
);
},
{
closed = 1;
nodes = (
"189 340 LINE",
"388 340 LINE SMOOTH",
"491 340 OFFCURVE",
"548 281 OFFCURVE",
"548 191 CURVE SMOOTH",
"548 100 OFFCURVE",
"493 42 OFFCURVE",
"378 42 CURVE SMOOTH",
"189 42 LINE"
);
},
{
closed = 1;
nodes = (
"189 653 LINE",
"345 653 LINE SMOOTH",
"449 653 OFFCURVE",
"506 604 OFFCURVE",
"506 517 CURVE SMOOTH",
"506 429 OFFCURVE",
"446 382 OFFCURVE",
"369 382 CURVE SMOOTH",
"189 382 LINE"
);
}
);
width = 670;
}
);
note = B;
unicode = 0042;
},
{
glyphname = C;
lastChange = "2015-07-16 07:54:35 +0000";
layers = (
{
layerId = "0E118B91-E289-4192-A9B8-5E503DF06BFB";
name = Light;
paths = (
{
closed = 1;
nodes = (
"458 -11 OFFCURVE",
"524 8 OFFCURVE",
"564 33 CURVE SMOOTH",
"578 41 OFFCURVE",
"591 51 OFFCURVE",
"591 65 CURVE SMOOTH",
"591 75 OFFCURVE",
"584 84 OFFCURVE",
"574 84 CURVE SMOOTH",
"568 84 OFFCURVE",
"564 81 OFFCURVE",
"555 75 CURVE SMOOTH",
"509 44 OFFCURVE",
"448 32 OFFCURVE",
"386 32 CURVE SMOOTH",
"222 32 OFFCURVE",
"111 147 OFFCURVE",
"111 347 CURVE SMOOTH",
"111 548 OFFCURVE",
"214 663 OFFCURVE",
"375 663 CURVE SMOOTH",
"439 663 OFFCURVE",
"500 647 OFFCURVE",
"539 616 CURVE",
"552 547 LINE SMOOTH",
"556 526 OFFCURVE",
"561 517 OFFCURVE",
"574 517 CURVE SMOOTH",
"584 517 OFFCURVE",
"587 522 OFFCURVE",
"587 529 CURVE SMOOTH",
"587 634 LINE",
"535 678 OFFCURVE",
"453 706 OFFCURVE",
"369 706 CURVE SMOOTH",
"185 706 OFFCURVE",
"50 584 OFFCURVE",
"50 347 CURVE SMOOTH",
"50 111 OFFCURVE",
"189 -11 OFFCURVE",
"382 -11 CURVE SMOOTH"
);
}
);
width = 647;
}
);
note = C;
unicode = 0043;
},
{
glyphname = Cacute;
lastChange = "2015-07-16 07:54:36 +0000";
layers = (
{
components = (
{
name = C;
}
);
layerId = "0E118B91-E289-4192-A9B8-5E503DF06BFB";
name = Light;
paths = (
{
closed = 1;
nodes = (
"447 877 LINE",
"400 907 LINE",
"319 773 LINE",
"354 751 LINE"
);
}
);
width = 647;
}
);
note = Cacute;
unicode = 0106;
},
{
glyphname = Ccaron;
lastChange = "2015-07-16 07:54:36 +0000";
layers = (
{
layerId = "0E118B91-E289-4192-A9B8-5E503DF06BFB";
name = Light;
paths = (
{
closed = 1;
nodes = (
"458 -11 OFFCURVE",
"524 8 OFFCURVE",
"564 33 CURVE SMOOTH",
"578 41 OFFCURVE",
"591 51 OFFCURVE",
"591 65 CURVE SMOOTH",
"591 75 OFFCURVE",
"584 84 OFFCURVE",
"574 84 CURVE SMOOTH",
"568 84 OFFCURVE",
"564 81 OFFCURVE",
"555 75 CURVE SMOOTH",
"509 44 OFFCURVE",
"448 32 OFFCURVE",
"386 32 CURVE SMOOTH",
"222 32 OFFCURVE",
"111 147 OFFCURVE",
"111 347 CURVE SMOOTH",
"111 548 OFFCURVE",
"214 663 OFFCURVE",
"375 663 CURVE SMOOTH",
"439 663 OFFCURVE",
"500 647 OFFCURVE",
"539 616 CURVE",
"552 547 LINE SMOOTH",
"556 526 OFFCURVE",
"561 517 OFFCURVE",
"574 517 CURVE SMOOTH",
"584 517 OFFCURVE",
"587 522 OFFCURVE",
"587 529 CURVE SMOOTH",
"587 634 LINE",
"535 678 OFFCURVE",
"453 706 OFFCURVE",
"369 706 CURVE SMOOTH",
"185 706 OFFCURVE",
"50 584 OFFCURVE",
"50 347 CURVE SMOOTH",
"50 111 OFFCURVE",
"189 -11 OFFCURVE",
"382 -11 CURVE SMOOTH"
);
},
{
closed = 1;
nodes = (
"376 750 LINE",
"477 878 LINE",
"447 901 LINE",
"358 806 LINE",
"269 901 LINE",
"239 878 LINE",
"341 750 LINE"
);
}
);
width = 647;
}
);
note = Ccaron;
unicode = 010C;
},
{
glyphname = Ccedilla;
lastChange = "2015-07-16 07:54:36 +0000";
layers = (
{
layerId = "0E118B91-E289-4192-A9B8-5E503DF06BFB";
name = Light;
paths = (
{
closed = 1;
nodes = (
"368 -198 OFFCURVE",
"419 -163 OFFCURVE",
"419 -118 CURVE SMOOTH",
"419 -79 OFFCURVE",
"395 -61 OFFCURVE",
"370 -50 CURVE",
"389 -11 LINE",
"462 -10 OFFCURVE",
"525 9 OFFCURVE",
"564 33 CURVE SMOOTH",
"578 41 OFFCURVE",
"591 51 OFFCURVE",
"591 65 CURVE SMOOTH",
"591 75 OFFCURVE",
"584 84 OFFCURVE",
"574 84 CURVE SMOOTH",
"568 84 OFFCURVE",
"564 81 OFFCURVE",
"555 75 CURVE SMOOTH",
"509 44 OFFCURVE",
"448 32 OFFCURVE",
"386 32 CURVE SMOOTH",
"222 32 OFFCURVE",
"111 147 OFFCURVE",
"111 347 CURVE SMOOTH",
"111 548 OFFCURVE",
"214 663 OFFCURVE",
"375 663 CURVE SMOOTH",
"439 663 OFFCURVE",
"500 647 OFFCURVE",
"539 616 CURVE",
"552 547 LINE SMOOTH",
"556 526 OFFCURVE",
"561 517 OFFCURVE",
"574 517 CURVE SMOOTH",
"584 517 OFFCURVE",
"587 522 OFFCURVE",
"587 529 CURVE SMOOTH",
"587 634 LINE",
"535 678 OFFCURVE",
"453 706 OFFCURVE",
"369 706 CURVE SMOOTH",
"185 706 OFFCURVE",
"50 584 OFFCURVE",
"50 347 CURVE SMOOTH",
"50 126 OFFCURVE",
"172 5 OFFCURVE",
"347 -10 CURVE",
"327 -62 LINE",
"362 -73 OFFCURVE",
"374 -91 OFFCURVE",
"374 -117 CURVE SMOOTH",
"374 -145 OFFCURVE",
"351 -171 OFFCURVE",
"305 -186 CURVE",
"315 -211 LINE"
);
}
);
width = 647;
}
);
note = Ccedilla;
unicode = 00C7;
},
{
glyphname = Ccircumflex;
lastChange = "2015-07-16 07:54:36 +0000";
layers = (
{
components = (
{
name = C;
}
);
layerId = "0E118B91-E289-4192-A9B8-5E503DF06BFB";
name = Light;
paths = (
{
closed = 1;
nodes = (
"359 846 LINE",
"448 750 LINE",
"478 773 LINE",
"377 901 LINE",
"342 901 LINE",
"240 773 LINE",
"270 750 LINE"
);
}
);
width = 647;
}
);
note = Ccircumflex;
unicode = 0108;
},
{
glyphname = Cdotaccent;
lastChange = "2015-07-16 07:54:35 +0000";
layers = (
{
layerId = "0E118B91-E289-4192-A9B8-5E503DF06BFB";
name = Light;
paths = (
{
closed = 1;
nodes = (
"458 -11 OFFCURVE",
"524 8 OFFCURVE",
"564 33 CURVE SMOOTH",
"578 41 OFFCURVE",
"591 51 OFFCURVE",
"591 65 CURVE SMOOTH",
"591 75 OFFCURVE",
"584 84 OFFCURVE",
"574 84 CURVE SMOOTH",
"568 84 OFFCURVE",
"564 81 OFFCURVE",
"555 75 CURVE SMOOTH",
"509 44 OFFCURVE",
"448 32 OFFCURVE",
"386 32 CURVE SMOOTH",
"222 32 OFFCURVE",
"111 147 OFFCURVE",
"111 347 CURVE SMOOTH",
"111 548 OFFCURVE",
"214 663 OFFCURVE",
"375 663 CURVE SMOOTH",
"439 663 OFFCURVE",
"500 647 OFFCURVE",
"539 616 CURVE",
"552 547 LINE SMOOTH",
"556 526 OFFCURVE",
"561 517 OFFCURVE",
"574 517 CURVE SMOOTH",
"584 517 OFFCURVE",
"587 522 OFFCURVE",
"587 529 CURVE SMOOTH",
"587 634 LINE",
"535 678 OFFCURVE",
"453 706 OFFCURVE",
"369 706 CURVE SMOOTH",
"185 706 OFFCURVE",
"50 584 OFFCURVE",
"50 347 CURVE SMOOTH",
"50 111 OFFCURVE",
"189 -11 OFFCURVE",
"382 -11 CURVE SMOOTH"
);
},
{
closed = 1;
nodes = (
"382 767 OFFCURVE",
"401 785 OFFCURVE",
"401 810 CURVE SMOOTH",
"401 834 OFFCURVE",
"382 853 OFFCURVE",
"358 853 CURVE SMOOTH",
"334 853 OFFCURVE",
"315 834 OFFCURVE",
"315 810 CURVE SMOOTH",
"315 785 OFFCURVE",
"334 767 OFFCURVE",
"358 767 CURVE SMOOTH"
);
}
);
width = 647;
}
);
note = Cdotaccent;
unicode = 010A;
},
{
glyphname = D;
lastChange = "2015-07-16 07:54:35 +0000";
layers = (
{
layerId = "0E118B91-E289-4192-A9B8-5E503DF06BFB";
name = Light;
paths = (
{
closed = 1;
nodes = (
"349 0 LINE SMOOTH",
"536 0 OFFCURVE",
"676 110 OFFCURVE",
"676 347 CURVE SMOOTH",
"676 584 OFFCURVE",
"536 695 OFFCURVE",
"349 695 CURVE SMOOTH",
"72 695 LINE SMOOTH",
"66 695 OFFCURVE",
"61 690 OFFCURVE",
"61 682 CURVE SMOOTH",
"61 668 OFFCURVE",
"72 661 OFFCURVE",
"91 658 CURVE SMOOTH",
"129 652 LINE",
"129 43 LINE",
"91 37 LINE SMOOTH",
"71 34 OFFCURVE",
"61 27 OFFCURVE",
"61 13 CURVE SMOOTH",
"61 5 OFFCURVE",
"66 0 OFFCURVE",
"72 0 CURVE SMOOTH"
);
},
{
closed = 1;
nodes = (
"189 652 LINE",
"348 652 LINE SMOOTH",
"511 652 OFFCURVE",
"614 542 OFFCURVE",
"614 347 CURVE SMOOTH",
"614 152 OFFCURVE",
"511 43 OFFCURVE",
"348 43 CURVE SMOOTH",
"189 43 LINE"
);
}
);
width = 726;
}
);
note = D;
unicode = 0044;
},
{
glyphname = Eth;
lastChange = "2015-07-16 07:54:35 +0000";
layers = (
{
layerId = "0E118B91-E289-4192-A9B8-5E503DF06BFB";
name = Light;
paths = (
{
closed = 1;
nodes = (
"351 0 LINE SMOOTH",
"538 0 OFFCURVE",
"678 110 OFFCURVE",
"678 347 CURVE SMOOTH",
"678 584 OFFCURVE",
"538 695 OFFCURVE",
"351 695 CURVE SMOOTH",
"74 695 LINE SMOOTH",
"68 695 OFFCURVE",
"63 690 OFFCURVE",
"63 682 CURVE SMOOTH",
"63 668 OFFCURVE",
"73 661 OFFCURVE",
"93 658 CURVE SMOOTH",
"131 652 LINE",
"131 376 LINE",
"65 376 LINE",
"65 332 LINE",
"131 332 LINE",
"131 43 LINE",
"93 37 LINE SMOOTH",
"73 34 OFFCURVE",
"63 27 OFFCURVE",
"63 13 CURVE SMOOTH",
"63 5 OFFCURVE",
"68 0 OFFCURVE",
"74 0 CURVE SMOOTH"
);
},
{
closed = 1;
nodes = (
"191 332 LINE",
"389 332 LINE",
"389 376 LINE",
"191 376 LINE",
"191 652 LINE",
"350 652 LINE SMOOTH",
"513 652 OFFCURVE",
"616 542 OFFCURVE",
"616 347 CURVE SMOOTH",
"616 152 OFFCURVE",
"513 43 OFFCURVE",
"350 43 CURVE SMOOTH",
"191 43 LINE"
);
}
);
width = 728;
}
);
note = Eth;
unicode = 00D0;
},
{
glyphname = Dcaron;
lastChange = "2015-07-16 07:54:35 +0000";
layers = (
{
layerId = "0E118B91-E289-4192-A9B8-5E503DF06BFB";
name = Light;
paths = (
{
closed = 1;
nodes = (
"349 0 LINE SMOOTH",
"536 0 OFFCURVE",
"676 110 OFFCURVE",
"676 347 CURVE SMOOTH",
"676 584 OFFCURVE",
"536 695 OFFCURVE",
"349 695 CURVE SMOOTH",
"72 695 LINE SMOOTH",
"66 695 OFFCURVE",
"61 690 OFFCURVE",
"61 682 CURVE SMOOTH",
"61 668 OFFCURVE",
"71 661 OFFCURVE",
"91 658 CURVE SMOOTH",
"129 652 LINE",
"129 43 LINE",
"91 37 LINE SMOOTH",
"71 34 OFFCURVE",
"61 27 OFFCURVE",
"61 13 CURVE SMOOTH",
"61 5 OFFCURVE",
"66 0 OFFCURVE",
"72 0 CURVE SMOOTH"
);
},
{
closed = 1;
nodes = (
"189 652 LINE",
"348 652 LINE SMOOTH",
"511 652 OFFCURVE",
"614 542 OFFCURVE",
"614 347 CURVE SMOOTH",
"614 152 OFFCURVE",
"511 43 OFFCURVE",
"348 43 CURVE SMOOTH",
"189 43 LINE"
);
},
{
closed = 1;
nodes = (
"365 750 LINE",
"466 878 LINE",
"436 901 LINE",
"347 806 LINE",
"258 901 LINE",
"228 878 LINE",
"330 750 LINE"
);
}
);
width = 726;
}
);
note = Dcaron;
unicode = 010E;
},
{
glyphname = Dcroat;
lastChange = "2015-07-16 07:54:35 +0000";
layers = (
{
layerId = "0E118B91-E289-4192-A9B8-5E503DF06BFB";
name = Light;
paths = (
{
closed = 1;
nodes = (
"351 0 LINE SMOOTH",
"538 0 OFFCURVE",
"678 110 OFFCURVE",
"678 347 CURVE SMOOTH",
"678 584 OFFCURVE",
"538 695 OFFCURVE",
"351 695 CURVE SMOOTH",
"74 695 LINE SMOOTH",
"68 695 OFFCURVE",
"63 690 OFFCURVE",
"63 682 CURVE SMOOTH",
"63 668 OFFCURVE",
"73 661 OFFCURVE",
"93 658 CURVE SMOOTH",
"131 652 LINE",
"131 376 LINE",
"65 376 LINE",
"65 332 LINE",
"131 332 LINE",
"131 43 LINE",
"93 37 LINE SMOOTH",
"73 34 OFFCURVE",
"63 27 OFFCURVE",
"63 13 CURVE SMOOTH",
"63 5 OFFCURVE",
"68 0 OFFCURVE",
"74 0 CURVE SMOOTH"
);
},
{
closed = 1;
nodes = (
"191 332 LINE",
"389 332 LINE",
"389 376 LINE",
"191 376 LINE",
"191 652 LINE",
"350 652 LINE SMOOTH",
"513 652 OFFCURVE",
"616 542 OFFCURVE",
"616 347 CURVE SMOOTH",
"616 152 OFFCURVE",
"513 43 OFFCURVE",
"350 43 CURVE SMOOTH",
"191 43 LINE"
);
}
);
width = 728;
}
);
note = Dcroat;
unicode = 0110;
},
{
glyphname = Ddotbelow;
lastChange = "2015-07-16 07:54:36 +0000";
layers = (
{
components = (
{
name = D;
}
);
layerId = "0E118B91-E289-4192-A9B8-5E503DF06BFB";
name = Light;
paths = (
{
closed = 1;
nodes = (
"388 -151 OFFCURVE",
"407 -133 OFFCURVE",
"407 -108 CURVE SMOOTH",
"407 -84 OFFCURVE",
"388 -65 OFFCURVE",
"364 -65 CURVE SMOOTH",
"340 -65 OFFCURVE",
"321 -84 OFFCURVE",
"321 -108 CURVE SMOOTH",
"321 -133 OFFCURVE",
"340 -151 OFFCURVE",
"364 -151 CURVE SMOOTH"
);
}
);
width = 726;
}
);
note = Ddotbelow;
unicode = 1E0C;
},
{
glyphname = Dlinebelow;
lastChange = "2015-07-16 07:54:35 +0000";
layers = (
{
layerId = "0E118B91-E289-4192-A9B8-5E503DF06BFB";
name = Light;
paths = (
{
closed = 1;
nodes = (
"349 0 LINE SMOOTH",
"536 0 OFFCURVE",
"676 110 OFFCURVE",
"676 347 CURVE SMOOTH",
"676 584 OFFCURVE",
"536 695 OFFCURVE",
"349 695 CURVE SMOOTH",
"72 695 LINE SMOOTH",
"66 695 OFFCURVE",
"61 690 OFFCURVE",
"61 682 CURVE SMOOTH",
"61 668 OFFCURVE",
"72 661 OFFCURVE",
"91 658 CURVE SMOOTH",
"129 652 LINE",
"129 43 LINE",
"91 37 LINE SMOOTH",
"71 34 OFFCURVE",
"61 27 OFFCURVE",
"61 13 CURVE SMOOTH",
"61 5 OFFCURVE",
"66 0 OFFCURVE",
"72 0 CURVE SMOOTH"
);
},
{
closed = 1;
nodes = (
"523 -129 LINE",
"523 -88 LINE",
"156 -88 LINE",
"156 -129 LINE"
);
},
{
closed = 1;
nodes = (
"189 652 LINE",
"348 652 LINE SMOOTH",
"511 652 OFFCURVE",
"614 542 OFFCURVE",
"614 347 CURVE SMOOTH",
"614 152 OFFCURVE",
"511 43 OFFCURVE",
"348 43 CURVE SMOOTH",
"189 43 LINE"
);
}
);
width = 726;
}
);
note = Dlinebelow;
unicode = 1E0E;
},
{
glyphname = E;
lastChange = "2015-07-16 07:54:35 +0000";
layers = (
{
layerId = "0E118B91-E289-4192-A9B8-5E503DF06BFB";
name = Light;
paths = (
{
closed = 1;
nodes = (
"599 0 LINE",
"599 118 LINE SMOOTH",
"599 125 OFFCURVE",
"595 131 OFFCURVE",
"587 131 CURVE SMOOTH",
"575 131 OFFCURVE",
"567 122 OFFCURVE",
"564 98 CURVE SMOOTH",
"556 42 LINE",
"189 42 LINE",
"189 335 LINE",
"492 335 LINE",
"502 287 LINE SMOOTH",
"506 269 OFFCURVE",
"512 262 OFFCURVE",
"521 262 CURVE SMOOTH",
"529 262 OFFCURVE",
"533 266 OFFCURVE",
"533 273 CURVE SMOOTH",
"533 438 LINE SMOOTH",
"533 445 OFFCURVE",
"529 450 OFFCURVE",
"521 450 CURVE SMOOTH",
"512 450 OFFCURVE",
"506 443 OFFCURVE",
"502 424 CURVE SMOOTH",
"492 377 LINE",
"189 377 LINE",
"189 653 LINE",
"543 653 LINE",
"552 602 LINE SMOOTH",
"556 578 OFFCURVE",
"562 569 OFFCURVE",
"574 569 CURVE SMOOTH",
"583 569 OFFCURVE",
"586 574 OFFCURVE",
"586 581 CURVE SMOOTH",
"586 695 LINE",
"72 695 LINE SMOOTH",
"66 695 OFFCURVE",
"61 690 OFFCURVE",
"61 682 CURVE SMOOTH",
"61 668 OFFCURVE",
"71 661 OFFCURVE",
"91 658 CURVE SMOOTH",
"129 652 LINE",
"129 43 LINE",
"91 37 LINE SMOOTH",
"71 34 OFFCURVE",
"61 27 OFFCURVE",
"61 13 CURVE SMOOTH",
"61 5 OFFCURVE",
"66 0 OFFCURVE",
"72 0 CURVE SMOOTH"
);
}
);
width = 672;
}
);
note = E;
unicode = 0045;
},
{
glyphname = Eacute;
lastChange = "2015-07-16 07:54:36 +0000";
layers = (
{
layerId = "0E118B91-E289-4192-A9B8-5E503DF06BFB";
name = Light;
paths = (
{
closed = 1;
nodes = (
"599 0 LINE",
"599 118 LINE SMOOTH",
"599 125 OFFCURVE",
"595 131 OFFCURVE",
"587 131 CURVE SMOOTH",
"575 131 OFFCURVE",
"567 122 OFFCURVE",
"564 98 CURVE SMOOTH",
"556 42 LINE",
"189 42 LINE",
"189 335 LINE",
"492 335 LINE",
"502 287 LINE SMOOTH",
"506 268 OFFCURVE",
"512 262 OFFCURVE",
"521 262 CURVE SMOOTH",
"529 262 OFFCURVE",
"533 266 OFFCURVE",
"533 273 CURVE SMOOTH",
"533 438 LINE SMOOTH",
"533 445 OFFCURVE",
"529 450 OFFCURVE",
"521 450 CURVE SMOOTH",
"512 450 OFFCURVE",
"506 443 OFFCURVE",
"502 424 CURVE SMOOTH",
"492 377 LINE",
"189 377 LINE",
"189 653 LINE",
"543 653 LINE",
"552 602 LINE SMOOTH",
"556 579 OFFCURVE",
"562 569 OFFCURVE",
"574 569 CURVE SMOOTH",
"583 569 OFFCURVE",
"586 574 OFFCURVE",
"586 581 CURVE SMOOTH",
"586 695 LINE",
"72 695 LINE SMOOTH",
"66 695 OFFCURVE",
"61 690 OFFCURVE",
"61 682 CURVE SMOOTH",
"61 668 OFFCURVE",
"70 661 OFFCURVE",
"91 658 CURVE SMOOTH",
"129 652 LINE",
"129 43 LINE",
"91 37 LINE SMOOTH",
"71 34 OFFCURVE",
"61 27 OFFCURVE",
"61 13 CURVE SMOOTH",
"61 5 OFFCURVE",
"66 0 OFFCURVE",
"72 0 CURVE SMOOTH"
);
},
{
closed = 1;
nodes = (
"412 877 LINE",
"365 907 LINE",
"284 773 LINE",
"319 751 LINE"
);
}
);
width = 672;
}
);
note = Eacute;
unicode = 00C9;
},
{
glyphname = Ebreve;
lastChange = "2015-07-16 07:54:36 +0000";
layers = (
{
layerId = "0E118B91-E289-4192-A9B8-5E503DF06BFB";
name = Light;
paths = (
{
closed = 1;
nodes = (
"599 0 LINE",
"599 118 LINE SMOOTH",
"599 125 OFFCURVE",
"595 131 OFFCURVE",
"587 131 CURVE SMOOTH",
"575 131 OFFCURVE",
"567 122 OFFCURVE",
"564 98 CURVE SMOOTH",
"556 42 LINE",
"189 42 LINE",
"189 335 LINE",
"492 335 LINE",
"502 287 LINE SMOOTH",
"506 268 OFFCURVE",
"512 262 OFFCURVE",
"521 262 CURVE SMOOTH",
"529 262 OFFCURVE",
"533 266 OFFCURVE",
"533 273 CURVE SMOOTH",
"533 438 LINE SMOOTH",
"533 445 OFFCURVE",
"529 450 OFFCURVE",
"521 450 CURVE SMOOTH",
"512 450 OFFCURVE",
"506 443 OFFCURVE",
"502 424 CURVE SMOOTH",
"492 377 LINE",
"189 377 LINE",
"189 653 LINE",
"543 653 LINE",
"552 602 LINE SMOOTH",
"556 579 OFFCURVE",
"562 569 OFFCURVE",
"574 569 CURVE SMOOTH",
"583 569 OFFCURVE",
"586 574 OFFCURVE",
"586 581 CURVE SMOOTH",
"586 695 LINE",
"72 695 LINE SMOOTH",
"66 695 OFFCURVE",
"61 690 OFFCURVE",
"61 682 CURVE SMOOTH",
"61 668 OFFCURVE",
"70 661 OFFCURVE",
"91 658 CURVE SMOOTH",
"129 652 LINE",
"129 43 LINE",
"91 37 LINE SMOOTH",
"71 34 OFFCURVE",
"61 27 OFFCURVE",
"61 13 CURVE SMOOTH",
"61 5 OFFCURVE",
"66 0 OFFCURVE",
"72 0 CURVE SMOOTH"
);
},
{
closed = 1;
nodes = (
"400 747 OFFCURVE",
"456 778 OFFCURVE",
"479 860 CURVE",
"441 874 LINE",
"427 826 OFFCURVE",
"394 790 OFFCURVE",
"341 790 CURVE SMOOTH",
"288 790 OFFCURVE",
"254 826 OFFCURVE",
"241 874 CURVE",
"203 860 LINE",
"226 778 OFFCURVE",
"281 747 OFFCURVE",
"341 747 CURVE SMOOTH"
);
}
);
width = 672;
}
);
note = Ebreve;
unicode = 0114;
},
{
glyphname = Ecaron;
lastChange = "2015-07-16 07:54:35 +0000";
layers = (
{
layerId = "0E118B91-E289-4192-A9B8-5E503DF06BFB";
name = Light;
paths = (
{
closed = 1;
nodes = (
"599 0 LINE",
"599 118 LINE SMOOTH",
"599 125 OFFCURVE",
"595 131 OFFCURVE",
"587 131 CURVE SMOOTH",
"575 131 OFFCURVE",
"567 122 OFFCURVE",
"564 98 CURVE SMOOTH",
"556 42 LINE",
"189 42 LINE",
"189 335 LINE",
"492 335 LINE",
"502 287 LINE SMOOTH",
"506 268 OFFCURVE",
"512 262 OFFCURVE",
"521 262 CURVE SMOOTH",
"529 262 OFFCURVE",
"533 266 OFFCURVE",
"533 273 CURVE SMOOTH",
"533 438 LINE SMOOTH",
"533 445 OFFCURVE",
"529 450 OFFCURVE",
"521 450 CURVE SMOOTH",
"512 450 OFFCURVE",
"506 443 OFFCURVE",
"502 424 CURVE SMOOTH",
"492 377 LINE",
"189 377 LINE",
"189 653 LINE",
"543 653 LINE",
"552 602 LINE SMOOTH",
"556 579 OFFCURVE",
"562 569 OFFCURVE",
"574 569 CURVE SMOOTH",
"583 569 OFFCURVE",
"586 574 OFFCURVE",
"586 581 CURVE SMOOTH",
"586 695 LINE",
"72 695 LINE SMOOTH",
"66 695 OFFCURVE",
"61 690 OFFCURVE",
"61 682 CURVE SMOOTH",
"61 668 OFFCURVE",
"70 661 OFFCURVE",
"91 658 CURVE SMOOTH",
"129 652 LINE",
"129 43 LINE",
"91 37 LINE SMOOTH",
"71 34 OFFCURVE",
"61 27 OFFCURVE",
"61 13 CURVE SMOOTH",
"61 5 OFFCURVE",
"66 0 OFFCURVE",
"72 0 CURVE SMOOTH"
);
},
{
closed = 1;
nodes = (
"359 750 LINE",
"460 878 LINE",
"430 901 LINE",
"341 806 LINE",
"252 901 LINE",
"222 878 LINE",
"324 750 LINE"
);
}
);
width = 672;
}
);
note = Ecaron;
unicode = 011A;
},
{
glyphname = Ecircumflex;
lastChange = "2015-07-16 07:54:35 +0000";
layers = (
{
layerId = "0E118B91-E289-4192-A9B8-5E503DF06BFB";
name = Light;
paths = (
{
closed = 1;
nodes = (
"599 0 LINE",
"599 118 LINE SMOOTH",
"599 125 OFFCURVE",
"595 131 OFFCURVE",
"587 131 CURVE SMOOTH",
"575 131 OFFCURVE",
"567 122 OFFCURVE",
"564 98 CURVE SMOOTH",
"556 42 LINE",
"189 42 LINE",
"189 335 LINE",
"492 335 LINE",
"502 287 LINE SMOOTH",
"506 268 OFFCURVE",
"512 262 OFFCURVE",
"521 262 CURVE SMOOTH",
"529 262 OFFCURVE",
"533 266 OFFCURVE",
"533 273 CURVE SMOOTH",
"533 438 LINE SMOOTH",
"533 445 OFFCURVE",
"529 450 OFFCURVE",
"521 450 CURVE SMOOTH",
"512 450 OFFCURVE",
"506 443 OFFCURVE",
"502 424 CURVE SMOOTH",
"492 377 LINE",
"189 377 LINE",
"189 653 LINE",
"543 653 LINE",
"552 602 LINE SMOOTH",
"556 579 OFFCURVE",
"562 569 OFFCURVE",
"574 569 CURVE SMOOTH",
"583 569 OFFCURVE",
"586 574 OFFCURVE",
"586 581 CURVE SMOOTH",
"586 695 LINE",
"72 695 LINE SMOOTH",
"66 695 OFFCURVE",
"61 690 OFFCURVE",
"61 682 CURVE SMOOTH",
"61 668 OFFCURVE",
"70 661 OFFCURVE",
"91 658 CURVE SMOOTH",
"129 652 LINE",
"129 43 LINE",
"91 37 LINE SMOOTH",
"71 34 OFFCURVE",
"61 27 OFFCURVE",
"61 13 CURVE SMOOTH",
"61 5 OFFCURVE",
"66 0 OFFCURVE",
"72 0 CURVE SMOOTH"
);
},
{
closed = 1;
nodes = (
"342 846 LINE",
"431 750 LINE",
"461 773 LINE",
"360 901 LINE",
"325 901 LINE",
"223 773 LINE",
"253 750 LINE"
);
}
);
width = 672;
}
);
note = Ecircumflex;
unicode = 00CA;
},
{
glyphname = Ecircumflexacute;
lastChange = "2015-07-16 07:54:36 +0000";
layers = (
{
components = (
{
name = E;
}
);
layerId = "0E118B91-E289-4192-A9B8-5E503DF06BFB";
name = Light;
paths = (
{
closed = 1;
nodes = (
"344 846 LINE",
"433 750 LINE",
"463 773 LINE",
"362 901 LINE",
"327 901 LINE",
"225 773 LINE",
"255 750 LINE"
);
},
{
closed = 1;
nodes = (
"538 937 LINE",
"494 964 LINE",
"433 861 LINE",
"464 842 LINE"
);
}
);
width = 672;
}
);
note = Ecircumflexacute;
unicode = 1EBE;
},
{
glyphname = Ecircumflexdotbelow;
lastChange = "2015-07-16 07:54:35 +0000";
layers = (
{
components = (
{
name = E;
}
);
layerId = "0E118B91-E289-4192-A9B8-5E503DF06BFB";
name = Light;
paths = (
{
closed = 1;
nodes = (
"375 -151 OFFCURVE",
"394 -133 OFFCURVE",
"394 -108 CURVE SMOOTH",
"394 -84 OFFCURVE",
"375 -65 OFFCURVE",
"351 -65 CURVE SMOOTH",
"327 -65 OFFCURVE",
"308 -84 OFFCURVE",
"308 -108 CURVE SMOOTH",
"308 -133 OFFCURVE",
"327 -151 OFFCURVE",
"351 -151 CURVE SMOOTH"
);
},
{
closed = 1;
nodes = (
"342 846 LINE",
"431 750 LINE",
"461 773 LINE",
"360 901 LINE",
"325 901 LINE",
"223 773 LINE",
"253 750 LINE"
);
}
);
width = 672;
}
);
note = Ecircumflexdotbelow;
unicode = 1EC6;
},
{
glyphname = Ecircumflexgrave;
lastChange = "2015-07-16 07:54:36 +0000";
layers = (
{
components = (
{
name = E;
}
);
layerId = "0E118B91-E289-4192-A9B8-5E503DF06BFB";
name = Light;
paths = (
{
closed = 1;
nodes = (
"257 861 LINE",
"196 964 LINE",
"152 937 LINE",
"226 842 LINE"
);
},
{
closed = 1;
nodes = (
"345 846 LINE",
"434 750 LINE",
"464 773 LINE",
"363 901 LINE",
"328 901 LINE",
"226 773 LINE",
"256 750 LINE"
);
}
);
width = 672;
}
);
note = Ecircumflexgrave;
unicode = 1EC0;
},
{
glyphname = Ecircumflexhookabove;
lastChange = "2015-07-16 07:54:36 +0000";
layers = (
{
components = (
{
name = E;
}
);
layerId = "0E118B91-E289-4192-A9B8-5E503DF06BFB";
name = Light;
paths = (
{
closed = 1;
nodes = (
"339 846 LINE",
"428 750 LINE",
"458 773 LINE",
"357 901 LINE",
"322 901 LINE",
"220 773 LINE",
"250 750 LINE"
);
},
{
closed = 1;
nodes = (
"491 834 LINE",
"496 876 LINE",
"524 886 OFFCURVE",
"542 906 OFFCURVE",
"542 932 CURVE SMOOTH",
"542 969 OFFCURVE",
"512 990 OFFCURVE",
"475 990 CURVE SMOOTH",
"456 990 OFFCURVE",
"436 984 OFFCURVE",
"422 979 CURVE",
"428 952 LINE",
"440 956 OFFCURVE",
"454 959 OFFCURVE",
"468 959 CURVE SMOOTH",
"487 959 OFFCURVE",
"500 950 OFFCURVE",
"500 932 CURVE SMOOTH",
"500 912 OFFCURVE",
"484 898 OFFCURVE",
"455 889 CURVE",
"459 834 LINE"
);
}
);
width = 672;
}
);
note = Ecircumflexhookabove;
unicode = 1EC2;
},
{
glyphname = Ecircumflextilde;
lastChange = "2015-07-16 07:54:35 +0000";
layers = (
{
components = (
{
name = E;
}
);
layerId = "0E118B91-E289-4192-A9B8-5E503DF06BFB";
name = Light;
paths = (
{
closed = 1;
nodes = (
"344 846 LINE",
"433 750 LINE",
"463 773 LINE",
"362 901 LINE",
"327 901 LINE",
"225 773 LINE",
"255 750 LINE"
);
},
{
closed = 1;
nodes = (
"410 932 OFFCURVE",
"434 946 OFFCURVE",
"454 964 CURVE",
"436 994 LINE",
"421 982 OFFCURVE",
"405 973 OFFCURVE",
"386 973 CURVE SMOOTH",
"362 973 OFFCURVE",
"333 999 OFFCURVE",
"305 999 CURVE SMOOTH",
"283 999 OFFCURVE",
"257 984 OFFCURVE",
"238 967 CURVE",
"255 936 LINE",
"270 948 OFFCURVE",
"286 958 OFFCURVE",
"305 958 CURVE SMOOTH",
"334 958 OFFCURVE",
"356 932 OFFCURVE",
"387 932 CURVE SMOOTH"
);
}
);
width = 672;
}
);
note = Ecircumflextilde;
unicode = 1EC4;
},
{
glyphname = Edieresis;
lastChange = "2015-07-16 07:54:36 +0000";
layers = (
{
layerId = "0E118B91-E289-4192-A9B8-5E503DF06BFB";
name = Light;
paths = (
{
closed = 1;
nodes = (
"599 0 LINE",
"599 118 LINE SMOOTH",
"599 125 OFFCURVE",
"595 131 OFFCURVE",
"587 131 CURVE SMOOTH",
"575 131 OFFCURVE",
"567 122 OFFCURVE",
"564 98 CURVE SMOOTH",
"556 42 LINE",
"189 42 LINE",
"189 335 LINE",
"492 335 LINE",
"502 287 LINE SMOOTH",
"506 268 OFFCURVE",
"512 262 OFFCURVE",
"521 262 CURVE SMOOTH",
"529 262 OFFCURVE",
"533 266 OFFCURVE",
"533 273 CURVE SMOOTH",
"533 438 LINE SMOOTH",
"533 445 OFFCURVE",
"529 450 OFFCURVE",
"521 450 CURVE SMOOTH",
"512 450 OFFCURVE",
"506 443 OFFCURVE",
"502 424 CURVE SMOOTH",
"492 377 LINE",
"189 377 LINE",
"189 653 LINE",
"543 653 LINE",
"552 602 LINE SMOOTH",
"556 579 OFFCURVE",
"562 569 OFFCURVE",
"574 569 CURVE SMOOTH",
"583 569 OFFCURVE",
"586 574 OFFCURVE",
"586 581 CURVE SMOOTH",
"586 695 LINE",
"72 695 LINE SMOOTH",
"66 695 OFFCURVE",
"61 690 OFFCURVE",
"61 682 CURVE SMOOTH",
"61 668 OFFCURVE",
"70 661 OFFCURVE",
"91 658 CURVE SMOOTH",
"129 652 LINE",
"129 43 LINE",
"91 37 LINE SMOOTH",
"71 34 OFFCURVE",
"61 27 OFFCURVE",
"61 13 CURVE SMOOTH",
"61 5 OFFCURVE",
"66 0 OFFCURVE",
"72 0 CURVE SMOOTH"
);
},
{
closed = 1;
nodes = (
"279 761 OFFCURVE",
"298 779 OFFCURVE",
"298 803 CURVE SMOOTH",
"298 828 OFFCURVE",
"279 846 OFFCURVE",
"256 846 CURVE SMOOTH",
"234 846 OFFCURVE",
"214 828 OFFCURVE",
"214 803 CURVE SMOOTH",
"214 779 OFFCURVE",
"234 761 OFFCURVE",
"256 761 CURVE SMOOTH"
);
},
{
closed = 1;
nodes = (
"464 761 OFFCURVE",
"483 779 OFFCURVE",
"483 803 CURVE SMOOTH",
"483 828 OFFCURVE",
"464 846 OFFCURVE",
"441 846 CURVE SMOOTH",
"419 846 OFFCURVE",
"399 828 OFFCURVE",
"399 803 CURVE SMOOTH",
"399 779 OFFCURVE",
"419 761 OFFCURVE",
"441 761 CURVE SMOOTH"
);
}
);
width = 672;
}
);
note = Edieresis;
unicode = 00CB;
},
{
glyphname = Edotaccent;
lastChange = "2015-07-16 07:54:36 +0000";
layers = (
{
layerId = "0E118B91-E289-4192-A9B8-5E503DF06BFB";
name = Light;
paths = (
{
closed = 1;
nodes = (
"599 0 LINE",
"599 118 LINE SMOOTH",
"599 125 OFFCURVE",
"595 131 OFFCURVE",
"587 131 CURVE SMOOTH",
"575 131 OFFCURVE",
"567 122 OFFCURVE",
"564 98 CURVE SMOOTH",
"556 42 LINE",
"189 42 LINE",
"189 335 LINE",
"492 335 LINE",
"502 287 LINE SMOOTH",
"506 268 OFFCURVE",
"512 262 OFFCURVE",
"521 262 CURVE SMOOTH",
"529 262 OFFCURVE",
"533 266 OFFCURVE",
"533 273 CURVE SMOOTH",
"533 438 LINE SMOOTH",
"533 445 OFFCURVE",
"529 450 OFFCURVE",
"521 450 CURVE SMOOTH",
"512 450 OFFCURVE",
"506 443 OFFCURVE",
"502 424 CURVE SMOOTH",
"492 377 LINE",
"189 377 LINE",
"189 653 LINE",
"543 653 LINE",
"552 602 LINE SMOOTH",
"556 579 OFFCURVE",
"562 569 OFFCURVE",
"574 569 CURVE SMOOTH",
"583 569 OFFCURVE",
"586 574 OFFCURVE",
"586 581 CURVE SMOOTH",
"586 695 LINE",
"72 695 LINE SMOOTH",
"66 695 OFFCURVE",
"61 690 OFFCURVE",
"61 682 CURVE SMOOTH",
"61 668 OFFCURVE",
"70 661 OFFCURVE",
"91 658 CURVE SMOOTH",
"129 652 LINE",
"129 43 LINE",
"91 37 LINE SMOOTH",
"71 34 OFFCURVE",
"61 27 OFFCURVE",
"61 13 CURVE SMOOTH",
"61 5 OFFCURVE",
"66 0 OFFCURVE",
"72 0 CURVE SMOOTH"
);
},
{
closed = 1;
nodes = (
"372 767 OFFCURVE",
"391 785 OFFCURVE",
"391 810 CURVE SMOOTH",
"391 834 OFFCURVE",
"372 853 OFFCURVE",
"348 853 CURVE SMOOTH",
"324 853 OFFCURVE",
"305 834 OFFCURVE",
"305 810 CURVE SMOOTH",
"305 785 OFFCURVE",
"324 767 OFFCURVE",
"348 767 CURVE SMOOTH"
);
}
);
width = 672;
}
);
note = Edotaccent;
unicode = 0116;
},
{
glyphname = Edotbelow;
lastChange = "2015-07-16 07:54:36 +0000";
layers = (
{
components = (
{
name = E;
}
);
layerId = "0E118B91-E289-4192-A9B8-5E503DF06BFB";
name = Light;
paths = (
{
closed = 1;
nodes = (
"377 -151 OFFCURVE",
"396 -133 OFFCURVE",
"396 -108 CURVE SMOOTH",
"396 -84 OFFCURVE",
"377 -65 OFFCURVE",
"353 -65 CURVE SMOOTH",
"329 -65 OFFCURVE",
"310 -84 OFFCURVE",
"310 -108 CURVE SMOOTH",
"310 -133 OFFCURVE",
"329 -151 OFFCURVE",
"353 -151 CURVE SMOOTH"
);
}
);
width = 672;
}
);
note = Edotbelow;
unicode = 1EB8;
},
{
glyphname = Egrave;
lastChange = "2015-07-16 07:54:35 +0000";
layers = (
{
layerId = "0E118B91-E289-4192-A9B8-5E503DF06BFB";
name = Light;
paths = (
{
closed = 1;
nodes = (
"599 0 LINE",
"599 118 LINE SMOOTH",
"599 125 OFFCURVE",
"595 131 OFFCURVE",
"587 131 CURVE SMOOTH",
"575 131 OFFCURVE",
"567 122 OFFCURVE",
"564 98 CURVE SMOOTH",
"556 42 LINE",
"189 42 LINE",
"189 335 LINE",
"492 335 LINE",
"502 287 LINE SMOOTH",
"506 268 OFFCURVE",
"512 262 OFFCURVE",
"521 262 CURVE SMOOTH",
"529 262 OFFCURVE",
"533 266 OFFCURVE",
"533 273 CURVE SMOOTH",
"533 438 LINE SMOOTH",
"533 445 OFFCURVE",
"529 450 OFFCURVE",
"521 450 CURVE SMOOTH",
"512 450 OFFCURVE",
"506 443 OFFCURVE",
"502 424 CURVE SMOOTH",
"492 377 LINE",
"189 377 LINE",
"189 653 LINE",
"543 653 LINE",
"552 602 LINE SMOOTH",
"556 579 OFFCURVE",
"562 569 OFFCURVE",
"574 569 CURVE SMOOTH",
"583 569 OFFCURVE",
"586 574 OFFCURVE",
"586 581 CURVE SMOOTH",
"586 695 LINE",
"72 695 LINE SMOOTH",
"66 695 OFFCURVE",
"61 690 OFFCURVE",
"61 682 CURVE SMOOTH",
"61 668 OFFCURVE",
"70 661 OFFCURVE",
"91 658 CURVE SMOOTH",
"129 652 LINE",
"129 43 LINE",
"91 37 LINE SMOOTH",
"71 34 OFFCURVE",
"61 27 OFFCURVE",
"61 13 CURVE SMOOTH",
"61 5 OFFCURVE",
"66 0 OFFCURVE",
"72 0 CURVE SMOOTH"
);
},
{
closed = 1;
nodes = (
"394 773 LINE",
"313 907 LINE",
"266 877 LINE",
"359 751 LINE"
);
}
);
width = 672;
}
);
note = Egrave;
unicode = 00C8;
},
{
glyphname = Ehookabove;
lastChange = "2015-07-16 07:54:36 +0000";
layers = (
{
components = (
{
name = E;
}
);
layerId = "0E118B91-E289-4192-A9B8-5E503DF06BFB";
name = Light;
paths = (
{
closed = 1;
nodes = (
"356 750 LINE",
"362 794 LINE",
"392 805 OFFCURVE",
"411 827 OFFCURVE",
"411 855 CURVE SMOOTH",
"411 893 OFFCURVE",
"379 916 OFFCURVE",
"339 916 CURVE SMOOTH",
"320 916 OFFCURVE",
"297 910 OFFCURVE",
"283 904 CURVE",
"289 876 LINE",
"302 879 OFFCURVE",
"318 883 OFFCURVE",
"332 883 CURVE SMOOTH",
"353 883 OFFCURVE",
"367 874 OFFCURVE",
"367 854 CURVE SMOOTH",
"367 833 OFFCURVE",
"350 818 OFFCURVE",
"319 808 CURVE",
"323 750 LINE"
);
}
);
width = 672;
}
);
note = Ehookabove;
unicode = 1EBA;
},
{
glyphname = Emacron;
lastChange = "2015-07-16 07:54:35 +0000";
layers = (
{
layerId = "0E118B91-E289-4192-A9B8-5E503DF06BFB";
name = Light;
paths = (
{
closed = 1;
nodes = (
"599 0 LINE",
"599 118 LINE SMOOTH",
"599 125 OFFCURVE",
"595 131 OFFCURVE",
"587 131 CURVE SMOOTH",
"575 131 OFFCURVE",
"567 122 OFFCURVE",
"564 98 CURVE SMOOTH",
"556 42 LINE",
"189 42 LINE",
"189 335 LINE",
"492 335 LINE",
"502 287 LINE SMOOTH",
"506 268 OFFCURVE",
"512 262 OFFCURVE",
"521 262 CURVE SMOOTH",
"529 262 OFFCURVE",
"533 266 OFFCURVE",
"533 273 CURVE SMOOTH",
"533 438 LINE SMOOTH",
"533 445 OFFCURVE",
"529 450 OFFCURVE",
"521 450 CURVE SMOOTH",
"512 450 OFFCURVE",
"506 443 OFFCURVE",
"502 424 CURVE SMOOTH",
"492 377 LINE",
"189 377 LINE",
"189 653 LINE",
"543 653 LINE",
"552 602 LINE SMOOTH",
"556 579 OFFCURVE",
"562 569 OFFCURVE",
"574 569 CURVE SMOOTH",
"583 569 OFFCURVE",
"586 574 OFFCURVE",
"586 581 CURVE SMOOTH",
"586 695 LINE",
"72 695 LINE SMOOTH",
"66 695 OFFCURVE",
"61 690 OFFCURVE",
"61 682 CURVE SMOOTH",
"61 668 OFFCURVE",
"70 661 OFFCURVE",
"91 658 CURVE SMOOTH",
"129 652 LINE",
"129 43 LINE",
"91 37 LINE SMOOTH",
"71 34 OFFCURVE",
"61 27 OFFCURVE",
"61 13 CURVE SMOOTH",
"61 5 OFFCURVE",
"66 0 OFFCURVE",
"72 0 CURVE SMOOTH"
);
},
{
closed = 1;
nodes = (
"485 776 LINE",
"485 818 LINE",
"208 818 LINE",
"208 776 LINE"
);
}
);
width = 672;
}
);
note = Emacron;
unicode = 0112;
},
{
glyphname = Eogonek;
lastChange = "2015-07-16 07:54:35 +0000";
layers = (
{
layerId = "0E118B91-E289-4192-A9B8-5E503DF06BFB";
name = Light;
paths = (
{
closed = 1;
nodes = (
"562 -204 OFFCURVE",
"582 -200 OFFCURVE",
"598 -193 CURVE",
"592 -166 LINE",
"580 -169 OFFCURVE",
"568 -172 OFFCURVE",
"554 -172 CURVE SMOOTH",
"516 -172 OFFCURVE",
"485 -153 OFFCURVE",
"485 -109 CURVE SMOOTH",
"485 -60 OFFCURVE",
"524 -19 OFFCURVE",
"563 0 CURVE",
"599 0 LINE",
"599 118 LINE SMOOTH",
"599 125 OFFCURVE",
"595 131 OFFCURVE",
"587 131 CURVE SMOOTH",
"575 131 OFFCURVE",
"567 121 OFFCURVE",
"564 98 CURVE SMOOTH",
"556 42 LINE",
"189 42 LINE",
"189 335 LINE",
"492 335 LINE",
"502 287 LINE",
"507 268 OFFCURVE",
"512 262 OFFCURVE",
"521 262 CURVE SMOOTH",
"529 262 OFFCURVE",
"533 266 OFFCURVE",
"533 273 CURVE SMOOTH",
"533 438 LINE SMOOTH",
"533 445 OFFCURVE",
"529 450 OFFCURVE",
"521 450 CURVE SMOOTH",
"512 450 OFFCURVE",
"507 443 OFFCURVE",
"502 424 CURVE",
"492 377 LINE",
"189 377 LINE",
"189 653 LINE",
"543 653 LINE",
"552 602 LINE SMOOTH",
"556 579 OFFCURVE",
"562 569 OFFCURVE",
"574 569 CURVE SMOOTH",
"583 569 OFFCURVE",
"586 574 OFFCURVE",
"586 581 CURVE SMOOTH",
"586 695 LINE",
"72 695 LINE SMOOTH",
"66 695 OFFCURVE",
"61 690 OFFCURVE",
"61 682 CURVE SMOOTH",
"61 668 OFFCURVE",
"70 661 OFFCURVE",
"91 658 CURVE SMOOTH",
"129 652 LINE",
"129 43 LINE",
"91 37 LINE SMOOTH",
"71 34 OFFCURVE",
"61 27 OFFCURVE",
"61 13 CURVE SMOOTH",
"61 5 OFFCURVE",
"66 0 OFFCURVE",
"72 0 CURVE SMOOTH",
"516 0 LINE",
"474 -21 OFFCURVE",
"441 -62 OFFCURVE",
"441 -110 CURVE SMOOTH",
"441 -172 OFFCURVE",
"487 -204 OFFCURVE",
"544 -204 CURVE SMOOTH"
);
}
);
width = 672;
}
);
note = Eogonek;
unicode = 0118;
},
{
glyphname = Etilde;
lastChange = "2015-07-16 07:54:35 +0000";
layers = (
{
components = (
{
name = E;
}
);
layerId = "0E118B91-E289-4192-A9B8-5E503DF06BFB";
name = Light;
paths = (
{
closed = 1;
nodes = (
"437 761 OFFCURVE",
"470 780 OFFCURVE",
"495 804 CURVE",
"473 833 LINE",
"451 817 OFFCURVE",
"430 806 OFFCURVE",
"406 806 CURVE SMOOTH",
"374 806 OFFCURVE",
"335 839 OFFCURVE",
"297 839 CURVE SMOOTH",
"267 839 OFFCURVE",
"232 819 OFFCURVE",
"207 796 CURVE",
"229 767 LINE",
"250 783 OFFCURVE",
"271 794 OFFCURVE",
"297 794 CURVE SMOOTH",
"336 794 OFFCURVE",
"366 761 OFFCURVE",
"407 761 CURVE SMOOTH"
);
}
);
width = 672;
}
);
note = Etilde;
unicode = 1EBC;
},
{
glyphname = F;
lastChange = "2015-07-16 07:54:35 +0000";
layers = (
{
layerId = "0E118B91-E289-4192-A9B8-5E503DF06BFB";
name = Light;
paths = (
{
closed = 1;
nodes = (
"256 0 LINE SMOOTH",
"264 0 OFFCURVE",
"265 5 OFFCURVE",
"265 11 CURVE SMOOTH",
"265 21 OFFCURVE",
"260 28 OFFCURVE",
"243 31 CURVE SMOOTH",
"189 40 LINE",
"189 321 LINE",
"479 321 LINE",
"488 272 LINE SMOOTH",
"491 254 OFFCURVE",
"497 245 OFFCURVE",
"507 245 CURVE SMOOTH",
"515 245 OFFCURVE",
"519 250 OFFCURVE",
"519 257 CURVE SMOOTH",
"519 427 LINE SMOOTH",
"519 434 OFFCURVE",
"515 439 OFFCURVE",
"507 439 CURVE SMOOTH",
"497 439 OFFCURVE",
"491 431 OFFCURVE",
"488 413 CURVE SMOOTH",
"479 364 LINE",
"189 364 LINE",
"189 652 LINE",
"530 652 LINE",
"539 597 LINE SMOOTH",
"543 575 OFFCURVE",
"550 565 OFFCURVE",
"562 565 CURVE SMOOTH",
"570 565 OFFCURVE",
"574 570 OFFCURVE",
"574 577 CURVE SMOOTH",
"574 695 LINE",
"72 695 LINE SMOOTH",
"66 695 OFFCURVE",
"61 690 OFFCURVE",
"61 682 CURVE SMOOTH",
"61 668 OFFCURVE",
"70 661 OFFCURVE",
"91 658 CURVE SMOOTH",
"129 652 LINE",
"129 39 LINE",
"92 39 LINE SMOOTH",
"73 39 OFFCURVE",
"63 31 OFFCURVE",
"63 17 CURVE SMOOTH",
"63 7 OFFCURVE",
"68 0 OFFCURVE",
"76 0 CURVE SMOOTH"
);
}
);
width = 642;
}
);
note = F;
unicode = 0046;
},
{
glyphname = G;
lastChange = "2015-07-16 07:54:36 +0000";
layers = (
{
layerId = "0E118B91-E289-4192-A9B8-5E503DF06BFB";
name = Light;
paths = (
{
closed = 1;
nodes = (
"443 -11 OFFCURVE",
"529 5 OFFCURVE",
"590 40 CURVE",
"590 305 LINE",
"642 314 LINE SMOOTH",
"657 317 OFFCURVE",
"664 321 OFFCURVE",
"664 332 CURVE SMOOTH",
"664 337 OFFCURVE",
"662 343 OFFCURVE",
"655 343 CURVE SMOOTH",
"425 343 LINE SMOOTH",
"407 343 OFFCURVE",
"397 335 OFFCURVE",
"397 322 CURVE SMOOTH",
"397 311 OFFCURVE",
"402 305 OFFCURVE",
"410 305 CURVE SMOOTH",
"530 305 LINE",
"530 64 LINE",
"488 43 OFFCURVE",
"430 32 OFFCURVE",
"379 32 CURVE SMOOTH",
"215 32 OFFCURVE",
"114 147 OFFCURVE",
"114 347 CURVE SMOOTH",
"114 548 OFFCURVE",
"216 663 OFFCURVE",
"378 663 CURVE SMOOTH",
"442 663 OFFCURVE",
"503 647 OFFCURVE",
"542 616 CURVE",
"555 547 LINE SMOOTH",
"559 526 OFFCURVE",
"564 517 OFFCURVE",
"577 517 CURVE SMOOTH",
"587 517 OFFCURVE",
"590 522 OFFCURVE",
"590 529 CURVE SMOOTH",
"590 634 LINE",
"538 678 OFFCURVE",
"456 706 OFFCURVE",
"372 706 CURVE SMOOTH",
"186 706 OFFCURVE",
"53 584 OFFCURVE",
"53 347 CURVE SMOOTH",
"53 108 OFFCURVE",
"185 -11 OFFCURVE",
"378 -11 CURVE SMOOTH"
);
}
);
width = 711;
}
);
note = G;
unicode = 0047;
},
{
glyphname = Gbreve;
lastChange = "2015-07-16 07:54:36 +0000";
layers = (
{
layerId = "0E118B91-E289-4192-A9B8-5E503DF06BFB";
name = Light;
paths = (
{
closed = 1;
nodes = (
"443 -11 OFFCURVE",
"529 5 OFFCURVE",
"590 40 CURVE",
"590 305 LINE",
"642 314 LINE SMOOTH",
"657 317 OFFCURVE",
"664 321 OFFCURVE",
"664 332 CURVE SMOOTH",
"664 337 OFFCURVE",
"662 343 OFFCURVE",
"655 343 CURVE SMOOTH",
"425 343 LINE SMOOTH",
"407 343 OFFCURVE",
"397 335 OFFCURVE",
"397 322 CURVE SMOOTH",
"397 311 OFFCURVE",
"402 305 OFFCURVE",
"410 305 CURVE SMOOTH",
"530 305 LINE",
"530 64 LINE",
"488 43 OFFCURVE",
"430 32 OFFCURVE",
"379 32 CURVE SMOOTH",
"215 32 OFFCURVE",
"114 147 OFFCURVE",
"114 347 CURVE SMOOTH",
"114 548 OFFCURVE",
"216 663 OFFCURVE",
"378 663 CURVE SMOOTH",
"442 663 OFFCURVE",
"503 647 OFFCURVE",
"542 616 CURVE",
"555 547 LINE SMOOTH",
"559 526 OFFCURVE",
"564 517 OFFCURVE",
"577 517 CURVE SMOOTH",
"587 517 OFFCURVE",
"590 522 OFFCURVE",
"590 529 CURVE SMOOTH",
"590 634 LINE",
"538 678 OFFCURVE",
"456 706 OFFCURVE",
"372 706 CURVE SMOOTH",
"186 706 OFFCURVE",
"53 584 OFFCURVE",
"53 347 CURVE SMOOTH",
"53 108 OFFCURVE",
"185 -11 OFFCURVE",
"378 -11 CURVE SMOOTH"
);
},
{
closed = 1;
nodes = (
"422 747 OFFCURVE",
"478 778 OFFCURVE",
"501 860 CURVE",
"463 874 LINE",
"449 826 OFFCURVE",
"416 790 OFFCURVE",
"363 790 CURVE SMOOTH",
"310 790 OFFCURVE",
"276 826 OFFCURVE",
"263 874 CURVE",
"225 860 LINE",
"248 778 OFFCURVE",
"303 747 OFFCURVE",
"363 747 CURVE SMOOTH"
);
}
);
width = 711;
}
);
note = Gbreve;
unicode = 011E;
},
{
glyphname = Gcaron;
lastChange = "2015-07-16 07:54:36 +0000";
layers = (
{
components = (
{
name = G;
}
);
layerId = "0E118B91-E289-4192-A9B8-5E503DF06BFB";
name = Light;
paths = (
{
closed = 1;
nodes = (
"385 750 LINE",
"486 878 LINE",
"456 901 LINE",
"367 806 LINE",
"278 901 LINE",
"248 878 LINE",
"350 750 LINE"
);
}
);
width = 711;
}
);
note = Gcaron;
unicode = 01E6;
},
{
glyphname = Gcircumflex;
lastChange = "2015-07-16 07:54:35 +0000";
layers = (
{
layerId = "0E118B91-E289-4192-A9B8-5E503DF06BFB";
name = Light;
paths = (
{
closed = 1;
nodes = (
"443 -11 OFFCURVE",
"529 5 OFFCURVE",
"590 40 CURVE",
"590 305 LINE",
"642 314 LINE SMOOTH",
"657 317 OFFCURVE",
"664 321 OFFCURVE",
"664 332 CURVE SMOOTH",
"664 337 OFFCURVE",
"662 343 OFFCURVE",
"655 343 CURVE SMOOTH",
"425 343 LINE SMOOTH",
"407 343 OFFCURVE",
"397 335 OFFCURVE",
"397 322 CURVE SMOOTH",
"397 311 OFFCURVE",
"402 305 OFFCURVE",
"410 305 CURVE SMOOTH",
"530 305 LINE",
"530 64 LINE",
"488 43 OFFCURVE",
"430 32 OFFCURVE",
"379 32 CURVE SMOOTH",
"215 32 OFFCURVE",
"114 147 OFFCURVE",
"114 347 CURVE SMOOTH",
"114 548 OFFCURVE",
"216 663 OFFCURVE",
"378 663 CURVE SMOOTH",
"442 663 OFFCURVE",
"503 647 OFFCURVE",
"542 616 CURVE",
"555 547 LINE SMOOTH",
"559 526 OFFCURVE",
"564 517 OFFCURVE",
"577 517 CURVE SMOOTH",
"587 517 OFFCURVE",
"590 522 OFFCURVE",
"590 529 CURVE SMOOTH",
"590 634 LINE",
"538 678 OFFCURVE",
"456 706 OFFCURVE",
"372 706 CURVE SMOOTH",
"186 706 OFFCURVE",
"53 584 OFFCURVE",
"53 347 CURVE SMOOTH",
"53 108 OFFCURVE",
"185 -11 OFFCURVE",
"378 -11 CURVE SMOOTH"
);
},
{
closed = 1;
nodes = (
"364 846 LINE",
"453 750 LINE",
"483 773 LINE",
"382 901 LINE",
"347 901 LINE",
"245 773 LINE",
"275 750 LINE"
);
}
);
width = 711;
}
);
note = Gcircumflex;
unicode = 011C;
},
{
glyphname = Gcommaaccent;
lastChange = "2015-07-16 07:54:36 +0000";
layers = (
{
layerId = "0E118B91-E289-4192-A9B8-5E503DF06BFB";
name = Light;
paths = (
{
closed = 1;
nodes = (
"443 -11 OFFCURVE",
"529 5 OFFCURVE",
"590 40 CURVE",
"590 305 LINE",
"642 314 LINE SMOOTH",
"657 317 OFFCURVE",
"664 321 OFFCURVE",
"664 332 CURVE SMOOTH",
"664 337 OFFCURVE",
"662 343 OFFCURVE",
"655 343 CURVE SMOOTH",
"425 343 LINE SMOOTH",
"407 343 OFFCURVE",
"397 335 OFFCURVE",
"397 322 CURVE SMOOTH",
"397 311 OFFCURVE",
"402 305 OFFCURVE",
"410 305 CURVE SMOOTH",
"530 305 LINE",
"530 64 LINE",
"488 43 OFFCURVE",
"430 32 OFFCURVE",
"379 32 CURVE SMOOTH",
"215 32 OFFCURVE",
"114 147 OFFCURVE",
"114 347 CURVE SMOOTH",
"114 548 OFFCURVE",
"216 663 OFFCURVE",
"378 663 CURVE SMOOTH",
"442 663 OFFCURVE",
"503 647 OFFCURVE",
"542 616 CURVE",
"555 547 LINE SMOOTH",
"559 526 OFFCURVE",
"564 517 OFFCURVE",
"577 517 CURVE SMOOTH",
"587 517 OFFCURVE",
"590 522 OFFCURVE",
"590 529 CURVE SMOOTH",
"590 634 LINE",
"538 678 OFFCURVE",
"456 706 OFFCURVE",
"372 706 CURVE SMOOTH",
"186 706 OFFCURVE",
"53 584 OFFCURVE",
"53 347 CURVE SMOOTH",
"53 108 OFFCURVE",
"185 -11 OFFCURVE",
"378 -11 CURVE SMOOTH"
);
},
{
closed = 1;
nodes = (
"371 -174 OFFCURVE",
"397 -115 OFFCURVE",
"411 -58 CURVE",
"347 -43 LINE SMOOTH",
"329 -39 OFFCURVE",
"316 -46 OFFCURVE",
"316 -62 CURVE SMOOTH",
"316 -68 OFFCURVE",
"320 -72 OFFCURVE",
"325 -74 CURVE",
"355 -84 LINE",
"351 -116 OFFCURVE",
"330 -166 OFFCURVE",
"306 -202 CURVE",
"334 -219 LINE"
);
}
);
width = 711;
}
);
note = Gcommaaccent;
unicode = 0122;
},
{
glyphname = Gdotaccent;
lastChange = "2015-07-16 07:54:36 +0000";
layers = (
{
layerId = "0E118B91-E289-4192-A9B8-5E503DF06BFB";
name = Light;
paths = (
{
closed = 1;
nodes = (
"443 -11 OFFCURVE",
"529 5 OFFCURVE",
"590 40 CURVE",
"590 305 LINE",
"642 314 LINE SMOOTH",
"657 317 OFFCURVE",
"664 321 OFFCURVE",
"664 332 CURVE SMOOTH",
"664 337 OFFCURVE",
"662 343 OFFCURVE",
"655 343 CURVE SMOOTH",
"425 343 LINE SMOOTH",
"407 343 OFFCURVE",
"397 335 OFFCURVE",
"397 322 CURVE SMOOTH",
"397 311 OFFCURVE",
"402 305 OFFCURVE",
"410 305 CURVE SMOOTH",
"530 305 LINE",
"530 64 LINE",
"488 43 OFFCURVE",
"430 32 OFFCURVE",
"379 32 CURVE SMOOTH",
"215 32 OFFCURVE",
"114 147 OFFCURVE",
"114 347 CURVE SMOOTH",
"114 548 OFFCURVE",
"216 663 OFFCURVE",
"378 663 CURVE SMOOTH",
"442 663 OFFCURVE",
"503 647 OFFCURVE",
"542 616 CURVE",
"555 547 LINE SMOOTH",
"559 526 OFFCURVE",
"564 517 OFFCURVE",
"577 517 CURVE SMOOTH",
"587 517 OFFCURVE",
"590 522 OFFCURVE",
"590 529 CURVE SMOOTH",
"590 634 LINE",
"538 678 OFFCURVE",
"456 706 OFFCURVE",
"372 706 CURVE SMOOTH",
"186 706 OFFCURVE",
"53 584 OFFCURVE",
"53 347 CURVE SMOOTH",
"53 108 OFFCURVE",
"185 -11 OFFCURVE",
"378 -11 CURVE SMOOTH"
);
},
{
closed = 1;
nodes = (
"388 767 OFFCURVE",
"407 785 OFFCURVE",
"407 810 CURVE SMOOTH",
"407 834 OFFCURVE",
"388 853 OFFCURVE",
"364 853 CURVE SMOOTH",
"340 853 OFFCURVE",
"321 834 OFFCURVE",
"321 810 CURVE SMOOTH",
"321 785 OFFCURVE",
"340 767 OFFCURVE",
"364 767 CURVE SMOOTH"
);
}
);
width = 711;
}
);
note = Gdotaccent;
unicode = 0120;
},
{
glyphname = Gmacron;
lastChange = "2015-07-16 07:54:35 +0000";
layers = (
{
layerId = "0E118B91-E289-4192-A9B8-5E503DF06BFB";
name = Light;
paths = (
{
closed = 1;
nodes = (
"443 -11 OFFCURVE",
"529 5 OFFCURVE",
"590 40 CURVE",
"590 305 LINE",
"642 314 LINE SMOOTH",
"657 317 OFFCURVE",
"664 321 OFFCURVE",
"664 332 CURVE SMOOTH",
"664 337 OFFCURVE",
"662 343 OFFCURVE",
"655 343 CURVE SMOOTH",
"425 343 LINE SMOOTH",
"407 343 OFFCURVE",
"397 335 OFFCURVE",
"397 322 CURVE SMOOTH",
"397 311 OFFCURVE",
"402 305 OFFCURVE",
"410 305 CURVE SMOOTH",
"530 305 LINE",
"530 64 LINE",
"488 43 OFFCURVE",
"430 32 OFFCURVE",
"379 32 CURVE SMOOTH",
"215 32 OFFCURVE",
"114 147 OFFCURVE",
"114 347 CURVE SMOOTH",
"114 548 OFFCURVE",
"216 663 OFFCURVE",
"378 663 CURVE SMOOTH",
"442 663 OFFCURVE",
"503 647 OFFCURVE",
"542 616 CURVE",
"555 547 LINE SMOOTH",
"559 526 OFFCURVE",
"564 517 OFFCURVE",
"577 517 CURVE SMOOTH",
"587 517 OFFCURVE",
"590 522 OFFCURVE",
"590 529 CURVE SMOOTH",
"590 634 LINE",
"538 678 OFFCURVE",
"456 706 OFFCURVE",
"372 706 CURVE SMOOTH",
"186 706 OFFCURVE",
"53 584 OFFCURVE",
"53 347 CURVE SMOOTH",
"53 108 OFFCURVE",
"185 -11 OFFCURVE",
"378 -11 CURVE SMOOTH"
);
},
{
closed = 1;
nodes = (
"506 776 LINE",
"506 818 LINE",
"229 818 LINE",
"229 776 LINE"
);
}
);
width = 711;
}
);
note = Gmacron;
unicode = 1E20;
},
{
glyphname = H;
lastChange = "2015-07-16 07:54:36 +0000";
layers = (
{
layerId = "0E118B91-E289-4192-A9B8-5E503DF06BFB";
name = Light;
paths = (
{
closed = 1;
nodes = (
"254 0 LINE SMOOTH",
"262 0 OFFCURVE",
"263 5 OFFCURVE",
"263 11 CURVE SMOOTH",
"263 21 OFFCURVE",
"259 28 OFFCURVE",
"241 31 CURVE SMOOTH",
"187 40 LINE",
"187 340 LINE",
"597 340 LINE",
"597 39 LINE",
"554 39 LINE SMOOTH",
"536 39 OFFCURVE",
"526 31 OFFCURVE",
"526 17 CURVE SMOOTH",
"526 7 OFFCURVE",
"531 0 OFFCURVE",
"539 0 CURVE SMOOTH",
"718 0 LINE SMOOTH",
"726 0 OFFCURVE",
"727 6 OFFCURVE",
"727 11 CURVE SMOOTH",
"727 21 OFFCURVE",
"722 27 OFFCURVE",
"707 30 CURVE SMOOTH",
"657 40 LINE",
"657 655 LINE",
"707 665 LINE SMOOTH",
"720 668 OFFCURVE",
"727 674 OFFCURVE",
"727 684 CURVE SMOOTH",
"727 689 OFFCURVE",
"726 695 OFFCURVE",
"718 695 CURVE SMOOTH",
"554 695 LINE SMOOTH",
"536 695 OFFCURVE",
"526 687 OFFCURVE",
"526 673 CURVE SMOOTH",
"526 663 OFFCURVE",
"531 656 OFFCURVE",
"539 656 CURVE SMOOTH",
"597 656 LINE",
"597 382 LINE",
"187 382 LINE",
"187 655 LINE",
"241 664 LINE SMOOTH",
"256 667 OFFCURVE",
"263 674 OFFCURVE",
"263 684 CURVE SMOOTH",
"263 690 OFFCURVE",
"262 695 OFFCURVE",
"254 695 CURVE SMOOTH",
"89 695 LINE SMOOTH",
"71 695 OFFCURVE",
"61 687 OFFCURVE",
"61 673 CURVE SMOOTH",
"61 663 OFFCURVE",
"66 656 OFFCURVE",
"74 656 CURVE SMOOTH",
"127 656 LINE",
"127 39 LINE",
"90 39 LINE SMOOTH",
"71 39 OFFCURVE",
"61 31 OFFCURVE",
"61 17 CURVE SMOOTH",
"61 7 OFFCURVE",
"66 0 OFFCURVE",
"74 0 CURVE SMOOTH"
);
}
);
width = 788;
}
);
note = H;
unicode = 0048;
},
{
glyphname = Hbar;
lastChange = "2015-07-16 07:54:36 +0000";
layers = (
{
layerId = "0E118B91-E289-4192-A9B8-5E503DF06BFB";
name = Light;
paths = (
{
closed = 1;
nodes = (
"255 0 LINE SMOOTH",
"263 0 OFFCURVE",
"264 5 OFFCURVE",
"264 11 CURVE SMOOTH",
"264 21 OFFCURVE",
"258 28 OFFCURVE",
"242 31 CURVE SMOOTH",
"188 40 LINE",
"188 340 LINE",
"598 340 LINE",
"598 39 LINE",
"555 39 LINE SMOOTH",
"537 39 OFFCURVE",
"527 31 OFFCURVE",
"527 17 CURVE SMOOTH",
"527 7 OFFCURVE",
"532 0 OFFCURVE",
"540 0 CURVE SMOOTH",
"719 0 LINE SMOOTH",
"727 0 OFFCURVE",
"728 6 OFFCURVE",
"728 11 CURVE SMOOTH",
"728 21 OFFCURVE",
"722 27 OFFCURVE",
"708 30 CURVE SMOOTH",
"658 40 LINE",
"658 502 LINE",
"728 502 LINE",
"728 542 LINE",
"658 542 LINE",
"658 655 LINE",
"708 665 LINE SMOOTH",
"722 668 OFFCURVE",
"728 674 OFFCURVE",
"728 684 CURVE SMOOTH",
"728 689 OFFCURVE",
"727 695 OFFCURVE",
"719 695 CURVE SMOOTH",
"555 695 LINE SMOOTH",
"537 695 OFFCURVE",
"527 687 OFFCURVE",
"527 673 CURVE SMOOTH",
"527 663 OFFCURVE",
"532 656 OFFCURVE",
"540 656 CURVE SMOOTH",
"598 656 LINE",
"598 542 LINE",
"188 542 LINE",
"188 655 LINE",
"242 664 LINE SMOOTH",
"258 667 OFFCURVE",
"264 674 OFFCURVE",
"264 684 CURVE SMOOTH",
"264 690 OFFCURVE",
"263 695 OFFCURVE",
"255 695 CURVE SMOOTH",
"90 695 LINE SMOOTH",
"72 695 OFFCURVE",
"62 687 OFFCURVE",
"62 673 CURVE SMOOTH",
"62 663 OFFCURVE",
"67 656 OFFCURVE",
"75 656 CURVE SMOOTH",
"128 656 LINE",
"128 542 LINE",
"62 542 LINE",
"62 502 LINE",
"128 502 LINE",
"128 39 LINE",
"91 39 LINE SMOOTH",
"73 39 OFFCURVE",
"62 31 OFFCURVE",
"62 17 CURVE SMOOTH",
"62 7 OFFCURVE",
"67 0 OFFCURVE",
"75 0 CURVE SMOOTH"
);
},
{
closed = 1;
nodes = (
"188 502 LINE",
"598 502 LINE",
"598 382 LINE",
"188 382 LINE"
);
}
);
width = 790;
}
);
note = Hbar;
unicode = 0126;
},
{
glyphname = Hbrevebelow;
lastChange = "2015-07-16 07:54:36 +0000";
layers = (
{
components = (
{
name = H;
}
);
layerId = "0E118B91-E289-4192-A9B8-5E503DF06BFB";
name = Light;
paths = (
{
closed = 1;
nodes = (
"454 -182 OFFCURVE",
"510 -150 OFFCURVE",
"533 -69 CURVE",
"495 -55 LINE",
"481 -103 OFFCURVE",
"448 -139 OFFCURVE",
"395 -139 CURVE SMOOTH",
"342 -139 OFFCURVE",
"308 -103 OFFCURVE",
"295 -55 CURVE",
"257 -69 LINE",
"280 -150 OFFCURVE",
"335 -182 OFFCURVE",
"395 -182 CURVE SMOOTH"
);
}
);
width = 788;
}
);
note = Hbrevebelow;
unicode = 1E2A;
},
{
glyphname = Hcircumflex;
lastChange = "2015-07-16 07:54:36 +0000";
layers = (
{
layerId = "0E118B91-E289-4192-A9B8-5E503DF06BFB";
name = Light;
paths = (
{
closed = 1;
nodes = (
"254 0 LINE SMOOTH",
"262 0 OFFCURVE",
"263 5 OFFCURVE",
"263 11 CURVE SMOOTH",
"263 21 OFFCURVE",
"258 28 OFFCURVE",
"241 31 CURVE SMOOTH",
"187 40 LINE",
"187 340 LINE",
"597 340 LINE",
"597 39 LINE",
"554 39 LINE SMOOTH",
"536 39 OFFCURVE",
"526 31 OFFCURVE",
"526 17 CURVE SMOOTH",
"526 7 OFFCURVE",
"531 0 OFFCURVE",
"539 0 CURVE SMOOTH",
"718 0 LINE SMOOTH",
"726 0 OFFCURVE",
"727 6 OFFCURVE",
"727 11 CURVE SMOOTH",
"727 21 OFFCURVE",
"722 27 OFFCURVE",
"707 30 CURVE SMOOTH",
"657 40 LINE",
"657 655 LINE",
"707 665 LINE SMOOTH",
"720 668 OFFCURVE",
"727 674 OFFCURVE",
"727 684 CURVE SMOOTH",
"727 689 OFFCURVE",
"726 695 OFFCURVE",
"718 695 CURVE SMOOTH",
"554 695 LINE SMOOTH",
"536 695 OFFCURVE",
"526 687 OFFCURVE",
"526 673 CURVE SMOOTH",
"526 663 OFFCURVE",
"531 656 OFFCURVE",
"539 656 CURVE SMOOTH",
"597 656 LINE",
"597 382 LINE",
"187 382 LINE",
"187 655 LINE",
"241 664 LINE SMOOTH",
"256 667 OFFCURVE",
"263 674 OFFCURVE",
"263 684 CURVE SMOOTH",
"263 690 OFFCURVE",
"262 695 OFFCURVE",
"254 695 CURVE SMOOTH",
"89 695 LINE SMOOTH",
"71 695 OFFCURVE",
"61 687 OFFCURVE",
"61 673 CURVE SMOOTH",
"61 663 OFFCURVE",
"66 656 OFFCURVE",
"74 656 CURVE SMOOTH",
"127 656 LINE",
"127 39 LINE",
"90 39 LINE SMOOTH",
"72 39 OFFCURVE",
"61 31 OFFCURVE",
"61 17 CURVE SMOOTH",
"61 7 OFFCURVE",
"66 0 OFFCURVE",
"74 0 CURVE SMOOTH"
);
},
{
closed = 1;
nodes = (
"393 846 LINE",
"482 750 LINE",
"512 773 LINE",
"411 901 LINE",
"376 901 LINE",
"274 773 LINE",
"304 750 LINE"
);
}
);
width = 788;
}
);
note = Hcircumflex;
unicode = 0124;
},
{
glyphname = Hdotbelow;
lastChange = "2015-07-16 07:54:36 +0000";
layers = (
{
components = (
{
name = H;
}
);
layerId = "0E118B91-E289-4192-A9B8-5E503DF06BFB";
name = Light;
paths = (
{
closed = 1;
nodes = (
"420 -151 OFFCURVE",
"439 -133 OFFCURVE",
"439 -108 CURVE SMOOTH",
"439 -84 OFFCURVE",
"420 -65 OFFCURVE",
"396 -65 CURVE SMOOTH",
"372 -65 OFFCURVE",
"353 -84 OFFCURVE",
"353 -108 CURVE SMOOTH",
"353 -133 OFFCURVE",
"372 -151 OFFCURVE",
"396 -151 CURVE SMOOTH"
);
}
);
width = 788;
}
);
note = Hdotbelow;
unicode = 1E24;
},
{
glyphname = I;
lastChange = "2015-07-16 07:54:35 +0000";
layers = (
{
layerId = "0E118B91-E289-4192-A9B8-5E503DF06BFB";
name = Light;
paths = (
{
closed = 1;
nodes = (
"259 0 LINE SMOOTH",
"267 0 OFFCURVE",
"268 5 OFFCURVE",
"268 11 CURVE SMOOTH",
"268 21 OFFCURVE",
"265 28 OFFCURVE",
"246 31 CURVE SMOOTH",
"192 40 LINE",
"192 655 LINE",
"246 664 LINE SMOOTH",
"261 666 OFFCURVE",
"268 674 OFFCURVE",
"268 684 CURVE SMOOTH",
"268 690 OFFCURVE",
"267 695 OFFCURVE",
"259 695 CURVE SMOOTH",
"94 695 LINE SMOOTH",
"76 695 OFFCURVE",
"66 687 OFFCURVE",
"66 673 CURVE SMOOTH",
"66 663 OFFCURVE",
"71 656 OFFCURVE",
"79 656 CURVE SMOOTH",
"132 656 LINE",
"132 39 LINE",
"95 39 LINE SMOOTH",
"77 39 OFFCURVE",
"66 31 OFFCURVE",
"66 17 CURVE SMOOTH",
"66 7 OFFCURVE",
"71 0 OFFCURVE",
"79 0 CURVE SMOOTH"
);
}
);
width = 334;
}
);
note = I;
unicode = 0049;
},
{
glyphname = IJ;
lastChange = "2015-07-16 07:54:36 +0000";
layers = (
{
layerId = "0E118B91-E289-4192-A9B8-5E503DF06BFB";
name = Light;
paths = (
{
closed = 1;
nodes = (
"380 -11 OFFCURVE",
"391 -9 OFFCURVE",
"407 -2 CURVE SMOOTH",
"492 38 OFFCURVE",
"536 109 OFFCURVE",
"536 216 CURVE SMOOTH",
"536 655 LINE",
"588 664 LINE SMOOTH",
"603 667 OFFCURVE",
"611 674 OFFCURVE",
"611 684 CURVE SMOOTH",
"611 690 OFFCURVE",
"609 695 OFFCURVE",
"601 695 CURVE SMOOTH",
"432 695 LINE SMOOTH",
"414 695 OFFCURVE",
"404 687 OFFCURVE",
"404 673 CURVE SMOOTH",
"404 663 OFFCURVE",
"409 656 OFFCURVE",
"417 656 CURVE SMOOTH",
"476 656 LINE",
"476 220 LINE SMOOTH",
"476 117 OFFCURVE",
"442 66 OFFCURVE",
"339 32 CURVE",
"340 1 OFFCURVE",
"354 -11 OFFCURVE",
"371 -11 CURVE SMOOTH"
);
},
{
closed = 1;
nodes = (
"259 0 LINE SMOOTH",
"267 0 OFFCURVE",
"268 5 OFFCURVE",
"268 11 CURVE SMOOTH",
"268 21 OFFCURVE",
"261 28 OFFCURVE",
"246 31 CURVE SMOOTH",
"192 40 LINE",
"192 655 LINE",
"246 664 LINE SMOOTH",
"261 667 OFFCURVE",
"268 674 OFFCURVE",
"268 684 CURVE SMOOTH",
"268 690 OFFCURVE",
"267 695 OFFCURVE",
"259 695 CURVE SMOOTH",
"94 695 LINE SMOOTH",
"76 695 OFFCURVE",
"66 687 OFFCURVE",
"66 673 CURVE SMOOTH",
"66 663 OFFCURVE",
"71 656 OFFCURVE",
"79 656 CURVE SMOOTH",
"132 656 LINE",
"132 39 LINE",
"95 39 LINE SMOOTH",
"77 39 OFFCURVE",
"66 31 OFFCURVE",
"66 17 CURVE SMOOTH",
"66 7 OFFCURVE",
"71 0 OFFCURVE",
"79 0 CURVE SMOOTH"
);
}
);
width = 659;
}
);
note = IJ;
unicode = 0132;
},
{
glyphname = Iacute;
lastChange = "2015-07-16 07:54:36 +0000";
layers = (
{
layerId = "0E118B91-E289-4192-A9B8-5E503DF06BFB";
name = Light;
paths = (
{
closed = 1;
nodes = (
"259 0 LINE SMOOTH",
"267 0 OFFCURVE",
"268 5 OFFCURVE",
"268 11 CURVE SMOOTH",
"268 21 OFFCURVE",
"264 28 OFFCURVE",
"246 31 CURVE SMOOTH",
"192 40 LINE",
"192 655 LINE",
"246 664 LINE SMOOTH",
"262 667 OFFCURVE",
"268 674 OFFCURVE",
"268 684 CURVE SMOOTH",
"268 690 OFFCURVE",
"267 695 OFFCURVE",
"259 695 CURVE SMOOTH",
"94 695 LINE SMOOTH",
"76 695 OFFCURVE",
"66 687 OFFCURVE",
"66 673 CURVE SMOOTH",
"66 663 OFFCURVE",
"71 656 OFFCURVE",
"79 656 CURVE SMOOTH",
"132 656 LINE",
"132 39 LINE",
"95 39 LINE SMOOTH",
"77 39 OFFCURVE",
"66 31 OFFCURVE",
"66 17 CURVE SMOOTH",
"66 7 OFFCURVE",
"71 0 OFFCURVE",
"79 0 CURVE SMOOTH"
);
},
{
closed = 1;
nodes = (
"240 877 LINE",
"193 907 LINE",
"112 773 LINE",
"147 751 LINE"
);
}
);
width = 334;
}
);
note = Iacute;
unicode = 00CD;
},
{
glyphname = Ibreve;
lastChange = "2015-07-16 07:54:35 +0000";
layers = (
{
layerId = "0E118B91-E289-4192-A9B8-5E503DF06BFB";
name = Light;
paths = (
{
closed = 1;
nodes = (
"260 0 LINE SMOOTH",
"268 0 OFFCURVE",
"269 5 OFFCURVE",
"269 11 CURVE SMOOTH",
"269 21 OFFCURVE",
"265 28 OFFCURVE",
"247 31 CURVE SMOOTH",
"193 40 LINE",
"193 655 LINE",
"247 664 LINE SMOOTH",
"263 667 OFFCURVE",
"269 674 OFFCURVE",
"269 684 CURVE SMOOTH",
"269 690 OFFCURVE",
"268 695 OFFCURVE",
"260 695 CURVE SMOOTH",
"95 695 LINE SMOOTH",
"77 695 OFFCURVE",
"67 687 OFFCURVE",
"67 673 CURVE SMOOTH",
"67 663 OFFCURVE",
"72 656 OFFCURVE",
"80 656 CURVE SMOOTH",
"133 656 LINE",
"133 39 LINE",
"96 39 LINE SMOOTH",
"78 39 OFFCURVE",
"67 31 OFFCURVE",
"67 17 CURVE SMOOTH",
"67 7 OFFCURVE",
"72 0 OFFCURVE",
"80 0 CURVE SMOOTH"
);
},
{
closed = 1;
nodes = (
"222 747 OFFCURVE",
"278 778 OFFCURVE",
"301 860 CURVE",
"263 874 LINE",
"249 826 OFFCURVE",
"216 790 OFFCURVE",
"163 790 CURVE SMOOTH",
"110 790 OFFCURVE",
"76 826 OFFCURVE",
"63 874 CURVE",
"25 860 LINE",
"48 778 OFFCURVE",
"103 747 OFFCURVE",
"163 747 CURVE SMOOTH"
);
}
);
width = 325;
}
);
note = Ibreve;
unicode = 012C;
},
{
glyphname = Icaron;
lastChange = "2015-07-16 07:54:35 +0000";
layers = (
{
components = (
{
name = I;
}
);
layerId = "0E118B91-E289-4192-A9B8-5E503DF06BFB";
name = Light;
paths = (
{
closed = 1;
nodes = (
"179 750 LINE",
"280 878 LINE",
"250 901 LINE",
"161 806 LINE",
"72 901 LINE",
"42 878 LINE",
"144 750 LINE"
);
}
);
width = 323;
}
);
note = Icaron;
unicode = 01CF;
},
{
glyphname = Icircumflex;
lastChange = "2015-07-16 07:54:35 +0000";
layers = (
{
layerId = "0E118B91-E289-4192-A9B8-5E503DF06BFB";
name = Light;
paths = (
{
closed = 1;
nodes = (
"256 0 LINE SMOOTH",
"264 0 OFFCURVE",
"265 5 OFFCURVE",
"265 11 CURVE SMOOTH",
"265 21 OFFCURVE",
"261 28 OFFCURVE",
"243 31 CURVE SMOOTH",
"189 40 LINE",
"189 655 LINE",
"243 664 LINE SMOOTH",
"259 667 OFFCURVE",
"265 674 OFFCURVE",
"265 684 CURVE SMOOTH",
"265 690 OFFCURVE",
"264 695 OFFCURVE",
"256 695 CURVE SMOOTH",
"91 695 LINE SMOOTH",
"73 695 OFFCURVE",
"63 687 OFFCURVE",
"63 673 CURVE SMOOTH",
"63 663 OFFCURVE",
"68 656 OFFCURVE",
"76 656 CURVE SMOOTH",
"129 656 LINE",
"129 39 LINE",
"92 39 LINE SMOOTH",
"74 39 OFFCURVE",
"63 31 OFFCURVE",
"63 17 CURVE SMOOTH",
"63 7 OFFCURVE",
"68 0 OFFCURVE",
"76 0 CURVE SMOOTH"
);
},
{
closed = 1;
nodes = (
"161 846 LINE",
"250 750 LINE",
"280 773 LINE",
"179 901 LINE",
"144 901 LINE",
"42 773 LINE",
"72 750 LINE"
);
}
);
width = 323;
}
);
note = Icircumflex;
unicode = 00CE;
},
{
glyphname = Idieresis;
lastChange = "2015-07-16 07:54:35 +0000";
layers = (
{
layerId = "0E118B91-E289-4192-A9B8-5E503DF06BFB";
name = Light;
paths = (
{
closed = 1;
nodes = (
"258 0 LINE SMOOTH",
"266 0 OFFCURVE",
"267 5 OFFCURVE",
"267 11 CURVE SMOOTH",
"267 21 OFFCURVE",
"263 28 OFFCURVE",
"245 31 CURVE SMOOTH",
"191 40 LINE",
"191 655 LINE",
"245 664 LINE SMOOTH",
"261 667 OFFCURVE",
"267 674 OFFCURVE",
"267 684 CURVE SMOOTH",
"267 690 OFFCURVE",
"266 695 OFFCURVE",
"258 695 CURVE SMOOTH",
"93 695 LINE SMOOTH",
"75 695 OFFCURVE",
"65 687 OFFCURVE",
"65 673 CURVE SMOOTH",
"65 663 OFFCURVE",
"70 656 OFFCURVE",
"78 656 CURVE SMOOTH",
"131 656 LINE",
"131 39 LINE",
"94 39 LINE SMOOTH",
"76 39 OFFCURVE",
"65 31 OFFCURVE",
"65 17 CURVE SMOOTH",
"65 7 OFFCURVE",
"70 0 OFFCURVE",
"78 0 CURVE SMOOTH"
);
},
{
closed = 1;
nodes = (
"92 761 OFFCURVE",
"111 779 OFFCURVE",
"111 803 CURVE SMOOTH",
"111 828 OFFCURVE",
"92 846 OFFCURVE",
"69 846 CURVE SMOOTH",
"47 846 OFFCURVE",
"27 828 OFFCURVE",
"27 803 CURVE SMOOTH",
"27 779 OFFCURVE",
"47 761 OFFCURVE",
"69 761 CURVE SMOOTH"
);
},
{
closed = 1;
nodes = (
"278 761 OFFCURVE",
"297 779 OFFCURVE",
"297 803 CURVE SMOOTH",
"297 828 OFFCURVE",
"278 846 OFFCURVE",
"255 846 CURVE SMOOTH",
"233 846 OFFCURVE",
"213 828 OFFCURVE",
"213 803 CURVE SMOOTH",
"213 779 OFFCURVE",
"233 761 OFFCURVE",
"255 761 CURVE SMOOTH"
);
}
);
width = 324;
}
);
note = Idieresis;
unicode = 00CF;
},
{
glyphname = Idotaccent;
lastChange = "2015-07-16 07:54:36 +0000";
layers = (
{
layerId = "0E118B91-E289-4192-A9B8-5E503DF06BFB";
name = Light;
paths = (
{
closed = 1;
nodes = (
"261 0 LINE SMOOTH",
"269 0 OFFCURVE",
"270 5 OFFCURVE",
"270 11 CURVE SMOOTH",
"270 21 OFFCURVE",
"266 28 OFFCURVE",
"248 31 CURVE SMOOTH",
"194 40 LINE",
"194 655 LINE",
"248 664 LINE SMOOTH",
"264 667 OFFCURVE",
"270 674 OFFCURVE",
"270 684 CURVE SMOOTH",
"270 690 OFFCURVE",
"269 695 OFFCURVE",
"261 695 CURVE SMOOTH",
"96 695 LINE SMOOTH",
"78 695 OFFCURVE",
"68 687 OFFCURVE",
"68 673 CURVE SMOOTH",
"68 663 OFFCURVE",
"73 656 OFFCURVE",
"81 656 CURVE SMOOTH",
"134 656 LINE",
"134 39 LINE",
"97 39 LINE SMOOTH",
"79 39 OFFCURVE",
"68 31 OFFCURVE",
"68 17 CURVE SMOOTH",
"68 7 OFFCURVE",
"73 0 OFFCURVE",
"81 0 CURVE SMOOTH"
);
},
{
closed = 1;
nodes = (
"190 767 OFFCURVE",
"209 785 OFFCURVE",
"209 810 CURVE SMOOTH",
"209 834 OFFCURVE",
"190 853 OFFCURVE",
"166 853 CURVE SMOOTH",
"142 853 OFFCURVE",
"123 834 OFFCURVE",
"123 810 CURVE SMOOTH",
"123 785 OFFCURVE",
"142 767 OFFCURVE",
"166 767 CURVE SMOOTH"
);
}
);
width = 338;
}
);
note = Idotaccent;
unicode = 0130;
},
{
glyphname = Idotbelow;
lastChange = "2015-07-16 07:54:35 +0000";
layers = (
{
components = (
{
name = I;
}
);
layerId = "0E118B91-E289-4192-A9B8-5E503DF06BFB";
name = Light;
paths = (
{
closed = 1;
nodes = (
"189 -151 OFFCURVE",
"208 -133 OFFCURVE",
"208 -108 CURVE SMOOTH",
"208 -84 OFFCURVE",
"189 -65 OFFCURVE",
"165 -65 CURVE SMOOTH",
"141 -65 OFFCURVE",
"122 -84 OFFCURVE",
"122 -108 CURVE SMOOTH",
"122 -133 OFFCURVE",
"141 -151 OFFCURVE",
"165 -151 CURVE SMOOTH"
);
}
);
width = 334;
}
);
note = Idotbelow;
unicode = 1ECA;
},
{
glyphname = Igrave;
lastChange = "2015-07-16 07:54:35 +0000";
layers = (
{
layerId = "0E118B91-E289-4192-A9B8-5E503DF06BFB";
name = Light;
paths = (
{
closed = 1;
nodes = (
"259 0 LINE SMOOTH",
"267 0 OFFCURVE",
"268 5 OFFCURVE",
"268 11 CURVE SMOOTH",
"268 21 OFFCURVE",
"264 28 OFFCURVE",
"246 31 CURVE SMOOTH",
"192 40 LINE",
"192 655 LINE",
"246 664 LINE SMOOTH",
"262 667 OFFCURVE",
"268 674 OFFCURVE",
"268 684 CURVE SMOOTH",
"268 690 OFFCURVE",
"267 695 OFFCURVE",
"259 695 CURVE SMOOTH",
"94 695 LINE SMOOTH",
"76 695 OFFCURVE",
"66 687 OFFCURVE",
"66 673 CURVE SMOOTH",
"66 663 OFFCURVE",
"71 656 OFFCURVE",
"79 656 CURVE SMOOTH",
"132 656 LINE",
"132 39 LINE",
"95 39 LINE SMOOTH",
"77 39 OFFCURVE",
"66 31 OFFCURVE",
"66 17 CURVE SMOOTH",
"66 7 OFFCURVE",
"71 0 OFFCURVE",
"79 0 CURVE SMOOTH"
);
},
{
closed = 1;
nodes = (
"219 773 LINE",
"138 907 LINE",
"91 877 LINE",
"184 751 LINE"
);
}
);
width = 334;
}
);
note = Igrave;
unicode = 00CC;
},
{
glyphname = Ihookabove;
lastChange = "2015-07-16 07:54:35 +0000";
layers = (
{
components = (
{
name = I;
transform = "{1, 0, 0, 1, 2, 0}";
}
);
layerId = "0E118B91-E289-4192-A9B8-5E503DF06BFB";
name = Light;
paths = (
{
closed = 1;
nodes = (
"184 750 LINE",
"190 794 LINE",
"220 805 OFFCURVE",
"239 827 OFFCURVE",
"239 855 CURVE SMOOTH",
"239 893 OFFCURVE",
"207 916 OFFCURVE",
"167 916 CURVE SMOOTH",
"148 916 OFFCURVE",
"125 910 OFFCURVE",
"111 904 CURVE",
"117 876 LINE",
"130 879 OFFCURVE",
"146 883 OFFCURVE",
"160 883 CURVE SMOOTH",
"180 883 OFFCURVE",
"195 874 OFFCURVE",
"195 854 CURVE SMOOTH",
"195 833 OFFCURVE",
"178 818 OFFCURVE",
"147 808 CURVE",
"151 750 LINE"
);
}
);
width = 361;
}
);
note = Ihookabove;
unicode = 1EC8;
},
{
glyphname = Imacron;
lastChange = "2015-07-16 07:54:35 +0000";
layers = (
{
layerId = "0E118B91-E289-4192-A9B8-5E503DF06BFB";
name = Light;
paths = (
{
closed = 1;
nodes = (
"250 0 LINE SMOOTH",
"258 0 OFFCURVE",
"259 5 OFFCURVE",
"259 11 CURVE SMOOTH",
"259 21 OFFCURVE",
"255 28 OFFCURVE",
"237 31 CURVE SMOOTH",
"183 40 LINE",
"183 655 LINE",
"237 664 LINE SMOOTH",
"253 667 OFFCURVE",
"259 674 OFFCURVE",
"259 684 CURVE SMOOTH",
"259 690 OFFCURVE",
"258 695 OFFCURVE",
"250 695 CURVE SMOOTH",
"85 695 LINE SMOOTH",
"67 695 OFFCURVE",
"57 687 OFFCURVE",
"57 673 CURVE SMOOTH",
"57 663 OFFCURVE",
"62 656 OFFCURVE",
"70 656 CURVE SMOOTH",
"123 656 LINE",
"123 39 LINE",
"86 39 LINE SMOOTH",
"68 39 OFFCURVE",
"57 31 OFFCURVE",
"57 17 CURVE SMOOTH",
"57 7 OFFCURVE",
"62 0 OFFCURVE",
"70 0 CURVE SMOOTH"
);
},
{
closed = 1;
nodes = (
"295 776 LINE",
"295 818 LINE",
"18 818 LINE",
"18 776 LINE"
);
}
);
width = 314;
}
);
note = Imacron;
unicode = 012A;
},
{
glyphname = Iogonek;
lastChange = "2015-07-16 07:54:35 +0000";
layers = (
{
layerId = "0E118B91-E289-4192-A9B8-5E503DF06BFB";
name = Light;
paths = (
{
closed = 1;
nodes = (
"198 -204 OFFCURVE",
"218 -200 OFFCURVE",
"234 -193 CURVE",
"228 -166 LINE",
"216 -169 OFFCURVE",
"204 -172 OFFCURVE",
"190 -172 CURVE SMOOTH",
"152 -172 OFFCURVE",
"121 -153 OFFCURVE",
"121 -109 CURVE SMOOTH",
"121 -60 OFFCURVE",
"160 -19 OFFCURVE",
"199 0 CURVE",
"261 0 LINE SMOOTH",
"269 0 OFFCURVE",
"270 5 OFFCURVE",
"270 11 CURVE SMOOTH",
"270 21 OFFCURVE",
"264 28 OFFCURVE",
"248 31 CURVE SMOOTH",
"194 40 LINE",
"194 655 LINE",
"248 664 LINE SMOOTH",
"264 667 OFFCURVE",
"270 674 OFFCURVE",
"270 684 CURVE SMOOTH",
"270 690 OFFCURVE",
"269 695 OFFCURVE",
"261 695 CURVE SMOOTH",
"96 695 LINE SMOOTH",
"78 695 OFFCURVE",
"68 687 OFFCURVE",
"68 673 CURVE SMOOTH",
"68 663 OFFCURVE",
"73 656 OFFCURVE",
"81 656 CURVE SMOOTH",
"134 656 LINE",
"134 39 LINE",
"97 39 LINE SMOOTH",
"79 39 OFFCURVE",
"68 31 OFFCURVE",
"68 17 CURVE SMOOTH",
"68 7 OFFCURVE",
"73 0 OFFCURVE",
"81 0 CURVE SMOOTH",
"152 0 LINE",
"110 -21 OFFCURVE",
"77 -62 OFFCURVE",
"77 -110 CURVE SMOOTH",
"77 -172 OFFCURVE",
"123 -204 OFFCURVE",
"180 -204 CURVE SMOOTH"
);
}
);
width = 337;
}
);
note = Iogonek;
unicode = 012E;
},
{
glyphname = Itilde;
lastChange = "2015-07-16 07:54:36 +0000";
layers = (
{
layerId = "0E118B91-E289-4192-A9B8-5E503DF06BFB";
name = Light;
paths = (
{
closed = 1;
nodes = (
"265 0 LINE SMOOTH",
"273 0 OFFCURVE",
"274 5 OFFCURVE",
"274 11 CURVE SMOOTH",
"274 21 OFFCURVE",
"270 28 OFFCURVE",
"252 31 CURVE SMOOTH",
"198 40 LINE",
"198 655 LINE",
"252 664 LINE SMOOTH",
"268 667 OFFCURVE",
"274 674 OFFCURVE",
"274 684 CURVE SMOOTH",
"274 690 OFFCURVE",
"273 695 OFFCURVE",
"265 695 CURVE SMOOTH",
"100 695 LINE SMOOTH",
"82 695 OFFCURVE",
"72 687 OFFCURVE",
"72 673 CURVE SMOOTH",
"72 663 OFFCURVE",
"77 656 OFFCURVE",
"85 656 CURVE SMOOTH",
"138 656 LINE",
"138 39 LINE",
"101 39 LINE SMOOTH",
"83 39 OFFCURVE",
"72 31 OFFCURVE",
"72 17 CURVE SMOOTH",
"72 7 OFFCURVE",
"77 0 OFFCURVE",
"85 0 CURVE SMOOTH"
);
},
{
closed = 1;
nodes = (
"254 761 OFFCURVE",
"287 780 OFFCURVE",
"312 804 CURVE",
"290 833 LINE",
"268 817 OFFCURVE",
"247 806 OFFCURVE",
"223 806 CURVE SMOOTH",
"191 806 OFFCURVE",
"152 839 OFFCURVE",
"114 839 CURVE SMOOTH",
"84 839 OFFCURVE",
"49 819 OFFCURVE",
"24 796 CURVE",
"46 767 LINE",
"68 783 OFFCURVE",
"88 794 OFFCURVE",
"114 794 CURVE SMOOTH",
"153 794 OFFCURVE",
"183 761 OFFCURVE",
"224 761 CURVE SMOOTH"
);
}
);
width = 336;
}
);
note = Itilde;
unicode = 0128;
},
{
glyphname = J;
lastChange = "2015-07-16 07:54:36 +0000";
layers = (
{
layerId = "0E118B91-E289-4192-A9B8-5E503DF06BFB";
name = Light;
paths = (
{
closed = 1;
nodes = (
"82 -11 OFFCURVE",
"94 -8 OFFCURVE",
"109 -2 CURVE SMOOTH",
"197 37 OFFCURVE",
"238 104 OFFCURVE",
"238 216 CURVE SMOOTH",
"238 655 LINE",
"291 664 LINE SMOOTH",
"306 667 OFFCURVE",
"314 674 OFFCURVE",
"314 684 CURVE SMOOTH",
"314 690 OFFCURVE",
"312 695 OFFCURVE",
"304 695 CURVE SMOOTH",
"135 695 LINE SMOOTH",
"117 695 OFFCURVE",
"107 687 OFFCURVE",
"107 673 CURVE SMOOTH",
"107 663 OFFCURVE",
"112 656 OFFCURVE",
"120 656 CURVE SMOOTH",
"178 656 LINE",
"178 220 LINE SMOOTH",
"178 117 OFFCURVE",
"144 66 OFFCURVE",
"41 32 CURVE",
"42 1 OFFCURVE",
"56 -11 OFFCURVE",
"73 -11 CURVE SMOOTH"
);
}
);
width = 361;
}
);
note = J;
unicode = 004A;
},
{
glyphname = Jcircumflex;
lastChange = "2015-07-16 07:54:36 +0000";
layers = (
{
layerId = "0E118B91-E289-4192-A9B8-5E503DF06BFB";
name = Light;
paths = (
{
closed = 1;
nodes = (
"82 -11 OFFCURVE",
"89 -10 OFFCURVE",
"109 -2 CURVE SMOOTH",
"196 35 OFFCURVE",
"238 104 OFFCURVE",
"238 216 CURVE SMOOTH",
"238 655 LINE",
"291 664 LINE SMOOTH",
"307 667 OFFCURVE",
"314 674 OFFCURVE",
"314 684 CURVE SMOOTH",
"314 690 OFFCURVE",
"312 695 OFFCURVE",
"304 695 CURVE SMOOTH",
"135 695 LINE SMOOTH",
"117 695 OFFCURVE",
"107 687 OFFCURVE",
"107 673 CURVE SMOOTH",
"107 663 OFFCURVE",
"112 656 OFFCURVE",
"120 656 CURVE SMOOTH",
"178 656 LINE",
"178 220 LINE SMOOTH",
"178 117 OFFCURVE",
"144 66 OFFCURVE",
"41 32 CURVE",
"42 1 OFFCURVE",
"56 -11 OFFCURVE",
"73 -11 CURVE SMOOTH"
);
},
{
closed = 1;
nodes = (
"206 846 LINE",
"295 750 LINE",
"325 773 LINE",
"224 901 LINE",
"189 901 LINE",
"87 773 LINE",
"117 750 LINE"
);
}
);
width = 372;
}
);
note = Jcircumflex;
unicode = 0134;
},
{
glyphname = K;
lastChange = "2015-07-16 07:54:36 +0000";
layers = (
{
layerId = "0E118B91-E289-4192-A9B8-5E503DF06BFB";
name = Light;
paths = (
{
closed = 1;
nodes = (
"638 0 LINE SMOOTH",
"646 0 OFFCURVE",
"648 6 OFFCURVE",
"648 11 CURVE SMOOTH",
"648 22 OFFCURVE",
"640 29 OFFCURVE",
"625 31 CURVE SMOOTH",
"574 39 LINE",
"256 369 LINE",
"566 657 LINE",
"607 662 LINE SMOOTH",
"623 664 OFFCURVE",
"630 672 OFFCURVE",
"630 683 CURVE SMOOTH",
"630 689 OFFCURVE",
"627 695 OFFCURVE",
"619 695 CURVE SMOOTH",
"451 695 LINE SMOOTH",
"433 695 OFFCURVE",
"423 687 OFFCURVE",
"423 673 CURVE SMOOTH",
"423 663 OFFCURVE",
"429 656 OFFCURVE",
"437 656 CURVE SMOOTH",
"503 656 LINE",
"187 362 LINE",
"528 0 LINE"
);
},
{
closed = 1;
nodes = (
"254 0 LINE SMOOTH",
"261 0 OFFCURVE",
"263 5 OFFCURVE",
"263 11 CURVE SMOOTH",
"263 21 OFFCURVE",
"258 28 OFFCURVE",
"241 31 CURVE SMOOTH",
"187 40 LINE",
"187 655 LINE",
"241 664 LINE SMOOTH",
"256 667 OFFCURVE",
"263 674 OFFCURVE",
"263 684 CURVE SMOOTH",
"263 690 OFFCURVE",
"260 695 OFFCURVE",
"253 695 CURVE SMOOTH",
"89 695 LINE SMOOTH",
"71 695 OFFCURVE",
"61 687 OFFCURVE",
"61 673 CURVE SMOOTH",
"61 663 OFFCURVE",
"66 656 OFFCURVE",
"74 656 CURVE SMOOTH",
"127 656 LINE",
"127 39 LINE",
"90 39 LINE SMOOTH",
"72 39 OFFCURVE",
"61 31 OFFCURVE",
"61 17 CURVE SMOOTH",
"61 7 OFFCURVE",
"66 0 OFFCURVE",
"74 0 CURVE SMOOTH"
);
}
);
width = 662;
}
);
note = K;
unicode = 004B;
},
{
glyphname = Kcommaaccent;
lastChange = "2015-07-16 07:54:36 +0000";
layers = (
{
layerId = "0E118B91-E289-4192-A9B8-5E503DF06BFB";
name = Light;
paths = (
{
closed = 1;
nodes = (
"638 0 LINE SMOOTH",
"646 0 OFFCURVE",
"648 6 OFFCURVE",
"648 11 CURVE SMOOTH",
"648 22 OFFCURVE",
"640 29 OFFCURVE",
"625 31 CURVE SMOOTH",
"574 39 LINE",
"256 369 LINE",
"566 657 LINE",
"607 662 LINE SMOOTH",
"623 664 OFFCURVE",
"630 672 OFFCURVE",
"630 683 CURVE SMOOTH",
"630 689 OFFCURVE",
"627 695 OFFCURVE",
"619 695 CURVE SMOOTH",
"451 695 LINE SMOOTH",
"433 695 OFFCURVE",
"423 687 OFFCURVE",
"423 673 CURVE SMOOTH",
"423 663 OFFCURVE",
"429 656 OFFCURVE",
"437 656 CURVE SMOOTH",
"503 656 LINE",
"187 362 LINE",
"528 0 LINE"
);
},
{
closed = 1;
nodes = (
"355 -174 OFFCURVE",
"381 -115 OFFCURVE",
"395 -58 CURVE",
"331 -43 LINE SMOOTH",
"313 -39 OFFCURVE",
"300 -46 OFFCURVE",
"300 -62 CURVE SMOOTH",
"300 -68 OFFCURVE",
"304 -72 OFFCURVE",
"309 -74 CURVE",
"339 -84 LINE",
"335 -116 OFFCURVE",
"314 -166 OFFCURVE",
"290 -202 CURVE",
"318 -219 LINE"
);
},
{
closed = 1;
nodes = (
"254 0 LINE SMOOTH",
"261 0 OFFCURVE",
"263 5 OFFCURVE",
"263 11 CURVE SMOOTH",
"263 21 OFFCURVE",
"256 28 OFFCURVE",
"241 31 CURVE SMOOTH",
"187 40 LINE",
"187 655 LINE",
"241 664 LINE SMOOTH",
"256 667 OFFCURVE",
"263 674 OFFCURVE",
"263 684 CURVE SMOOTH",
"263 690 OFFCURVE",
"260 695 OFFCURVE",
"253 695 CURVE SMOOTH",
"89 695 LINE SMOOTH",
"71 695 OFFCURVE",
"61 687 OFFCURVE",
"61 673 CURVE SMOOTH",
"61 663 OFFCURVE",
"66 656 OFFCURVE",
"74 656 CURVE SMOOTH",
"127 656 LINE",
"127 39 LINE",
"90 39 LINE SMOOTH",
"72 39 OFFCURVE",
"61 31 OFFCURVE",
"61 17 CURVE SMOOTH",
"61 7 OFFCURVE",
"66 0 OFFCURVE",
"74 0 CURVE SMOOTH"
);
}
);
width = 662;
}
);
note = Kcommaaccent;
unicode = 0136;
},
{
glyphname = L;
lastChange = "2015-07-16 07:54:36 +0000";
layers = (
{
layerId = "0E118B91-E289-4192-A9B8-5E503DF06BFB";
name = Light;
paths = (
{
closed = 1;
nodes = (
"563 0 LINE",
"563 126 LINE SMOOTH",
"563 133 OFFCURVE",
"560 138 OFFCURVE",
"551 138 CURVE SMOOTH",
"540 138 OFFCURVE",
"533 128 OFFCURVE",
"529 105 CURVE SMOOTH",
"518 43 LINE",
"189 43 LINE",
"189 655 LINE",
"245 664 LINE SMOOTH",
"260 666 OFFCURVE",
"268 674 OFFCURVE",
"268 684 CURVE SMOOTH",
"268 690 OFFCURVE",
"266 695 OFFCURVE",
"258 695 CURVE SMOOTH",
"91 695 LINE SMOOTH",
"73 695 OFFCURVE",
"63 687 OFFCURVE",
"63 673 CURVE SMOOTH",
"63 663 OFFCURVE",
"68 656 OFFCURVE",
"76 656 CURVE SMOOTH",
"129 656 LINE",
"129 43 LINE",
"91 37 LINE SMOOTH",
"71 34 OFFCURVE",
"61 27 OFFCURVE",
"61 13 CURVE SMOOTH",
"61 5 OFFCURVE",
"66 0 OFFCURVE",
"72 0 CURVE SMOOTH"
);
}
);
width = 585;
}
);
note = L;
unicode = 004C;
},
{
glyphname = Lacute;
lastChange = "2015-07-16 07:54:35 +0000";
layers = (
{
layerId = "0E118B91-E289-4192-A9B8-5E503DF06BFB";
name = Light;
paths = (
{
closed = 1;
nodes = (
"563 0 LINE",
"563 126 LINE SMOOTH",
"563 133 OFFCURVE",
"560 138 OFFCURVE",
"551 138 CURVE SMOOTH",
"540 138 OFFCURVE",
"534 132 OFFCURVE",
"529 105 CURVE SMOOTH",
"518 43 LINE",
"189 43 LINE",
"189 655 LINE",
"245 664 LINE SMOOTH",
"262 667 OFFCURVE",
"268 674 OFFCURVE",
"268 684 CURVE SMOOTH",
"268 690 OFFCURVE",
"266 695 OFFCURVE",
"258 695 CURVE SMOOTH",
"91 695 LINE SMOOTH",
"73 695 OFFCURVE",
"63 687 OFFCURVE",
"63 673 CURVE SMOOTH",
"63 663 OFFCURVE",
"68 656 OFFCURVE",
"76 656 CURVE SMOOTH",
"129 656 LINE",
"129 43 LINE",
"91 37 LINE SMOOTH",
"71 34 OFFCURVE",
"61 27 OFFCURVE",
"61 13 CURVE SMOOTH",
"61 5 OFFCURVE",
"66 0 OFFCURVE",
"72 0 CURVE SMOOTH"
);
},
{
closed = 1;
nodes = (
"230 876 LINE",
"183 906 LINE",
"102 772 LINE",
"137 750 LINE"
);
}
);
width = 585;
}
);
note = Lacute;
unicode = 0139;
},
{
glyphname = Lcaron;
lastChange = "2015-07-16 07:54:35 +0000";
layers = (
{
layerId = "0E118B91-E289-4192-A9B8-5E503DF06BFB";
name = Light;
paths = (
{
closed = 1;
nodes = (
"563 0 LINE",
"563 126 LINE SMOOTH",
"563 133 OFFCURVE",
"560 138 OFFCURVE",
"551 138 CURVE SMOOTH",
"540 138 OFFCURVE",
"534 132 OFFCURVE",
"529 105 CURVE SMOOTH",
"518 43 LINE",
"189 43 LINE",
"189 655 LINE",
"245 664 LINE SMOOTH",
"262 667 OFFCURVE",
"268 674 OFFCURVE",
"268 684 CURVE SMOOTH",
"268 690 OFFCURVE",
"266 695 OFFCURVE",
"258 695 CURVE SMOOTH",
"91 695 LINE SMOOTH",
"73 695 OFFCURVE",
"63 687 OFFCURVE",
"63 673 CURVE SMOOTH",
"63 663 OFFCURVE",
"68 656 OFFCURVE",
"76 656 CURVE SMOOTH",
"129 656 LINE",
"129 43 LINE",
"91 37 LINE SMOOTH",
"71 34 OFFCURVE",
"61 27 OFFCURVE",
"61 13 CURVE SMOOTH",
"61 5 OFFCURVE",
"66 0 OFFCURVE",
"72 0 CURVE SMOOTH"
);
},
{
closed = 1;
nodes = (
"415 571 OFFCURVE",
"441 629 OFFCURVE",
"455 686 CURVE",
"391 702 LINE SMOOTH",
"373 706 OFFCURVE",
"360 699 OFFCURVE",
"360 682 CURVE SMOOTH",
"360 676 OFFCURVE",
"364 672 OFFCURVE",
"369 670 CURVE",
"399 660 LINE",
"395 628 OFFCURVE",
"374 579 OFFCURVE",
"350 543 CURVE",
"378 525 LINE"
);
}
);
width = 585;
}
);
note = Lcaron;
unicode = 013D;
},
{
glyphname = Lcommaaccent;
lastChange = "2015-07-16 07:54:36 +0000";
layers = (
{
layerId = "0E118B91-E289-4192-A9B8-5E503DF06BFB";
name = Light;
paths = (
{
closed = 1;
nodes = (
"563 0 LINE",
"563 126 LINE SMOOTH",
"563 133 OFFCURVE",
"560 138 OFFCURVE",
"551 138 CURVE SMOOTH",
"540 138 OFFCURVE",
"534 132 OFFCURVE",
"529 105 CURVE SMOOTH",
"518 43 LINE",
"189 43 LINE",
"189 655 LINE",
"245 664 LINE SMOOTH",
"262 667 OFFCURVE",
"268 674 OFFCURVE",
"268 684 CURVE SMOOTH",
"268 690 OFFCURVE",
"266 695 OFFCURVE",
"258 695 CURVE SMOOTH",
"91 695 LINE SMOOTH",
"73 695 OFFCURVE",
"63 687 OFFCURVE",
"63 673 CURVE SMOOTH",
"63 663 OFFCURVE",
"68 656 OFFCURVE",
"76 656 CURVE SMOOTH",
"129 656 LINE",
"129 43 LINE",
"91 37 LINE SMOOTH",
"71 34 OFFCURVE",
"61 27 OFFCURVE",
"61 13 CURVE SMOOTH",
"61 5 OFFCURVE",
"66 0 OFFCURVE",
"72 0 CURVE SMOOTH"
);
},
{
closed = 1;
nodes = (
"346 -174 OFFCURVE",
"372 -115 OFFCURVE",
"386 -58 CURVE",
"322 -43 LINE SMOOTH",
"304 -39 OFFCURVE",
"291 -46 OFFCURVE",
"291 -62 CURVE SMOOTH",
"291 -68 OFFCURVE",
"295 -72 OFFCURVE",
"300 -74 CURVE",
"330 -84 LINE",
"326 -116 OFFCURVE",
"305 -166 OFFCURVE",
"281 -202 CURVE",
"309 -219 LINE"
);
}
);
width = 585;
}
);
note = Lcommaaccent;
unicode = 013B;
},
{
glyphname = Ldot;
lastChange = "2015-07-16 07:54:35 +0000";
layers = (
{
layerId = "0E118B91-E289-4192-A9B8-5E503DF06BFB";
name = Light;
paths = (
{
closed = 1;
nodes = (
"563 0 LINE",
"563 126 LINE SMOOTH",
"563 133 OFFCURVE",
"560 138 OFFCURVE",
"551 138 CURVE SMOOTH",
"540 138 OFFCURVE",
"534 132 OFFCURVE",
"529 105 CURVE SMOOTH",
"518 43 LINE",
"189 43 LINE",
"189 655 LINE",
"245 664 LINE SMOOTH",
"262 667 OFFCURVE",
"268 674 OFFCURVE",
"268 684 CURVE SMOOTH",
"268 690 OFFCURVE",
"266 695 OFFCURVE",
"258 695 CURVE SMOOTH",
"91 695 LINE SMOOTH",
"73 695 OFFCURVE",
"63 687 OFFCURVE",
"63 673 CURVE SMOOTH",
"63 663 OFFCURVE",
"68 656 OFFCURVE",
"76 656 CURVE SMOOTH",
"129 656 LINE",
"129 43 LINE",
"91 37 LINE SMOOTH",
"71 34 OFFCURVE",
"61 27 OFFCURVE",
"61 13 CURVE SMOOTH",
"61 5 OFFCURVE",
"66 0 OFFCURVE",
"72 0 CURVE SMOOTH"
);
},
{
closed = 1;
nodes = (
"453 338 OFFCURVE",
"472 357 OFFCURVE",
"472 381 CURVE SMOOTH",
"472 406 OFFCURVE",
"453 425 OFFCURVE",
"429 425 CURVE SMOOTH",
"405 425 OFFCURVE",
"386 406 OFFCURVE",
"386 381 CURVE SMOOTH",
"386 357 OFFCURVE",
"405 338 OFFCURVE",
"429 338 CURVE SMOOTH"
);
}
);
width = 585;
}
);
note = Ldot;
unicode = 013F;
},
{
glyphname = Ldotbelow;
lastChange = "2015-07-16 07:54:36 +0000";
layers = (
{
components = (
{
name = L;
}
);
layerId = "0E118B91-E289-4192-A9B8-5E503DF06BFB";
name = Light;
paths = (
{
closed = 1;
nodes = (
"357 -151 OFFCURVE",
"376 -133 OFFCURVE",
"376 -108 CURVE SMOOTH",
"376 -84 OFFCURVE",
"357 -65 OFFCURVE",
"333 -65 CURVE SMOOTH",
"309 -65 OFFCURVE",
"290 -84 OFFCURVE",
"290 -108 CURVE SMOOTH",
"290 -133 OFFCURVE",
"309 -151 OFFCURVE",
"333 -151 CURVE SMOOTH"
);
}
);
width = 585;
}
);
note = Ldotbelow;
unicode = 1E36;
},
{
glyphname = Ldotbelowmacron;
lastChange = "2015-07-16 07:54:36 +0000";
layers = (
{
layerId = "0E118B91-E289-4192-A9B8-5E503DF06BFB";
name = Light;
paths = (
{
closed = 1;
nodes = (
"574 0 LINE",
"574 126 LINE SMOOTH",
"574 133 OFFCURVE",
"571 138 OFFCURVE",
"562 138 CURVE SMOOTH",
"551 138 OFFCURVE",
"544 128 OFFCURVE",
"540 105 CURVE SMOOTH",
"529 43 LINE",
"200 43 LINE",
"200 655 LINE",
"256 664 LINE SMOOTH",
"272 667 OFFCURVE",
"279 674 OFFCURVE",
"279 684 CURVE SMOOTH",
"279 690 OFFCURVE",
"277 695 OFFCURVE",
"269 695 CURVE SMOOTH",
"102 695 LINE SMOOTH",
"84 695 OFFCURVE",
"74 687 OFFCURVE",
"74 673 CURVE SMOOTH",
"74 663 OFFCURVE",
"79 656 OFFCURVE",
"87 656 CURVE SMOOTH",
"140 656 LINE",
"140 43 LINE",
"102 37 LINE SMOOTH",
"82 34 OFFCURVE",
"72 27 OFFCURVE",
"72 13 CURVE SMOOTH",
"72 5 OFFCURVE",
"77 0 OFFCURVE",
"83 0 CURVE SMOOTH"
);
},
{
closed = 1;
nodes = (
"368 -151 OFFCURVE",
"387 -133 OFFCURVE",
"387 -108 CURVE SMOOTH",
"387 -84 OFFCURVE",
"368 -65 OFFCURVE",
"344 -65 CURVE SMOOTH",
"320 -65 OFFCURVE",
"301 -84 OFFCURVE",
"301 -108 CURVE SMOOTH",
"301 -133 OFFCURVE",
"320 -151 OFFCURVE",
"344 -151 CURVE SMOOTH"
);
},
{
closed = 1;
nodes = (
"313 776 LINE",
"313 818 LINE",
"36 818 LINE",
"36 776 LINE"
);
}
);
width = 596;
}
);
note = Ldotbelowmacron;
unicode = 1E38;
},
{
glyphname = Llinebelow;
lastChange = "2015-07-16 07:54:35 +0000";
layers = (
{
layerId = "0E118B91-E289-4192-A9B8-5E503DF06BFB";
name = Light;
paths = (
{
closed = 1;
nodes = (
"563 0 LINE",
"563 126 LINE SMOOTH",
"563 133 OFFCURVE",
"560 138 OFFCURVE",
"551 138 CURVE SMOOTH",
"540 138 OFFCURVE",
"533 128 OFFCURVE",
"529 105 CURVE SMOOTH",
"518 43 LINE",
"189 43 LINE",
"189 655 LINE",
"245 664 LINE SMOOTH",
"261 667 OFFCURVE",
"268 674 OFFCURVE",
"268 684 CURVE SMOOTH",
"268 690 OFFCURVE",
"266 695 OFFCURVE",
"258 695 CURVE SMOOTH",
"91 695 LINE SMOOTH",
"73 695 OFFCURVE",
"63 687 OFFCURVE",
"63 673 CURVE SMOOTH",
"63 663 OFFCURVE",
"68 656 OFFCURVE",
"76 656 CURVE SMOOTH",
"129 656 LINE",
"129 43 LINE",
"91 37 LINE SMOOTH",
"71 34 OFFCURVE",
"61 27 OFFCURVE",
"61 13 CURVE SMOOTH",
"61 5 OFFCURVE",
"66 0 OFFCURVE",
"72 0 CURVE SMOOTH"
);
},
{
closed = 1;
nodes = (
"547 -129 LINE",
"547 -88 LINE",
"102 -88 LINE",
"102 -129 LINE"
);
}
);
width = 585;
}
);
note = Llinebelow;
unicode = 1E3A;
},
{
glyphname = Lslash;
lastChange = "2015-07-16 07:54:36 +0000";
layers = (
{
layerId = "0E118B91-E289-4192-A9B8-5E503DF06BFB";
name = Light;
paths = (
{
closed = 1;
nodes = (
"578 0 LINE",
"578 126 LINE SMOOTH",
"578 133 OFFCURVE",
"575 138 OFFCURVE",
"566 138 CURVE SMOOTH",
"555 138 OFFCURVE",
"549 131 OFFCURVE",
"544 105 CURVE SMOOTH",
"533 43 LINE",
"204 43 LINE",
"204 338 LINE",
"386 451 LINE",
"364 487 LINE",
"204 388 LINE",
"204 655 LINE",
"260 664 LINE SMOOTH",
"276 666 OFFCURVE",
"283 674 OFFCURVE",
"283 684 CURVE SMOOTH",
"283 690 OFFCURVE",
"281 695 OFFCURVE",
"273 695 CURVE SMOOTH",
"106 695 LINE SMOOTH",
"88 695 OFFCURVE",
"78 687 OFFCURVE",
"78 673 CURVE SMOOTH",
"78 663 OFFCURVE",
"83 656 OFFCURVE",
"91 656 CURVE SMOOTH",
"144 656 LINE",
"144 352 LINE",
"62 301 LINE",
"84 264 LINE",
"144 301 LINE",
"144 43 LINE",
"106 37 LINE SMOOTH",
"87 34 OFFCURVE",
"76 27 OFFCURVE",
"76 13 CURVE SMOOTH",
"76 5 OFFCURVE",
"81 0 OFFCURVE",
"87 0 CURVE SMOOTH"
);
}
);
width = 600;
}
);
note = Lslash;
unicode = 0141;
},
{
glyphname = M;
lastChange = "2015-07-16 07:54:36 +0000";
layers = (
{
layerId = "0E118B91-E289-4192-A9B8-5E503DF06BFB";
name = Light;
paths = (
{
closed = 1;
nodes = (
"216 0 LINE SMOOTH",
"223 0 OFFCURVE",
"225 5 OFFCURVE",
"225 11 CURVE SMOOTH",
"225 22 OFFCURVE",
"219 28 OFFCURVE",
"202 31 CURVE SMOOTH",
"144 40 LINE",
"255 592 LINE SMOOTH",
"260 617 OFFCURVE",
"263 650 OFFCURVE",
"263 650 CURVE",
"268 650 LINE",
"268 650 OFFCURVE",
"276 617 OFFCURVE",
"283 592 CURVE SMOOTH",
"465 0 LINE",
"538 0 LINE",
"710 592 LINE SMOOTH",
"717 617 OFFCURVE",
"725 650 OFFCURVE",
"725 650 CURVE",
"731 650 LINE",
"731 650 OFFCURVE",
"734 617 OFFCURVE",
"739 592 CURVE SMOOTH",
"857 39 LINE",
"811 39 LINE SMOOTH",
"793 39 OFFCURVE",
"782 31 OFFCURVE",
"782 17 CURVE SMOOTH",
"782 7 OFFCURVE",
"787 0 OFFCURVE",
"795 0 CURVE SMOOTH",
"977 0 LINE SMOOTH",
"985 0 OFFCURVE",
"986 6 OFFCURVE",
"986 12 CURVE SMOOTH",
"986 23 OFFCURVE",
"979 29 OFFCURVE",
"964 32 CURVE SMOOTH",
"917 40 LINE",
"785 652 LINE",
"823 657 LINE SMOOTH",
"842 660 OFFCURVE",
"853 667 OFFCURVE",
"853 681 CURVE SMOOTH",
"853 691 OFFCURVE",
"847 695 OFFCURVE",
"841 695 CURVE SMOOTH",
"691 695 LINE",
"530 139 LINE SMOOTH",
"519 101 OFFCURVE",
"511 48 OFFCURVE",
"511 48 CURVE SMOOTH",
"505 48 LINE SMOOTH",
"505 48 OFFCURVE",
"497 101 OFFCURVE",
"486 139 CURVE SMOOTH",
"315 695 LINE",
"164 695 LINE SMOOTH",
"158 695 OFFCURVE",
"152 691 OFFCURVE",
"152 681 CURVE SMOOTH",
"152 667 OFFCURVE",
"163 659 OFFCURVE",
"182 657 CURVE SMOOTH",
"221 652 LINE",
"97 39 LINE",
"59 39 LINE SMOOTH",
"41 39 OFFCURVE",
"30 31 OFFCURVE",
"30 17 CURVE SMOOTH",
"30 7 OFFCURVE",
"35 0 OFFCURVE",
"43 0 CURVE SMOOTH"
);
}
);
width = 1013;
}
);
note = M;
unicode = 004D;
},
{
glyphname = Mdotbelow;
lastChange = "2015-07-16 07:54:36 +0000";
layers = (
{
components = (
{
name = M;
}
);
layerId = "0E118B91-E289-4192-A9B8-5E503DF06BFB";
name = Light;
paths = (
{
closed = 1;
nodes = (
"526 -151 OFFCURVE",
"545 -133 OFFCURVE",
"545 -108 CURVE SMOOTH",
"545 -84 OFFCURVE",
"526 -65 OFFCURVE",
"502 -65 CURVE SMOOTH",
"478 -65 OFFCURVE",
"459 -84 OFFCURVE",
"459 -108 CURVE SMOOTH",
"459 -133 OFFCURVE",
"478 -151 OFFCURVE",
"502 -151 CURVE SMOOTH"
);
}
);
width = 1013;
}
);
note = Mdotbelow;
unicode = 1E42;
},
{
glyphname = N;
lastChange = "2015-07-16 07:54:36 +0000";
layers = (
{
layerId = "0E118B91-E289-4192-A9B8-5E503DF06BFB";
name = Light;
paths = (
{
closed = 1;
nodes = (
"246 0 LINE SMOOTH",
"254 0 OFFCURVE",
"256 5 OFFCURVE",
"256 11 CURVE SMOOTH",
"256 21 OFFCURVE",
"250 28 OFFCURVE",
"234 31 CURVE SMOOTH",
"178 40 LINE",
"178 613 LINE",
"193 580 OFFCURVE",
"206 557 OFFCURVE",
"223 532 CURVE SMOOTH",
"593 0 LINE",
"648 0 LINE",
"648 655 LINE",
"695 664 LINE SMOOTH",
"709 667 OFFCURVE",
"719 674 OFFCURVE",
"719 684 CURVE SMOOTH",
"719 690 OFFCURVE",
"717 695 OFFCURVE",
"709 695 CURVE SMOOTH",
"553 695 LINE SMOOTH",
"535 695 OFFCURVE",
"525 687 OFFCURVE",
"525 673 CURVE SMOOTH",
"525 663 OFFCURVE",
"530 656 OFFCURVE",
"538 656 CURVE SMOOTH",
"599 656 LINE",
"599 80 LINE",
"584 113 OFFCURVE",
"568 141 OFFCURVE",
"549 169 CURVE SMOOTH",
"184 695 LINE",
"74 695 LINE SMOOTH",
"67 695 OFFCURVE",
"61 691 OFFCURVE",
"61 681 CURVE SMOOTH",
"61 667 OFFCURVE",
"70 660 OFFCURVE",
"90 657 CURVE SMOOTH",
"128 651 LINE",
"128 39 LINE",
"91 39 LINE SMOOTH",
"73 39 OFFCURVE",
"62 31 OFFCURVE",
"62 17 CURVE SMOOTH",
"62 7 OFFCURVE",
"67 0 OFFCURVE",
"75 0 CURVE SMOOTH"
);
}
);
width = 777;
}
);
note = N;
unicode = 004E;
},
{
glyphname = Nacute;
lastChange = "2015-07-16 07:54:36 +0000";
layers = (
{
layerId = "0E118B91-E289-4192-A9B8-5E503DF06BFB";
name = Light;
paths = (
{
closed = 1;
nodes = (
"246 0 LINE SMOOTH",
"254 0 OFFCURVE",
"256 5 OFFCURVE",
"256 11 CURVE SMOOTH",
"256 21 OFFCURVE",
"251 28 OFFCURVE",
"234 31 CURVE SMOOTH",
"178 40 LINE",
"178 613 LINE",
"193 580 OFFCURVE",
"206 557 OFFCURVE",
"223 532 CURVE SMOOTH",
"593 0 LINE",
"648 0 LINE",
"648 655 LINE",
"695 664 LINE SMOOTH",
"711 667 OFFCURVE",
"719 674 OFFCURVE",
"719 684 CURVE SMOOTH",
"719 690 OFFCURVE",
"717 695 OFFCURVE",
"709 695 CURVE SMOOTH",
"553 695 LINE SMOOTH",
"535 695 OFFCURVE",
"525 687 OFFCURVE",
"525 673 CURVE SMOOTH",
"525 663 OFFCURVE",
"530 656 OFFCURVE",
"538 656 CURVE SMOOTH",
"598 656 LINE",
"598 80 LINE",
"583 113 OFFCURVE",
"568 141 OFFCURVE",
"549 169 CURVE SMOOTH",
"184 695 LINE",
"74 695 LINE SMOOTH",
"67 695 OFFCURVE",
"61 691 OFFCURVE",
"61 681 CURVE SMOOTH",
"61 667 OFFCURVE",
"70 660 OFFCURVE",
"90 657 CURVE SMOOTH",
"128 651 LINE",
"128 39 LINE",
"91 39 LINE SMOOTH",
"73 39 OFFCURVE",
"62 31 OFFCURVE",
"62 17 CURVE SMOOTH",
"62 7 OFFCURVE",
"67 0 OFFCURVE",
"75 0 CURVE SMOOTH"
);
},
{
closed = 1;
nodes = (
"460 876 LINE",
"413 906 LINE",
"332 772 LINE",
"367 750 LINE"
);
}
);
width = 777;
}
);
note = Nacute;
unicode = 0143;
},
{
glyphname = Ncaron;
lastChange = "2015-07-16 07:54:36 +0000";
layers = (
{
layerId = "0E118B91-E289-4192-A9B8-5E503DF06BFB";
name = Light;
paths = (
{
closed = 1;
nodes = (
"246 0 LINE SMOOTH",
"254 0 OFFCURVE",
"256 5 OFFCURVE",
"256 11 CURVE SMOOTH",
"256 21 OFFCURVE",
"251 28 OFFCURVE",
"234 31 CURVE SMOOTH",
"178 40 LINE",
"178 613 LINE",
"193 580 OFFCURVE",
"206 557 OFFCURVE",
"223 532 CURVE SMOOTH",
"593 0 LINE",
"648 0 LINE",
"648 655 LINE",
"695 664 LINE SMOOTH",
"711 667 OFFCURVE",
"719 674 OFFCURVE",
"719 684 CURVE SMOOTH",
"719 690 OFFCURVE",
"717 695 OFFCURVE",
"709 695 CURVE SMOOTH",
"553 695 LINE SMOOTH",
"535 695 OFFCURVE",
"525 687 OFFCURVE",
"525 673 CURVE SMOOTH",
"525 663 OFFCURVE",
"530 656 OFFCURVE",
"538 656 CURVE SMOOTH",
"598 656 LINE",
"598 80 LINE",
"583 113 OFFCURVE",
"568 141 OFFCURVE",
"549 169 CURVE SMOOTH",
"184 695 LINE",
"74 695 LINE SMOOTH",
"67 695 OFFCURVE",
"61 691 OFFCURVE",
"61 681 CURVE SMOOTH",
"61 667 OFFCURVE",
"70 660 OFFCURVE",
"90 657 CURVE SMOOTH",
"128 651 LINE",
"128 39 LINE",
"91 39 LINE SMOOTH",
"73 39 OFFCURVE",
"62 31 OFFCURVE",
"62 17 CURVE SMOOTH",
"62 7 OFFCURVE",
"67 0 OFFCURVE",
"75 0 CURVE SMOOTH"
);
},
{
closed = 1;
nodes = (
"406 750 LINE",
"507 878 LINE",
"477 901 LINE",
"388 806 LINE",
"299 901 LINE",
"269 878 LINE",
"371 750 LINE"
);
}
);
width = 777;
}
);
note = Ncaron;
unicode = 0147;
},
{
glyphname = Ncommaaccent;
lastChange = "2015-07-16 07:54:36 +0000";
layers = (
{
layerId = "0E118B91-E289-4192-A9B8-5E503DF06BFB";
name = Light;
paths = (
{
closed = 1;
nodes = (
"246 0 LINE SMOOTH",
"254 0 OFFCURVE",
"256 5 OFFCURVE",
"256 11 CURVE SMOOTH",
"256 21 OFFCURVE",
"251 28 OFFCURVE",
"234 31 CURVE SMOOTH",
"178 40 LINE",
"178 613 LINE",
"193 580 OFFCURVE",
"206 557 OFFCURVE",
"223 532 CURVE SMOOTH",
"593 0 LINE",
"648 0 LINE",
"648 655 LINE",
"695 664 LINE SMOOTH",
"711 667 OFFCURVE",
"719 674 OFFCURVE",
"719 684 CURVE SMOOTH",
"719 690 OFFCURVE",
"717 695 OFFCURVE",
"709 695 CURVE SMOOTH",
"553 695 LINE SMOOTH",
"535 695 OFFCURVE",
"525 687 OFFCURVE",
"525 673 CURVE SMOOTH",
"525 663 OFFCURVE",
"530 656 OFFCURVE",
"538 656 CURVE SMOOTH",
"598 656 LINE",
"598 80 LINE",
"583 113 OFFCURVE",
"568 141 OFFCURVE",
"549 169 CURVE SMOOTH",
"184 695 LINE",
"74 695 LINE SMOOTH",
"67 695 OFFCURVE",
"61 691 OFFCURVE",
"61 681 CURVE SMOOTH",
"61 667 OFFCURVE",
"70 660 OFFCURVE",
"90 657 CURVE SMOOTH",
"128 651 LINE",
"128 39 LINE",
"91 39 LINE SMOOTH",
"73 39 OFFCURVE",
"62 31 OFFCURVE",
"62 17 CURVE SMOOTH",
"62 7 OFFCURVE",
"67 0 OFFCURVE",
"75 0 CURVE SMOOTH"
);
},
{
closed = 1;
nodes = (
"402 -174 OFFCURVE",
"428 -115 OFFCURVE",
"442 -58 CURVE",
"378 -43 LINE SMOOTH",
"360 -39 OFFCURVE",
"347 -46 OFFCURVE",
"347 -62 CURVE SMOOTH",
"347 -68 OFFCURVE",
"351 -72 OFFCURVE",
"356 -74 CURVE",
"386 -84 LINE",
"382 -116 OFFCURVE",
"361 -166 OFFCURVE",
"337 -202 CURVE",
"365 -219 LINE"
);
}
);
width = 777;
}
);
note = Ncommaaccent;
unicode = 0145;
},
{
glyphname = Ndotaccent;
lastChange = "2015-07-16 07:54:35 +0000";
layers = (
{
components = (
{
name = N;
}
);
layerId = "0E118B91-E289-4192-A9B8-5E503DF06BFB";
name = Light;
paths = (
{
closed = 1;
nodes = (
"412 767 OFFCURVE",
"431 785 OFFCURVE",
"431 810 CURVE SMOOTH",
"431 834 OFFCURVE",
"412 853 OFFCURVE",
"388 853 CURVE SMOOTH",
"364 853 OFFCURVE",
"345 834 OFFCURVE",
"345 810 CURVE SMOOTH",
"345 785 OFFCURVE",
"364 767 OFFCURVE",
"388 767 CURVE SMOOTH"
);
}
);
width = 777;
}
);
note = Ndotaccent;
unicode = 1E44;
},
{
glyphname = Ndotbelow;
lastChange = "2015-07-16 07:54:35 +0000";
layers = (
{
components = (
{
name = N;
}
);
layerId = "0E118B91-E289-4192-A9B8-5E503DF06BFB";
name = Light;
paths = (
{
closed = 1;
nodes = (
"416 -151 OFFCURVE",
"435 -133 OFFCURVE",
"435 -108 CURVE SMOOTH",
"435 -84 OFFCURVE",
"416 -65 OFFCURVE",
"392 -65 CURVE SMOOTH",
"368 -65 OFFCURVE",
"349 -84 OFFCURVE",
"349 -108 CURVE SMOOTH",
"349 -133 OFFCURVE",
"368 -151 OFFCURVE",
"392 -151 CURVE SMOOTH"
);
}
);
width = 777;
}
);
note = Ndotbelow;
unicode = 1E46;
},
{
glyphname = Eng;
lastChange = "2015-07-16 07:54:35 +0000";
layers = (
{
layerId = "0E118B91-E289-4192-A9B8-5E503DF06BFB";
name = Light;
paths = (
{
closed = 1;
nodes = (
"557 -194 OFFCURVE",
"648 -142 OFFCURVE",
"648 -20 CURVE SMOOTH",
"648 655 LINE",
"696 664 LINE SMOOTH",
"710 667 OFFCURVE",
"720 674 OFFCURVE",
"720 684 CURVE SMOOTH",
"720 690 OFFCURVE",
"718 695 OFFCURVE",
"710 695 CURVE SMOOTH",
"554 695 LINE SMOOTH",
"535 695 OFFCURVE",
"526 687 OFFCURVE",
"526 673 CURVE SMOOTH",
"526 663 OFFCURVE",
"531 656 OFFCURVE",
"539 656 CURVE SMOOTH",
"599 656 LINE",
"599 83 LINE",
"585 111 OFFCURVE",
"570 138 OFFCURVE",
"549 169 CURVE SMOOTH",
"184 695 LINE",
"74 695 LINE SMOOTH",
"67 695 OFFCURVE",
"61 691 OFFCURVE",
"61 681 CURVE SMOOTH",
"61 667 OFFCURVE",
"70 660 OFFCURVE",
"90 657 CURVE SMOOTH",
"128 651 LINE",
"128 39 LINE",
"91 39 LINE SMOOTH",
"72 39 OFFCURVE",
"62 31 OFFCURVE",
"62 17 CURVE SMOOTH",
"62 7 OFFCURVE",
"67 0 OFFCURVE",
"75 0 CURVE SMOOTH",
"246 0 LINE SMOOTH",
"254 0 OFFCURVE",
"256 5 OFFCURVE",
"256 11 CURVE SMOOTH",
"256 21 OFFCURVE",
"251 28 OFFCURVE",
"233 31 CURVE SMOOTH",
"178 40 LINE",
"178 611 LINE",
"192 580 OFFCURVE",
"206 557 OFFCURVE",
"223 532 CURVE SMOOTH",
"593 0 LINE",
"593 -23 LINE SMOOTH",
"593 -110 OFFCURVE",
"541 -153 OFFCURVE",
"467 -167 CURVE",
"481 -206 LINE"
);
}
);
width = 778;
}
);
note = Eng;
unicode = 014A;
},
{
glyphname = Nlinebelow;
lastChange = "2015-07-16 07:54:35 +0000";
layers = (
{
components = (
{
name = N;
}
);
layerId = "0E118B91-E289-4192-A9B8-5E503DF06BFB";
name = Light;
paths = (
{
closed = 1;
nodes = (
"579 -129 LINE",
"579 -88 LINE",
"212 -88 LINE",
"212 -129 LINE"
);
}
);
width = 777;
}
);
note = Nlinebelow;
unicode = 1E48;
},
{
glyphname = Ntilde;
lastChange = "2015-07-16 07:54:36 +0000";
layers = (
{
layerId = "0E118B91-E289-4192-A9B8-5E503DF06BFB";
name = Light;
paths = (
{
closed = 1;
nodes = (
"246 0 LINE SMOOTH",
"254 0 OFFCURVE",
"256 5 OFFCURVE",
"256 11 CURVE SMOOTH",
"256 21 OFFCURVE",
"251 28 OFFCURVE",
"234 31 CURVE SMOOTH",
"178 40 LINE",
"178 613 LINE",
"193 580 OFFCURVE",
"206 557 OFFCURVE",
"223 532 CURVE SMOOTH",
"593 0 LINE",
"648 0 LINE",
"648 655 LINE",
"695 664 LINE SMOOTH",
"711 667 OFFCURVE",
"719 674 OFFCURVE",
"719 684 CURVE SMOOTH",
"719 690 OFFCURVE",
"717 695 OFFCURVE",
"709 695 CURVE SMOOTH",
"553 695 LINE SMOOTH",
"535 695 OFFCURVE",
"525 687 OFFCURVE",
"525 673 CURVE SMOOTH",
"525 663 OFFCURVE",
"530 656 OFFCURVE",
"538 656 CURVE SMOOTH",
"598 656 LINE",
"598 80 LINE",
"583 113 OFFCURVE",
"568 141 OFFCURVE",
"549 169 CURVE SMOOTH",
"184 695 LINE",
"74 695 LINE SMOOTH",
"67 695 OFFCURVE",
"61 691 OFFCURVE",
"61 681 CURVE SMOOTH",
"61 667 OFFCURVE",
"70 660 OFFCURVE",
"90 657 CURVE SMOOTH",
"128 651 LINE",
"128 39 LINE",
"91 39 LINE SMOOTH",
"73 39 OFFCURVE",
"62 31 OFFCURVE",
"62 17 CURVE SMOOTH",
"62 7 OFFCURVE",
"67 0 OFFCURVE",
"75 0 CURVE SMOOTH"
);
},
{
closed = 1;
nodes = (
"469 761 OFFCURVE",
"502 780 OFFCURVE",
"527 804 CURVE",
"505 833 LINE",
"483 817 OFFCURVE",
"462 806 OFFCURVE",
"438 806 CURVE SMOOTH",
"406 806 OFFCURVE",
"367 839 OFFCURVE",
"329 839 CURVE SMOOTH",
"299 839 OFFCURVE",
"264 819 OFFCURVE",
"239 796 CURVE",
"261 767 LINE",
"283 783 OFFCURVE",
"303 794 OFFCURVE",
"329 794 CURVE SMOOTH",
"368 794 OFFCURVE",
"398 761 OFFCURVE",
"439 761 CURVE SMOOTH"
);
}
);
width = 777;
}
);
note = Ntilde;
unicode = 00D1;
},
{
glyphname = O;
lastChange = "2015-07-16 07:54:36 +0000";
layers = (
{
layerId = "0E118B91-E289-4192-A9B8-5E503DF06BFB";
name = Light;
paths = (
{
closed = 1;
nodes = (
"552 -11 OFFCURVE",
"676 108 OFFCURVE",
"676 346 CURVE SMOOTH",
"676 585 OFFCURVE",
"552 706 OFFCURVE",
"364 706 CURVE SMOOTH",
"176 706 OFFCURVE",
"53 585 OFFCURVE",
"53 346 CURVE SMOOTH",
"53 108 OFFCURVE",
"176 -11 OFFCURVE",
"364 -11 CURVE SMOOTH"
);
},
{
closed = 1;
nodes = (
"203 32 OFFCURVE",
"114 148 OFFCURVE",
"114 346 CURVE SMOOTH",
"114 545 OFFCURVE",
"203 663 OFFCURVE",
"364 663 CURVE SMOOTH",
"525 663 OFFCURVE",
"614 545 OFFCURVE",
"614 346 CURVE SMOOTH",
"614 148 OFFCURVE",
"525 32 OFFCURVE",
"364 32 CURVE SMOOTH"
);
}
);
width = 729;
}
);
note = O;
unicode = 004F;
},
{
glyphname = Oacute;
lastChange = "2015-07-16 07:54:36 +0000";
layers = (
{
layerId = "0E118B91-E289-4192-A9B8-5E503DF06BFB";
name = Light;
paths = (
{
closed = 1;
nodes = (
"552 -11 OFFCURVE",
"676 108 OFFCURVE",
"676 346 CURVE SMOOTH",
"676 585 OFFCURVE",
"552 706 OFFCURVE",
"364 706 CURVE SMOOTH",
"176 706 OFFCURVE",
"53 585 OFFCURVE",
"53 346 CURVE SMOOTH",
"53 108 OFFCURVE",
"176 -11 OFFCURVE",
"364 -11 CURVE SMOOTH"
);
},
{
closed = 1;
nodes = (
"203 32 OFFCURVE",
"114 148 OFFCURVE",
"114 346 CURVE SMOOTH",
"114 545 OFFCURVE",
"203 663 OFFCURVE",
"364 663 CURVE SMOOTH",
"525 663 OFFCURVE",
"614 545 OFFCURVE",
"614 346 CURVE SMOOTH",
"614 148 OFFCURVE",
"525 32 OFFCURVE",
"364 32 CURVE SMOOTH"
);
},
{
closed = 1;
nodes = (
"432 876 LINE",
"385 906 LINE",
"304 772 LINE",
"339 750 LINE"
);
}
);
width = 729;
}
);
note = Oacute;
unicode = 00D3;
},
{
glyphname = Obreve;
lastChange = "2015-07-16 07:54:36 +0000";
layers = (
{
layerId = "0E118B91-E289-4192-A9B8-5E503DF06BFB";
name = Light;
paths = (
{
closed = 1;
nodes = (
"552 -11 OFFCURVE",
"676 108 OFFCURVE",
"676 346 CURVE SMOOTH",
"676 585 OFFCURVE",
"552 706 OFFCURVE",
"364 706 CURVE SMOOTH",
"176 706 OFFCURVE",
"53 585 OFFCURVE",
"53 346 CURVE SMOOTH",
"53 108 OFFCURVE",
"176 -11 OFFCURVE",
"364 -11 CURVE SMOOTH"
);
},
{
closed = 1;
nodes = (
"203 32 OFFCURVE",
"114 148 OFFCURVE",
"114 346 CURVE SMOOTH",
"114 545 OFFCURVE",
"203 663 OFFCURVE",
"364 663 CURVE SMOOTH",
"525 663 OFFCURVE",
"614 545 OFFCURVE",
"614 346 CURVE SMOOTH",
"614 148 OFFCURVE",
"525 32 OFFCURVE",
"364 32 CURVE SMOOTH"
);
},
{
closed = 1;
nodes = (
"423 747 OFFCURVE",
"479 778 OFFCURVE",
"502 860 CURVE",
"464 874 LINE",
"450 826 OFFCURVE",
"417 790 OFFCURVE",
"364 790 CURVE SMOOTH",
"311 790 OFFCURVE",
"277 826 OFFCURVE",
"264 874 CURVE",
"226 860 LINE",
"249 778 OFFCURVE",
"304 747 OFFCURVE",
"364 747 CURVE SMOOTH"
);
}
);
width = 729;
}
);
note = Obreve;
unicode = 014E;
},
{
glyphname = Ocaron;
lastChange = "2015-07-16 07:54:35 +0000";
layers = (
{
layerId = "0E118B91-E289-4192-A9B8-5E503DF06BFB";
name = Light;
paths = (
{
closed = 1;
nodes = (
"552 -11 OFFCURVE",
"676 108 OFFCURVE",
"676 346 CURVE SMOOTH",
"676 585 OFFCURVE",
"552 706 OFFCURVE",
"364 706 CURVE SMOOTH",
"176 706 OFFCURVE",
"53 585 OFFCURVE",
"53 346 CURVE SMOOTH",
"53 108 OFFCURVE",
"176 -11 OFFCURVE",
"364 -11 CURVE SMOOTH"
);
},
{
closed = 1;
nodes = (
"203 32 OFFCURVE",
"114 148 OFFCURVE",
"114 346 CURVE SMOOTH",
"114 545 OFFCURVE",
"203 663 OFFCURVE",
"364 663 CURVE SMOOTH",
"525 663 OFFCURVE",
"614 545 OFFCURVE",
"614 346 CURVE SMOOTH",
"614 148 OFFCURVE",
"525 32 OFFCURVE",
"364 32 CURVE SMOOTH"
);
},
{
closed = 1;
nodes = (
"383 750 LINE",
"484 878 LINE",
"454 901 LINE",
"365 806 LINE",
"276 901 LINE",
"246 878 LINE",
"348 750 LINE"
);
}
);
width = 729;
}
);
note = Ocaron;
unicode = 01D1;
},
{
glyphname = Ocircumflex;
lastChange = "2015-07-16 07:54:35 +0000";
layers = (
{
layerId = "0E118B91-E289-4192-A9B8-5E503DF06BFB";
name = Light;
paths = (
{
closed = 1;
nodes = (
"552 -11 OFFCURVE",
"676 108 OFFCURVE",
"676 346 CURVE SMOOTH",
"676 585 OFFCURVE",
"552 706 OFFCURVE",
"364 706 CURVE SMOOTH",
"176 706 OFFCURVE",
"53 585 OFFCURVE",
"53 346 CURVE SMOOTH",
"53 108 OFFCURVE",
"176 -11 OFFCURVE",
"364 -11 CURVE SMOOTH"
);
},
{
closed = 1;
nodes = (
"203 32 OFFCURVE",
"114 148 OFFCURVE",
"114 346 CURVE SMOOTH",
"114 545 OFFCURVE",
"203 663 OFFCURVE",
"364 663 CURVE SMOOTH",
"525 663 OFFCURVE",
"614 545 OFFCURVE",
"614 346 CURVE SMOOTH",
"614 148 OFFCURVE",
"525 32 OFFCURVE",
"364 32 CURVE SMOOTH"
);
},
{
closed = 1;
nodes = (
"364 846 LINE",
"453 750 LINE",
"483 773 LINE",
"382 901 LINE",
"347 901 LINE",
"245 773 LINE",
"275 750 LINE"
);
}
);
width = 729;
}
);
note = Ocircumflex;
unicode = 00D4;
},
{
glyphname = Ocircumflexacute;
lastChange = "2015-07-16 07:54:36 +0000";
layers = (
{
layerId = "0E118B91-E289-4192-A9B8-5E503DF06BFB";
name = Light;
paths = (
{
closed = 1;
nodes = (
"552 -11 OFFCURVE",
"676 108 OFFCURVE",
"676 346 CURVE SMOOTH",
"676 585 OFFCURVE",
"552 706 OFFCURVE",
"364 706 CURVE SMOOTH",
"176 706 OFFCURVE",
"53 585 OFFCURVE",
"53 346 CURVE SMOOTH",
"53 108 OFFCURVE",
"176 -11 OFFCURVE",
"364 -11 CURVE SMOOTH"
);
},
{
closed = 1;
nodes = (
"203 32 OFFCURVE",
"114 148 OFFCURVE",
"114 346 CURVE SMOOTH",
"114 545 OFFCURVE",
"203 663 OFFCURVE",
"364 663 CURVE SMOOTH",
"525 663 OFFCURVE",
"614 545 OFFCURVE",
"614 346 CURVE SMOOTH",
"614 148 OFFCURVE",
"525 32 OFFCURVE",
"364 32 CURVE SMOOTH"
);
},
{
closed = 1;
nodes = (
"364 846 LINE",
"453 750 LINE",
"483 773 LINE",
"382 901 LINE",
"347 901 LINE",
"245 773 LINE",
"275 750 LINE"
);
},
{
closed = 1;
nodes = (
"558 937 LINE",
"514 964 LINE",
"453 861 LINE",
"484 842 LINE"
);
}
);
width = 729;
}
);
note = Ocircumflexacute;
unicode = 1ED0;
},
{
glyphname = Ocircumflexdotbelow;
lastChange = "2015-07-16 07:54:35 +0000";
layers = (
{
layerId = "0E118B91-E289-4192-A9B8-5E503DF06BFB";
name = Light;
paths = (
{
closed = 1;
nodes = (
"552 -11 OFFCURVE",
"676 108 OFFCURVE",
"676 346 CURVE SMOOTH",
"676 585 OFFCURVE",
"552 706 OFFCURVE",
"364 706 CURVE SMOOTH",
"176 706 OFFCURVE",
"53 585 OFFCURVE",
"53 346 CURVE SMOOTH",
"53 108 OFFCURVE",
"176 -11 OFFCURVE",
"364 -11 CURVE SMOOTH"
);
},
{
closed = 1;
nodes = (
"389 -151 OFFCURVE",
"408 -133 OFFCURVE",
"408 -108 CURVE SMOOTH",
"408 -84 OFFCURVE",
"389 -65 OFFCURVE",
"365 -65 CURVE SMOOTH",
"341 -65 OFFCURVE",
"322 -84 OFFCURVE",
"322 -108 CURVE SMOOTH",
"322 -133 OFFCURVE",
"341 -151 OFFCURVE",
"365 -151 CURVE SMOOTH"
);
},
{
closed = 1;
nodes = (
"203 32 OFFCURVE",
"114 148 OFFCURVE",
"114 346 CURVE SMOOTH",
"114 545 OFFCURVE",
"203 663 OFFCURVE",
"364 663 CURVE SMOOTH",
"525 663 OFFCURVE",
"614 545 OFFCURVE",
"614 346 CURVE SMOOTH",
"614 148 OFFCURVE",
"525 32 OFFCURVE",
"364 32 CURVE SMOOTH"
);
},
{
closed = 1;
nodes = (
"364 846 LINE",
"453 750 LINE",
"483 773 LINE",
"382 901 LINE",
"347 901 LINE",
"245 773 LINE",
"275 750 LINE"
);
}
);
width = 729;
}
);
note = Ocircumflexdotbelow;
unicode = 1ED8;
},
{
glyphname = Ocircumflexgrave;
lastChange = "2015-07-16 07:54:36 +0000";
layers = (
{
layerId = "0E118B91-E289-4192-A9B8-5E503DF06BFB";
name = Light;
paths = (
{
closed = 1;
nodes = (
"552 -11 OFFCURVE",
"676 108 OFFCURVE",
"676 346 CURVE SMOOTH",
"676 585 OFFCURVE",
"552 706 OFFCURVE",
"364 706 CURVE SMOOTH",
"176 706 OFFCURVE",
"53 585 OFFCURVE",
"53 346 CURVE SMOOTH",
"53 108 OFFCURVE",
"176 -11 OFFCURVE",
"364 -11 CURVE SMOOTH"
);
},
{
closed = 1;
nodes = (
"203 32 OFFCURVE",
"114 148 OFFCURVE",
"114 346 CURVE SMOOTH",
"114 545 OFFCURVE",
"203 663 OFFCURVE",
"364 663 CURVE SMOOTH",
"525 663 OFFCURVE",
"614 545 OFFCURVE",
"614 346 CURVE SMOOTH",
"614 148 OFFCURVE",
"525 32 OFFCURVE",
"364 32 CURVE SMOOTH"
);
},
{
closed = 1;
nodes = (
"277 861 LINE",
"216 964 LINE",
"172 937 LINE",
"246 842 LINE"
);
},
{
closed = 1;
nodes = (
"366 846 LINE",
"455 750 LINE",
"485 773 LINE",
"384 901 LINE",
"349 901 LINE",
"247 773 LINE",
"277 750 LINE"
);
}
);
width = 729;
}
);
note = Ocircumflexgrave;
unicode = 1ED2;
},
{
glyphname = Ocircumflexhookabove;
lastChange = "2015-07-16 07:54:36 +0000";
layers = (
{
layerId = "0E118B91-E289-4192-A9B8-5E503DF06BFB";
name = Light;
paths = (
{
closed = 1;
nodes = (
"552 -11 OFFCURVE",
"676 108 OFFCURVE",
"676 346 CURVE SMOOTH",
"676 585 OFFCURVE",
"552 706 OFFCURVE",
"364 706 CURVE SMOOTH",
"176 706 OFFCURVE",
"53 585 OFFCURVE",
"53 346 CURVE SMOOTH",
"53 108 OFFCURVE",
"176 -11 OFFCURVE",
"364 -11 CURVE SMOOTH"
);
},
{
closed = 1;
nodes = (
"203 32 OFFCURVE",
"114 148 OFFCURVE",
"114 346 CURVE SMOOTH",
"114 545 OFFCURVE",
"203 663 OFFCURVE",
"364 663 CURVE SMOOTH",
"525 663 OFFCURVE",
"614 545 OFFCURVE",
"614 346 CURVE SMOOTH",
"614 148 OFFCURVE",
"525 32 OFFCURVE",
"364 32 CURVE SMOOTH"
);
},
{
closed = 1;
nodes = (
"366 846 LINE",
"455 750 LINE",
"485 773 LINE",
"384 901 LINE",
"349 901 LINE",
"247 773 LINE",
"277 750 LINE"
);
},
{
closed = 1;
nodes = (
"518 834 LINE",
"523 876 LINE",
"551 886 OFFCURVE",
"569 906 OFFCURVE",
"569 932 CURVE SMOOTH",
"569 969 OFFCURVE",
"539 990 OFFCURVE",
"502 990 CURVE SMOOTH",
"483 990 OFFCURVE",
"463 984 OFFCURVE",
"449 979 CURVE",
"455 952 LINE",
"467 956 OFFCURVE",
"481 959 OFFCURVE",
"495 959 CURVE SMOOTH",
"514 959 OFFCURVE",
"527 950 OFFCURVE",
"527 932 CURVE SMOOTH",
"527 912 OFFCURVE",
"511 898 OFFCURVE",
"482 889 CURVE",
"486 834 LINE"
);
}
);
width = 729;
}
);
note = Ocircumflexhookabove;
unicode = 1ED4;
},
{
glyphname = Ocircumflextilde;
lastChange = "2015-07-16 07:54:36 +0000";
layers = (
{
layerId = "0E118B91-E289-4192-A9B8-5E503DF06BFB";
name = Light;
paths = (
{
closed = 1;
nodes = (
"552 -11 OFFCURVE",
"676 108 OFFCURVE",
"676 346 CURVE SMOOTH",
"676 585 OFFCURVE",
"552 706 OFFCURVE",
"364 706 CURVE SMOOTH",
"176 706 OFFCURVE",
"53 585 OFFCURVE",
"53 346 CURVE SMOOTH",
"53 108 OFFCURVE",
"176 -11 OFFCURVE",
"364 -11 CURVE SMOOTH"
);
},
{
closed = 1;
nodes = (
"203 32 OFFCURVE",
"114 148 OFFCURVE",
"114 346 CURVE SMOOTH",
"114 545 OFFCURVE",
"203 663 OFFCURVE",
"364 663 CURVE SMOOTH",
"525 663 OFFCURVE",
"614 545 OFFCURVE",
"614 346 CURVE SMOOTH",
"614 148 OFFCURVE",
"525 32 OFFCURVE",
"364 32 CURVE SMOOTH"
);
},
{
closed = 1;
nodes = (
"423 747 OFFCURVE",
"479 778 OFFCURVE",
"502 860 CURVE",
"464 874 LINE",
"450 826 OFFCURVE",
"417 790 OFFCURVE",
"364 790 CURVE SMOOTH",
"311 790 OFFCURVE",
"277 826 OFFCURVE",
"264 874 CURVE",
"226 860 LINE",
"249 778 OFFCURVE",
"304 747 OFFCURVE",
"364 747 CURVE SMOOTH"
);
},
{
closed = 1;
nodes = (
"429 915 OFFCURVE",
"453 930 OFFCURVE",
"473 948 CURVE",
"455 978 LINE",
"440 966 OFFCURVE",
"424 956 OFFCURVE",
"405 956 CURVE SMOOTH",
"381 956 OFFCURVE",
"352 982 OFFCURVE",
"324 982 CURVE SMOOTH",
"302 982 OFFCURVE",
"276 967 OFFCURVE",
"257 950 CURVE",
"274 920 LINE",
"289 932 OFFCURVE",
"305 941 OFFCURVE",
"324 941 CURVE SMOOTH",
"353 941 OFFCURVE",
"375 915 OFFCURVE",
"406 915 CURVE SMOOTH"
);
}
);
width = 729;
}
);
note = Ocircumflextilde;
unicode = 1ED6;
},
{
glyphname = Odieresis;
lastChange = "2015-07-16 07:54:36 +0000";
layers = (
{
layerId = "0E118B91-E289-4192-A9B8-5E503DF06BFB";
name = Light;
paths = (
{
closed = 1;
nodes = (
"552 -11 OFFCURVE",
"676 108 OFFCURVE",
"676 346 CURVE SMOOTH",
"676 585 OFFCURVE",
"552 706 OFFCURVE",
"364 706 CURVE SMOOTH",
"176 706 OFFCURVE",
"53 585 OFFCURVE",
"53 346 CURVE SMOOTH",
"53 108 OFFCURVE",
"176 -11 OFFCURVE",
"364 -11 CURVE SMOOTH"
);
},
{
closed = 1;
nodes = (
"203 32 OFFCURVE",
"114 148 OFFCURVE",
"114 346 CURVE SMOOTH",
"114 545 OFFCURVE",
"203 663 OFFCURVE",
"364 663 CURVE SMOOTH",
"525 663 OFFCURVE",
"614 545 OFFCURVE",
"614 346 CURVE SMOOTH",
"614 148 OFFCURVE",
"525 32 OFFCURVE",
"364 32 CURVE SMOOTH"
);
},
{
closed = 1;
nodes = (
"294 761 OFFCURVE",
"313 779 OFFCURVE",
"313 803 CURVE SMOOTH",
"313 828 OFFCURVE",
"294 846 OFFCURVE",
"271 846 CURVE SMOOTH",
"249 846 OFFCURVE",
"229 828 OFFCURVE",
"229 803 CURVE SMOOTH",
"229 779 OFFCURVE",
"249 761 OFFCURVE",
"271 761 CURVE SMOOTH"
);
},
{
closed = 1;
nodes = (
"480 761 OFFCURVE",
"499 779 OFFCURVE",
"499 803 CURVE SMOOTH",
"499 828 OFFCURVE",
"480 846 OFFCURVE",
"457 846 CURVE SMOOTH",
"435 846 OFFCURVE",
"415 828 OFFCURVE",
"415 803 CURVE SMOOTH",
"415 779 OFFCURVE",
"435 761 OFFCURVE",
"457 761 CURVE SMOOTH"
);
}
);
width = 729;
}
);
note = Odieresis;
unicode = 00D6;
},
{
glyphname = Odotbelow;
lastChange = "2015-07-16 07:54:35 +0000";
layers = (
{
layerId = "0E118B91-E289-4192-A9B8-5E503DF06BFB";
name = Light;
paths = (
{
closed = 1;
nodes = (
"552 -11 OFFCURVE",
"676 108 OFFCURVE",
"676 346 CURVE SMOOTH",
"676 585 OFFCURVE",
"552 706 OFFCURVE",
"364 706 CURVE SMOOTH",
"176 706 OFFCURVE",
"53 585 OFFCURVE",
"53 346 CURVE SMOOTH",
"53 108 OFFCURVE",
"176 -11 OFFCURVE",
"364 -11 CURVE SMOOTH"
);
},
{
closed = 1;
nodes = (
"389 -151 OFFCURVE",
"408 -133 OFFCURVE",
"408 -108 CURVE SMOOTH",
"408 -84 OFFCURVE",
"389 -65 OFFCURVE",
"365 -65 CURVE SMOOTH",
"341 -65 OFFCURVE",
"322 -84 OFFCURVE",
"322 -108 CURVE SMOOTH",
"322 -133 OFFCURVE",
"341 -151 OFFCURVE",
"365 -151 CURVE SMOOTH"
);
},
{
closed = 1;
nodes = (
"203 32 OFFCURVE",
"114 148 OFFCURVE",
"114 346 CURVE SMOOTH",
"114 545 OFFCURVE",
"203 663 OFFCURVE",
"364 663 CURVE SMOOTH",
"525 663 OFFCURVE",
"614 545 OFFCURVE",
"614 346 CURVE SMOOTH",
"614 148 OFFCURVE",
"525 32 OFFCURVE",
"364 32 CURVE SMOOTH"
);
}
);
width = 729;
}
);
note = Odotbelow;
unicode = 1ECC;
},
{
glyphname = Ograve;
lastChange = "2015-07-16 07:54:36 +0000";
layers = (
{
layerId = "0E118B91-E289-4192-A9B8-5E503DF06BFB";
name = Light;
paths = (
{
closed = 1;
nodes = (
"552 -11 OFFCURVE",
"676 108 OFFCURVE",
"676 346 CURVE SMOOTH",
"676 585 OFFCURVE",
"552 706 OFFCURVE",
"364 706 CURVE SMOOTH",
"176 706 OFFCURVE",
"53 585 OFFCURVE",
"53 346 CURVE SMOOTH",
"53 108 OFFCURVE",
"176 -11 OFFCURVE",
"364 -11 CURVE SMOOTH"
);
},
{
closed = 1;
nodes = (
"203 32 OFFCURVE",
"114 148 OFFCURVE",
"114 346 CURVE SMOOTH",
"114 545 OFFCURVE",
"203 663 OFFCURVE",
"364 663 CURVE SMOOTH",
"525 663 OFFCURVE",
"614 545 OFFCURVE",
"614 346 CURVE SMOOTH",
"614 148 OFFCURVE",
"525 32 OFFCURVE",
"364 32 CURVE SMOOTH"
);
},
{
closed = 1;
nodes = (
"418 773 LINE",
"337 907 LINE",
"290 877 LINE",
"383 751 LINE"
);
}
);
width = 729;
}
);
note = Ograve;
unicode = 00D2;
},
{
glyphname = Ohookabove;
lastChange = "2015-07-16 07:54:36 +0000";
layers = (
{
layerId = "0E118B91-E289-4192-A9B8-5E503DF06BFB";
name = Light;
paths = (
{
closed = 1;
nodes = (
"552 -11 OFFCURVE",
"676 108 OFFCURVE",
"676 346 CURVE SMOOTH",
"676 585 OFFCURVE",
"552 706 OFFCURVE",
"364 706 CURVE SMOOTH",
"176 706 OFFCURVE",
"53 585 OFFCURVE",
"53 346 CURVE SMOOTH",
"53 108 OFFCURVE",
"176 -11 OFFCURVE",
"364 -11 CURVE SMOOTH"
);
},
{
closed = 1;
nodes = (
"203 32 OFFCURVE",
"114 148 OFFCURVE",
"114 346 CURVE SMOOTH",
"114 545 OFFCURVE",
"203 663 OFFCURVE",
"364 663 CURVE SMOOTH",
"525 663 OFFCURVE",
"614 545 OFFCURVE",
"614 346 CURVE SMOOTH",
"614 148 OFFCURVE",
"525 32 OFFCURVE",
"364 32 CURVE SMOOTH"
);
},
{
closed = 1;
nodes = (
"381 750 LINE",
"387 794 LINE",
"417 805 OFFCURVE",
"436 827 OFFCURVE",
"436 855 CURVE SMOOTH",
"436 893 OFFCURVE",
"404 916 OFFCURVE",
"364 916 CURVE SMOOTH",
"345 916 OFFCURVE",
"322 910 OFFCURVE",
"308 904 CURVE",
"314 876 LINE",
"327 879 OFFCURVE",
"343 883 OFFCURVE",
"357 883 CURVE SMOOTH",
"378 883 OFFCURVE",
"392 874 OFFCURVE",
"392 854 CURVE SMOOTH",
"392 833 OFFCURVE",
"375 818 OFFCURVE",
"344 808 CURVE",
"348 750 LINE"
);
}
);
width = 729;
}
);
note = Ohookabove;
unicode = 1ECE;
},
{
glyphname = Ohorn;
lastChange = "2015-07-16 07:54:36 +0000";
layers = (
{
layerId = "0E118B91-E289-4192-A9B8-5E503DF06BFB";
name = Light;
paths = (
{
closed = 1;
nodes = (
"552 -11 OFFCURVE",
"676 108 OFFCURVE",
"676 346 CURVE SMOOTH",
"676 454 OFFCURVE",
"651 537 OFFCURVE",
"607 597 CURVE",
"665 628 OFFCURVE",
"710 678 OFFCURVE",
"710 764 CURVE",
"650 764 LINE",
"650 697 OFFCURVE",
"623 653 OFFCURVE",
"575 630 CURVE",
"523 680 OFFCURVE",
"450 706 OFFCURVE",
"364 706 CURVE SMOOTH",
"176 706 OFFCURVE",
"53 585 OFFCURVE",
"53 346 CURVE SMOOTH",
"53 108 OFFCURVE",
"176 -11 OFFCURVE",
"364 -11 CURVE SMOOTH"
);
},
{
closed = 1;
nodes = (
"203 32 OFFCURVE",
"114 148 OFFCURVE",
"114 346 CURVE SMOOTH",
"114 545 OFFCURVE",
"203 663 OFFCURVE",
"364 663 CURVE SMOOTH",
"525 663 OFFCURVE",
"614 545 OFFCURVE",
"614 346 CURVE SMOOTH",
"614 148 OFFCURVE",
"525 32 OFFCURVE",
"364 32 CURVE SMOOTH"
);
}
);
width = 752;
}
);
note = Ohorn;
unicode = 01A0;
},
{
glyphname = Ohornacute;
lastChange = "2015-07-16 07:54:36 +0000";
layers = (
{
layerId = "0E118B91-E289-4192-A9B8-5E503DF06BFB";
name = Light;
paths = (
{
closed = 1;
nodes = (
"552 -11 OFFCURVE",
"676 108 OFFCURVE",
"676 346 CURVE SMOOTH",
"676 454 OFFCURVE",
"651 537 OFFCURVE",
"607 597 CURVE",
"665 628 OFFCURVE",
"710 678 OFFCURVE",
"710 764 CURVE",
"650 764 LINE",
"650 697 OFFCURVE",
"623 653 OFFCURVE",
"575 630 CURVE",
"523 680 OFFCURVE",
"450 706 OFFCURVE",
"364 706 CURVE SMOOTH",
"176 706 OFFCURVE",
"53 585 OFFCURVE",
"53 346 CURVE SMOOTH",
"53 108 OFFCURVE",
"176 -11 OFFCURVE",
"364 -11 CURVE SMOOTH"
);
},
{
closed = 1;
nodes = (
"203 32 OFFCURVE",
"114 148 OFFCURVE",
"114 346 CURVE SMOOTH",
"114 545 OFFCURVE",
"203 663 OFFCURVE",
"364 663 CURVE SMOOTH",
"525 663 OFFCURVE",
"614 545 OFFCURVE",
"614 346 CURVE SMOOTH",
"614 148 OFFCURVE",
"525 32 OFFCURVE",
"364 32 CURVE SMOOTH"
);
},
{
closed = 1;
nodes = (
"429 876 LINE",
"382 906 LINE",
"301 772 LINE",
"336 750 LINE"
);
}
);
width = 752;
}
);
note = Ohornacute;
unicode = 1EDA;
},
{
glyphname = Ohorndotbelow;
lastChange = "2015-07-16 07:54:36 +0000";
layers = (
{
layerId = "0E118B91-E289-4192-A9B8-5E503DF06BFB";
name = Light;
paths = (
{
closed = 1;
nodes = (
"552 -11 OFFCURVE",
"676 108 OFFCURVE",
"676 346 CURVE SMOOTH",
"676 454 OFFCURVE",
"651 537 OFFCURVE",
"607 597 CURVE",
"665 628 OFFCURVE",
"710 678 OFFCURVE",
"710 764 CURVE",
"650 764 LINE",
"650 697 OFFCURVE",
"623 653 OFFCURVE",
"575 630 CURVE",
"523 680 OFFCURVE",
"450 706 OFFCURVE",
"364 706 CURVE SMOOTH",
"176 706 OFFCURVE",
"53 585 OFFCURVE",
"53 346 CURVE SMOOTH",
"53 108 OFFCURVE",
"176 -11 OFFCURVE",
"364 -11 CURVE SMOOTH"
);
},
{
closed = 1;
nodes = (
"390 -151 OFFCURVE",
"409 -133 OFFCURVE",
"409 -108 CURVE SMOOTH",
"409 -84 OFFCURVE",
"390 -65 OFFCURVE",
"366 -65 CURVE SMOOTH",
"342 -65 OFFCURVE",
"323 -84 OFFCURVE",
"323 -108 CURVE SMOOTH",
"323 -133 OFFCURVE",
"342 -151 OFFCURVE",
"366 -151 CURVE SMOOTH"
);
},
{
closed = 1;
nodes = (
"203 32 OFFCURVE",
"114 148 OFFCURVE",
"114 346 CURVE SMOOTH",
"114 545 OFFCURVE",
"203 663 OFFCURVE",
"364 663 CURVE SMOOTH",
"525 663 OFFCURVE",
"614 545 OFFCURVE",
"614 346 CURVE SMOOTH",
"614 148 OFFCURVE",
"525 32 OFFCURVE",
"364 32 CURVE SMOOTH"
);
}
);
width = 752;
}
);
note = Ohorndotbelow;
unicode = 1EE2;
},
{
glyphname = Ohorngrave;
lastChange = "2015-07-16 07:54:35 +0000";
layers = (
{
layerId = "0E118B91-E289-4192-A9B8-5E503DF06BFB";
name = Light;
paths = (
{
closed = 1;
nodes = (
"552 -11 OFFCURVE",
"676 108 OFFCURVE",
"676 346 CURVE SMOOTH",
"676 454 OFFCURVE",
"651 537 OFFCURVE",
"607 597 CURVE",
"665 628 OFFCURVE",
"710 678 OFFCURVE",
"710 764 CURVE",
"650 764 LINE",
"650 697 OFFCURVE",
"623 653 OFFCURVE",
"575 630 CURVE",
"523 680 OFFCURVE",
"450 706 OFFCURVE",
"364 706 CURVE SMOOTH",
"176 706 OFFCURVE",
"53 585 OFFCURVE",
"53 346 CURVE SMOOTH",
"53 108 OFFCURVE",
"176 -11 OFFCURVE",
"364 -11 CURVE SMOOTH"
);
},
{
closed = 1;
nodes = (
"203 32 OFFCURVE",
"114 148 OFFCURVE",
"114 346 CURVE SMOOTH",
"114 545 OFFCURVE",
"203 663 OFFCURVE",
"364 663 CURVE SMOOTH",
"525 663 OFFCURVE",
"614 545 OFFCURVE",
"614 346 CURVE SMOOTH",
"614 148 OFFCURVE",
"525 32 OFFCURVE",
"364 32 CURVE SMOOTH"
);
},
{
closed = 1;
nodes = (
"422 773 LINE",
"341 907 LINE",
"294 877 LINE",
"387 751 LINE"
);
}
);
width = 752;
}
);
note = Ohorngrave;
unicode = 1EDC;
},
{
glyphname = Ohornhookabove;
lastChange = "2015-07-16 07:54:36 +0000";
layers = (
{
layerId = "0E118B91-E289-4192-A9B8-5E503DF06BFB";
name = Light;
paths = (
{
closed = 1;
nodes = (
"552 -11 OFFCURVE",
"676 108 OFFCURVE",
"676 346 CURVE SMOOTH",
"676 454 OFFCURVE",
"651 537 OFFCURVE",
"607 597 CURVE",
"665 628 OFFCURVE",
"710 678 OFFCURVE",
"710 764 CURVE",
"650 764 LINE",
"650 697 OFFCURVE",
"623 653 OFFCURVE",
"575 630 CURVE",
"523 680 OFFCURVE",
"450 706 OFFCURVE",
"364 706 CURVE SMOOTH",
"176 706 OFFCURVE",
"53 585 OFFCURVE",
"53 346 CURVE SMOOTH",
"53 108 OFFCURVE",
"176 -11 OFFCURVE",
"364 -11 CURVE SMOOTH"
);
},
{
closed = 1;
nodes = (
"203 32 OFFCURVE",
"114 148 OFFCURVE",
"114 346 CURVE SMOOTH",
"114 545 OFFCURVE",
"203 663 OFFCURVE",
"364 663 CURVE SMOOTH",
"525 663 OFFCURVE",
"614 545 OFFCURVE",
"614 346 CURVE SMOOTH",
"614 148 OFFCURVE",
"525 32 OFFCURVE",
"364 32 CURVE SMOOTH"
);
},
{
closed = 1;
nodes = (
"379 750 LINE",
"385 794 LINE",
"415 805 OFFCURVE",
"434 827 OFFCURVE",
"434 855 CURVE SMOOTH",
"434 893 OFFCURVE",
"402 916 OFFCURVE",
"362 916 CURVE SMOOTH",
"343 916 OFFCURVE",
"320 910 OFFCURVE",
"306 904 CURVE",
"312 876 LINE",
"325 879 OFFCURVE",
"341 883 OFFCURVE",
"355 883 CURVE SMOOTH",
"376 883 OFFCURVE",
"390 874 OFFCURVE",
"390 854 CURVE SMOOTH",
"390 833 OFFCURVE",
"373 818 OFFCURVE",
"342 808 CURVE",
"346 750 LINE"
);
}
);
width = 752;
}
);
note = Ohornhookabove;
unicode = 1EDE;
},
{
glyphname = Ohorntilde;
lastChange = "2015-07-16 07:54:36 +0000";
layers = (
{
layerId = "0E118B91-E289-4192-A9B8-5E503DF06BFB";
name = Light;
paths = (
{
closed = 1;
nodes = (
"552 -11 OFFCURVE",
"676 108 OFFCURVE",
"676 346 CURVE SMOOTH",
"676 454 OFFCURVE",
"651 537 OFFCURVE",
"607 597 CURVE",
"665 628 OFFCURVE",
"710 678 OFFCURVE",
"710 764 CURVE",
"650 764 LINE",
"650 697 OFFCURVE",
"623 653 OFFCURVE",
"575 630 CURVE",
"523 680 OFFCURVE",
"450 706 OFFCURVE",
"364 706 CURVE SMOOTH",
"176 706 OFFCURVE",
"53 585 OFFCURVE",
"53 346 CURVE SMOOTH",
"53 108 OFFCURVE",
"176 -11 OFFCURVE",
"364 -11 CURVE SMOOTH"
);
},
{
closed = 1;
nodes = (
"203 32 OFFCURVE",
"114 148 OFFCURVE",
"114 346 CURVE SMOOTH",
"114 545 OFFCURVE",
"203 663 OFFCURVE",
"364 663 CURVE SMOOTH",
"525 663 OFFCURVE",
"614 545 OFFCURVE",
"614 346 CURVE SMOOTH",
"614 148 OFFCURVE",
"525 32 OFFCURVE",
"364 32 CURVE SMOOTH"
);
},
{
closed = 1;
nodes = (
"450 761 OFFCURVE",
"483 780 OFFCURVE",
"508 804 CURVE",
"486 833 LINE",
"464 817 OFFCURVE",
"443 806 OFFCURVE",
"419 806 CURVE SMOOTH",
"387 806 OFFCURVE",
"348 839 OFFCURVE",
"310 839 CURVE SMOOTH",
"280 839 OFFCURVE",
"245 819 OFFCURVE",
"220 796 CURVE",
"242 767 LINE",
"264 783 OFFCURVE",
"284 794 OFFCURVE",
"310 794 CURVE SMOOTH",
"349 794 OFFCURVE",
"379 761 OFFCURVE",
"420 761 CURVE SMOOTH"
);
}
);
width = 752;
}
);
note = Ohorntilde;
unicode = 1EE0;
},
{
glyphname = Ohungarumlaut;
lastChange = "2015-07-16 07:54:35 +0000";
layers = (
{
layerId = "0E118B91-E289-4192-A9B8-5E503DF06BFB";
name = Light;
paths = (
{
closed = 1;
nodes = (
"552 -11 OFFCURVE",
"676 108 OFFCURVE",
"676 346 CURVE SMOOTH",
"676 585 OFFCURVE",
"552 706 OFFCURVE",
"364 706 CURVE SMOOTH",
"176 706 OFFCURVE",
"53 585 OFFCURVE",
"53 346 CURVE SMOOTH",
"53 108 OFFCURVE",
"176 -11 OFFCURVE",
"364 -11 CURVE SMOOTH"
);
},
{
closed = 1;
nodes = (
"203 32 OFFCURVE",
"114 148 OFFCURVE",
"114 346 CURVE SMOOTH",
"114 545 OFFCURVE",
"203 663 OFFCURVE",
"364 663 CURVE SMOOTH",
"525 663 OFFCURVE",
"614 545 OFFCURVE",
"614 346 CURVE SMOOTH",
"614 148 OFFCURVE",
"525 32 OFFCURVE",
"364 32 CURVE SMOOTH"
);
},
{
closed = 1;
nodes = (
"402 913 LINE",
"362 937 LINE",
"255 774 LINE",
"283 755 LINE"
);
},
{
closed = 1;
nodes = (
"571 913 LINE",
"531 937 LINE",
"424 774 LINE",
"452 755 LINE"
);
}
);
width = 729;
}
);
note = Ohungarumlaut;
unicode = 0150;
},
{
glyphname = Omacron;
lastChange = "2015-07-16 07:54:36 +0000";
layers = (
{
layerId = "0E118B91-E289-4192-A9B8-5E503DF06BFB";
name = Light;
paths = (
{
closed = 1;
nodes = (
"552 -11 OFFCURVE",
"676 108 OFFCURVE",
"676 346 CURVE SMOOTH",
"676 585 OFFCURVE",
"552 706 OFFCURVE",
"364 706 CURVE SMOOTH",
"176 706 OFFCURVE",
"53 585 OFFCURVE",
"53 346 CURVE SMOOTH",
"53 108 OFFCURVE",
"176 -11 OFFCURVE",
"364 -11 CURVE SMOOTH"
);
},
{
closed = 1;
nodes = (
"203 32 OFFCURVE",
"114 148 OFFCURVE",
"114 346 CURVE SMOOTH",
"114 545 OFFCURVE",
"203 663 OFFCURVE",
"364 663 CURVE SMOOTH",
"525 663 OFFCURVE",
"614 545 OFFCURVE",
"614 346 CURVE SMOOTH",
"614 148 OFFCURVE",
"525 32 OFFCURVE",
"364 32 CURVE SMOOTH"
);
},
{
closed = 1;
nodes = (
"502 776 LINE",
"502 818 LINE",
"225 818 LINE",
"225 776 LINE"
);
}
);
width = 729;
}
);
note = Omacron;
unicode = 014C;
},
{
glyphname = Oslash;
lastChange = "2015-07-16 07:54:36 +0000";
layers = (
{
layerId = "0E118B91-E289-4192-A9B8-5E503DF06BFB";
name = Light;
paths = (
{
closed = 1;
nodes = (
"204 29 LINE",
"250 2 OFFCURVE",
"306 -11 OFFCURVE",
"369 -11 CURVE SMOOTH",
"557 -11 OFFCURVE",
"681 108 OFFCURVE",
"681 346 CURVE SMOOTH",
"681 472 OFFCURVE",
"647 565 OFFCURVE",
"587 625 CURVE",
"649 721 LINE",
"608 744 LINE",
"551 655 LINE",
"501 689 OFFCURVE",
"440 706 OFFCURVE",
"369 706 CURVE SMOOTH",
"181 706 OFFCURVE",
"58 585 OFFCURVE",
"58 346 CURVE SMOOTH",
"58 211 OFFCURVE",
"97 115 OFFCURVE",
"166 56 CURVE",
"92 -58 LINE",
"133 -81 LINE"
);
},
{
closed = 1;
nodes = (
"145 155 OFFCURVE",
"119 239 OFFCURVE",
"119 346 CURVE SMOOTH",
"119 545 OFFCURVE",
"208 663 OFFCURVE",
"369 663 CURVE SMOOTH",
"432 663 OFFCURVE",
"483 645 OFFCURVE",
"523 612 CURVE",
"195 102 LINE"
);
},
{
closed = 1;
nodes = (
"314 32 OFFCURVE",
"268 45 OFFCURVE",
"231 71 CURVE",
"556 577 LINE",
"597 522 OFFCURVE",
"619 444 OFFCURVE",
"619 346 CURVE SMOOTH",
"619 148 OFFCURVE",
"530 32 OFFCURVE",
"369 32 CURVE SMOOTH"
);
}
);
width = 740;
}
);
note = Oslash;
unicode = 00D8;
},
{
glyphname = Oslashacute;
lastChange = "2015-07-16 07:54:36 +0000";
layers = (
{
layerId = "0E118B91-E289-4192-A9B8-5E503DF06BFB";
name = Light;
paths = (
{
closed = 1;
nodes = (
"204 29 LINE",
"250 2 OFFCURVE",
"306 -11 OFFCURVE",
"369 -11 CURVE SMOOTH",
"557 -11 OFFCURVE",
"681 108 OFFCURVE",
"681 346 CURVE SMOOTH",
"681 472 OFFCURVE",
"647 565 OFFCURVE",
"587 625 CURVE",
"649 721 LINE",
"608 744 LINE",
"551 655 LINE",
"501 689 OFFCURVE",
"440 706 OFFCURVE",
"369 706 CURVE SMOOTH",
"181 706 OFFCURVE",
"58 585 OFFCURVE",
"58 346 CURVE SMOOTH",
"58 211 OFFCURVE",
"97 115 OFFCURVE",
"166 56 CURVE",
"92 -58 LINE",
"133 -81 LINE"
);
},
{
closed = 1;
nodes = (
"145 155 OFFCURVE",
"119 239 OFFCURVE",
"119 346 CURVE SMOOTH",
"119 545 OFFCURVE",
"208 663 OFFCURVE",
"369 663 CURVE SMOOTH",
"432 663 OFFCURVE",
"483 645 OFFCURVE",
"523 612 CURVE",
"195 102 LINE"
);
},
{
closed = 1;
nodes = (
"314 32 OFFCURVE",
"268 45 OFFCURVE",
"231 71 CURVE",
"556 577 LINE",
"597 522 OFFCURVE",
"619 444 OFFCURVE",
"619 346 CURVE SMOOTH",
"619 148 OFFCURVE",
"530 32 OFFCURVE",
"369 32 CURVE SMOOTH"
);
},
{
closed = 1;
nodes = (
"439 876 LINE",
"392 906 LINE",
"311 772 LINE",
"346 750 LINE"
);
}
);
width = 740;
}
);
note = Oslashacute;
unicode = 01FE;
},
{
glyphname = Otilde;
lastChange = "2015-07-16 07:54:35 +0000";
layers = (
{
layerId = "0E118B91-E289-4192-A9B8-5E503DF06BFB";
name = Light;
paths = (
{
closed = 1;
nodes = (
"552 -11 OFFCURVE",
"676 108 OFFCURVE",
"676 346 CURVE SMOOTH",
"676 585 OFFCURVE",
"552 706 OFFCURVE",
"364 706 CURVE SMOOTH",
"176 706 OFFCURVE",
"53 585 OFFCURVE",
"53 346 CURVE SMOOTH",
"53 108 OFFCURVE",
"176 -11 OFFCURVE",
"364 -11 CURVE SMOOTH"
);
},
{
closed = 1;
nodes = (
"203 32 OFFCURVE",
"114 148 OFFCURVE",
"114 346 CURVE SMOOTH",
"114 545 OFFCURVE",
"203 663 OFFCURVE",
"364 663 CURVE SMOOTH",
"525 663 OFFCURVE",
"614 545 OFFCURVE",
"614 346 CURVE SMOOTH",
"614 148 OFFCURVE",
"525 32 OFFCURVE",
"364 32 CURVE SMOOTH"
);
},
{
closed = 1;
nodes = (
"451 761 OFFCURVE",
"484 780 OFFCURVE",
"509 804 CURVE",
"487 833 LINE",
"465 817 OFFCURVE",
"444 806 OFFCURVE",
"420 806 CURVE SMOOTH",
"388 806 OFFCURVE",
"349 839 OFFCURVE",
"311 839 CURVE SMOOTH",
"281 839 OFFCURVE",
"246 819 OFFCURVE",
"221 796 CURVE",
"243 767 LINE",
"265 783 OFFCURVE",
"285 794 OFFCURVE",
"311 794 CURVE SMOOTH",
"350 794 OFFCURVE",
"380 761 OFFCURVE",
"421 761 CURVE SMOOTH"
);
}
);
width = 729;
}
);
note = Otilde;
unicode = 00D5;
},
{
glyphname = OE;
lastChange = "2015-07-16 07:54:35 +0000";
layers = (
{
layerId = "0E118B91-E289-4192-A9B8-5E503DF06BFB";
name = Light;
paths = (
{
closed = 1;
nodes = (
"438 -11 OFFCURVE",
"482 -7 OFFCURVE",
"517 0 CURVE",
"961 0 LINE",
"961 118 LINE SMOOTH",
"961 125 OFFCURVE",
"958 131 OFFCURVE",
"949 131 CURVE SMOOTH",
"937 131 OFFCURVE",
"929 121 OFFCURVE",
"926 98 CURVE SMOOTH",
"918 42 LINE",
"554 42 LINE",
"554 335 LINE",
"854 335 LINE",
"864 287 LINE SMOOTH",
"869 268 OFFCURVE",
"874 262 OFFCURVE",
"883 262 CURVE SMOOTH",
"891 262 OFFCURVE",
"895 266 OFFCURVE",
"895 273 CURVE SMOOTH",
"895 438 LINE SMOOTH",
"895 445 OFFCURVE",
"891 450 OFFCURVE",
"883 450 CURVE SMOOTH",
"874 450 OFFCURVE",
"869 443 OFFCURVE",
"864 424 CURVE SMOOTH",
"854 377 LINE",
"554 377 LINE",
"554 653 LINE",
"906 653 LINE",
"914 602 LINE SMOOTH",
"918 579 OFFCURVE",
"925 569 OFFCURVE",
"936 569 CURVE SMOOTH",
"945 569 OFFCURVE",
"948 574 OFFCURVE",
"948 581 CURVE SMOOTH",
"948 695 LINE",
"482 695 LINE",
"453 702 OFFCURVE",
"413 706 OFFCURVE",
"383 706 CURVE SMOOTH",
"193 706 OFFCURVE",
"53 584 OFFCURVE",
"53 347 CURVE SMOOTH",
"53 105 OFFCURVE",
"202 -11 OFFCURVE",
"403 -11 CURVE SMOOTH"
);
},
{
closed = 1;
nodes = (
"230 32 OFFCURVE",
"114 147 OFFCURVE",
"114 347 CURVE SMOOTH",
"114 552 OFFCURVE",
"226 663 OFFCURVE",
"394 663 CURVE SMOOTH",
"425 663 OFFCURVE",
"464 659 OFFCURVE",
"493 652 CURVE",
"493 41 LINE",
"464 35 OFFCURVE",
"431 32 OFFCURVE",
"400 32 CURVE SMOOTH"
);
}
);
width = 1034;
}
);
note = OE;
unicode = 0152;
},
{
glyphname = P;
lastChange = "2015-07-16 07:54:35 +0000";
layers = (
{
layerId = "0E118B91-E289-4192-A9B8-5E503DF06BFB";
name = Light;
paths = (
{
closed = 1;
nodes = (
"258 0 LINE SMOOTH",
"266 0 OFFCURVE",
"268 5 OFFCURVE",
"268 11 CURVE SMOOTH",
"268 21 OFFCURVE",
"262 28 OFFCURVE",
"243 31 CURVE SMOOTH",
"189 40 LINE",
"189 297 LINE",
"356 297 LINE SMOOTH",
"480 297 OFFCURVE",
"572 363 OFFCURVE",
"572 496 CURVE SMOOTH",
"572 629 OFFCURVE",
"480 695 OFFCURVE",
"356 695 CURVE SMOOTH",
"72 695 LINE SMOOTH",
"66 695 OFFCURVE",
"61 690 OFFCURVE",
"61 682 CURVE SMOOTH",
"61 668 OFFCURVE",
"72 661 OFFCURVE",
"91 658 CURVE SMOOTH",
"129 652 LINE",
"129 39 LINE",
"92 39 LINE SMOOTH",
"74 39 OFFCURVE",
"63 31 OFFCURVE",
"63 17 CURVE SMOOTH",
"63 7 OFFCURVE",
"68 0 OFFCURVE",
"76 0 CURVE SMOOTH"
);
},
{
closed = 1;
nodes = (
"189 652 LINE",
"355 652 LINE SMOOTH",
"458 652 OFFCURVE",
"510 587 OFFCURVE",
"510 496 CURVE SMOOTH",
"510 405 OFFCURVE",
"458 340 OFFCURVE",
"355 340 CURVE SMOOTH",
"189 340 LINE"
);
}
);
width = 604;
}
);
note = P;
unicode = 0050;
},
{
glyphname = Thorn;
lastChange = "2015-07-16 07:54:35 +0000";
layers = (
{
layerId = "0E118B91-E289-4192-A9B8-5E503DF06BFB";
name = Light;
paths = (
{
closed = 1;
nodes = (
"254 0 LINE SMOOTH",
"262 0 OFFCURVE",
"263 5 OFFCURVE",
"263 11 CURVE SMOOTH",
"263 21 OFFCURVE",
"257 28 OFFCURVE",
"241 31 CURVE SMOOTH",
"187 40 LINE",
"187 154 LINE",
"232 140 OFFCURVE",
"279 134 OFFCURVE",
"323 134 CURVE SMOOTH",
"472 134 OFFCURVE",
"578 207 OFFCURVE",
"578 352 CURVE SMOOTH",
"578 497 OFFCURVE",
"472 570 OFFCURVE",
"323 570 CURVE SMOOTH",
"279 570 OFFCURVE",
"232 564 OFFCURVE",
"187 550 CURVE",
"187 655 LINE",
"241 664 LINE SMOOTH",
"256 667 OFFCURVE",
"263 674 OFFCURVE",
"263 684 CURVE SMOOTH",
"263 690 OFFCURVE",
"262 695 OFFCURVE",
"254 695 CURVE SMOOTH",
"89 695 LINE SMOOTH",
"71 695 OFFCURVE",
"61 687 OFFCURVE",
"61 673 CURVE SMOOTH",
"61 663 OFFCURVE",
"66 656 OFFCURVE",
"74 656 CURVE SMOOTH",
"127 656 LINE",
"127 39 LINE",
"90 39 LINE SMOOTH",
"72 39 OFFCURVE",
"61 31 OFFCURVE",
"61 17 CURVE SMOOTH",
"61 7 OFFCURVE",
"66 0 OFFCURVE",
"74 0 CURVE SMOOTH"
);
},
{
closed = 1;
nodes = (
"282 176 OFFCURVE",
"241 181 OFFCURVE",
"187 198 CURVE",
"187 507 LINE",
"241 524 OFFCURVE",
"282 529 OFFCURVE",
"323 529 CURVE SMOOTH",
"433 529 OFFCURVE",
"517 475 OFFCURVE",
"517 352 CURVE SMOOTH",
"517 229 OFFCURVE",
"433 176 OFFCURVE",
"323 176 CURVE SMOOTH"
);
}
);
width = 636;
}
);
note = Thorn;
unicode = 00DE;
},
{
glyphname = Q;
lastChange = "2015-07-16 07:54:35 +0000";
layers = (
{
layerId = "0E118B91-E289-4192-A9B8-5E503DF06BFB";
name = Light;
paths = (
{
closed = 1;
nodes = (
"567 -156 OFFCURVE",
"579 -147 OFFCURVE",
"579 -130 CURVE SMOOTH",
"579 -116 OFFCURVE",
"569 -111 OFFCURVE",
"550 -105 CURVE SMOOTH",
"516 -95 OFFCURVE",
"485 -80 OFFCURVE",
"457 -61 CURVE SMOOTH",
"434 -46 OFFCURVE",
"413 -29 OFFCURVE",
"393 -10 CURVE",
"565 2 OFFCURVE",
"676 120 OFFCURVE",
"676 346 CURVE SMOOTH",
"676 585 OFFCURVE",
"552 706 OFFCURVE",
"364 706 CURVE SMOOTH",
"176 706 OFFCURVE",
"53 585 OFFCURVE",
"53 346 CURVE SMOOTH",
"53 118 OFFCURVE",
"166 -1 OFFCURVE",
"340 -10 CURVE",
"364 -40 OFFCURVE",
"391 -69 OFFCURVE",
"421 -94 CURVE SMOOTH",
"459 -125 OFFCURVE",
"509 -156 OFFCURVE",
"549 -156 CURVE SMOOTH"
);
},
{
closed = 1;
nodes = (
"203 32 OFFCURVE",
"114 148 OFFCURVE",
"114 346 CURVE SMOOTH",
"114 545 OFFCURVE",
"203 663 OFFCURVE",
"364 663 CURVE SMOOTH",
"525 663 OFFCURVE",
"614 545 OFFCURVE",
"614 346 CURVE SMOOTH",
"614 148 OFFCURVE",
"525 32 OFFCURVE",
"364 32 CURVE SMOOTH"
);
}
);
width = 729;
}
);
note = Q;
unicode = 0051;
},
{
glyphname = R;
lastChange = "2015-07-16 07:54:35 +0000";
layers = (
{
layerId = "0E118B91-E289-4192-A9B8-5E503DF06BFB";
name = Light;
paths = (
{
closed = 1;
nodes = (
"256 0 LINE SMOOTH",
"264 0 OFFCURVE",
"265 5 OFFCURVE",
"265 11 CURVE SMOOTH",
"265 21 OFFCURVE",
"259 28 OFFCURVE",
"243 31 CURVE SMOOTH",
"189 40 LINE",
"189 336 LINE",
"507 0 LINE",
"617 0 LINE SMOOTH",
"625 0 OFFCURVE",
"626 6 OFFCURVE",
"626 11 CURVE SMOOTH",
"626 22 OFFCURVE",
"618 29 OFFCURVE",
"604 31 CURVE SMOOTH",
"553 39 LINE",
"264 336 LINE",
"350 336 LINE SMOOTH",
"473 336 OFFCURVE",
"565 384 OFFCURVE",
"565 514 CURVE SMOOTH",
"565 645 OFFCURVE",
"473 695 OFFCURVE",
"350 695 CURVE SMOOTH",
"72 695 LINE SMOOTH",
"66 695 OFFCURVE",
"61 690 OFFCURVE",
"61 682 CURVE SMOOTH",
"61 668 OFFCURVE",
"73 663 OFFCURVE",
"91 660 CURVE SMOOTH",
"129 654 LINE",
"129 39 LINE",
"92 39 LINE SMOOTH",
"74 39 OFFCURVE",
"63 31 OFFCURVE",
"63 17 CURVE SMOOTH",
"63 7 OFFCURVE",
"68 0 OFFCURVE",
"76 0 CURVE SMOOTH"
);
},
{
closed = 1;
nodes = (
"189 654 LINE",
"349 654 LINE SMOOTH",
"452 654 OFFCURVE",
"503 602 OFFCURVE",
"503 514 CURVE SMOOTH",
"503 426 OFFCURVE",
"452 377 OFFCURVE",
"349 377 CURVE SMOOTH",
"189 377 LINE"
);
}
);
width = 649;
}
);
note = R;
unicode = 0052;
},
{
glyphname = Racute;
lastChange = "2015-07-16 07:54:36 +0000";
layers = (
{
layerId = "0E118B91-E289-4192-A9B8-5E503DF06BFB";
name = Light;
paths = (
{
closed = 1;
nodes = (
"256 0 LINE SMOOTH",
"264 0 OFFCURVE",
"265 5 OFFCURVE",
"265 11 CURVE SMOOTH",
"265 21 OFFCURVE",
"258 28 OFFCURVE",
"243 31 CURVE SMOOTH",
"189 40 LINE",
"189 336 LINE",
"507 0 LINE",
"617 0 LINE SMOOTH",
"625 0 OFFCURVE",
"626 6 OFFCURVE",
"626 11 CURVE SMOOTH",
"626 22 OFFCURVE",
"618 29 OFFCURVE",
"604 31 CURVE SMOOTH",
"553 39 LINE",
"264 336 LINE",
"350 336 LINE SMOOTH",
"473 336 OFFCURVE",
"565 384 OFFCURVE",
"565 514 CURVE SMOOTH",
"565 645 OFFCURVE",
"473 695 OFFCURVE",
"350 695 CURVE SMOOTH",
"72 695 LINE SMOOTH",
"66 695 OFFCURVE",
"61 690 OFFCURVE",
"61 682 CURVE SMOOTH",
"61 668 OFFCURVE",
"73 663 OFFCURVE",
"91 660 CURVE SMOOTH",
"129 654 LINE",
"129 39 LINE",
"92 39 LINE SMOOTH",
"74 39 OFFCURVE",
"63 31 OFFCURVE",
"63 17 CURVE SMOOTH",
"63 7 OFFCURVE",
"68 0 OFFCURVE",
"76 0 CURVE SMOOTH"
);
},
{
closed = 1;
nodes = (
"189 654 LINE",
"349 654 LINE SMOOTH",
"452 654 OFFCURVE",
"503 602 OFFCURVE",
"503 514 CURVE SMOOTH",
"503 426 OFFCURVE",
"452 377 OFFCURVE",
"349 377 CURVE SMOOTH",
"189 377 LINE"
);
},
{
closed = 1;
nodes = (
"398 877 LINE",
"351 907 LINE",
"270 773 LINE",
"305 751 LINE"
);
}
);
width = 649;
}
);
note = Racute;
unicode = 0154;
},
{
glyphname = Rcaron;
lastChange = "2015-07-16 07:54:36 +0000";
layers = (
{
layerId = "0E118B91-E289-4192-A9B8-5E503DF06BFB";
name = Light;
paths = (
{
closed = 1;
nodes = (
"256 0 LINE SMOOTH",
"264 0 OFFCURVE",
"265 5 OFFCURVE",
"265 11 CURVE SMOOTH",
"265 21 OFFCURVE",
"258 28 OFFCURVE",
"243 31 CURVE SMOOTH",
"189 40 LINE",
"189 336 LINE",
"507 0 LINE",
"617 0 LINE SMOOTH",
"625 0 OFFCURVE",
"626 6 OFFCURVE",
"626 11 CURVE SMOOTH",
"626 22 OFFCURVE",
"618 29 OFFCURVE",
"604 31 CURVE SMOOTH",
"553 39 LINE",
"264 336 LINE",
"350 336 LINE SMOOTH",
"473 336 OFFCURVE",
"565 384 OFFCURVE",
"565 514 CURVE SMOOTH",
"565 645 OFFCURVE",
"473 695 OFFCURVE",
"350 695 CURVE SMOOTH",
"72 695 LINE SMOOTH",
"66 695 OFFCURVE",
"61 690 OFFCURVE",
"61 682 CURVE SMOOTH",
"61 668 OFFCURVE",
"73 663 OFFCURVE",
"91 660 CURVE SMOOTH",
"129 654 LINE",
"129 39 LINE",
"92 39 LINE SMOOTH",
"74 39 OFFCURVE",
"63 31 OFFCURVE",
"63 17 CURVE SMOOTH",
"63 7 OFFCURVE",
"68 0 OFFCURVE",
"76 0 CURVE SMOOTH"
);
},
{
closed = 1;
nodes = (
"189 654 LINE",
"349 654 LINE SMOOTH",
"452 654 OFFCURVE",
"503 602 OFFCURVE",
"503 514 CURVE SMOOTH",
"503 426 OFFCURVE",
"452 377 OFFCURVE",
"349 377 CURVE SMOOTH",
"189 377 LINE"
);
},
{
closed = 1;
nodes = (
"322 750 LINE",
"423 878 LINE",
"393 901 LINE",
"304 806 LINE",
"215 901 LINE",
"185 878 LINE",
"287 750 LINE"
);
}
);
width = 649;
}
);
note = Rcaron;
unicode = 0158;
},
{
glyphname = Rcommaaccent;
lastChange = "2015-07-16 07:54:35 +0000";
layers = (
{
layerId = "0E118B91-E289-4192-A9B8-5E503DF06BFB";
name = Light;
paths = (
{
closed = 1;
nodes = (
"256 0 LINE SMOOTH",
"264 0 OFFCURVE",
"265 5 OFFCURVE",
"265 11 CURVE SMOOTH",
"265 21 OFFCURVE",
"258 28 OFFCURVE",
"243 31 CURVE SMOOTH",
"189 40 LINE",
"189 336 LINE",
"507 0 LINE",
"617 0 LINE SMOOTH",
"625 0 OFFCURVE",
"626 6 OFFCURVE",
"626 11 CURVE SMOOTH",
"626 22 OFFCURVE",
"618 29 OFFCURVE",
"604 31 CURVE SMOOTH",
"553 39 LINE",
"264 336 LINE",
"350 336 LINE SMOOTH",
"473 336 OFFCURVE",
"565 384 OFFCURVE",
"565 514 CURVE SMOOTH",
"565 645 OFFCURVE",
"473 695 OFFCURVE",
"350 695 CURVE SMOOTH",
"72 695 LINE SMOOTH",
"66 695 OFFCURVE",
"61 690 OFFCURVE",
"61 682 CURVE SMOOTH",
"61 668 OFFCURVE",
"73 663 OFFCURVE",
"91 660 CURVE SMOOTH",
"129 654 LINE",
"129 39 LINE",
"92 39 LINE SMOOTH",
"74 39 OFFCURVE",
"63 31 OFFCURVE",
"63 17 CURVE SMOOTH",
"63 7 OFFCURVE",
"68 0 OFFCURVE",
"76 0 CURVE SMOOTH"
);
},
{
closed = 1;
nodes = (
"343 -174 OFFCURVE",
"369 -115 OFFCURVE",
"383 -58 CURVE",
"319 -43 LINE SMOOTH",
"301 -39 OFFCURVE",
"288 -46 OFFCURVE",
"288 -62 CURVE SMOOTH",
"288 -68 OFFCURVE",
"292 -72 OFFCURVE",
"297 -74 CURVE",
"327 -84 LINE",
"323 -116 OFFCURVE",
"302 -166 OFFCURVE",
"278 -202 CURVE",
"306 -219 LINE"
);
},
{
closed = 1;
nodes = (
"189 654 LINE",
"349 654 LINE SMOOTH",
"452 654 OFFCURVE",
"503 602 OFFCURVE",
"503 514 CURVE SMOOTH",
"503 426 OFFCURVE",
"452 377 OFFCURVE",
"349 377 CURVE SMOOTH",
"189 377 LINE"
);
}
);
width = 649;
}
);
note = Rcommaaccent;
unicode = 0156;
},
{
glyphname = Rdotbelow;
lastChange = "2015-07-16 07:54:36 +0000";
layers = (
{
layerId = "0E118B91-E289-4192-A9B8-5E503DF06BFB";
name = Light;
paths = (
{
closed = 1;
nodes = (
"256 0 LINE SMOOTH",
"264 0 OFFCURVE",
"265 5 OFFCURVE",
"265 11 CURVE SMOOTH",
"265 21 OFFCURVE",
"258 27 OFFCURVE",
"243 31 CURVE SMOOTH",
"189 40 LINE",
"189 336 LINE",
"507 0 LINE",
"617 0 LINE SMOOTH",
"625 0 OFFCURVE",
"626 6 OFFCURVE",
"626 11 CURVE SMOOTH",
"626 22 OFFCURVE",
"618 27 OFFCURVE",
"604 31 CURVE SMOOTH",
"553 39 LINE",
"264 336 LINE",
"350 336 LINE SMOOTH",
"473 336 OFFCURVE",
"565 384 OFFCURVE",
"565 514 CURVE SMOOTH",
"565 645 OFFCURVE",
"473 695 OFFCURVE",
"350 695 CURVE SMOOTH",
"72 695 LINE SMOOTH",
"66 695 OFFCURVE",
"61 690 OFFCURVE",
"61 682 CURVE SMOOTH",
"61 668 OFFCURVE",
"73 664 OFFCURVE",
"91 660 CURVE SMOOTH",
"129 654 LINE",
"129 39 LINE",
"92 39 LINE SMOOTH",
"74 39 OFFCURVE",
"63 31 OFFCURVE",
"63 17 CURVE SMOOTH",
"63 7 OFFCURVE",
"68 0 OFFCURVE",
"76 0 CURVE SMOOTH"
);
},
{
closed = 1;
nodes = (
"354 -151 OFFCURVE",
"373 -133 OFFCURVE",
"373 -108 CURVE SMOOTH",
"373 -84 OFFCURVE",
"354 -65 OFFCURVE",
"330 -65 CURVE SMOOTH",
"306 -65 OFFCURVE",
"287 -84 OFFCURVE",
"287 -108 CURVE SMOOTH",
"287 -133 OFFCURVE",
"306 -151 OFFCURVE",
"330 -151 CURVE SMOOTH"
);
},
{
closed = 1;
nodes = (
"189 654 LINE",
"349 654 LINE SMOOTH",
"452 654 OFFCURVE",
"503 602 OFFCURVE",
"503 514 CURVE SMOOTH",
"503 426 OFFCURVE",
"452 377 OFFCURVE",
"349 377 CURVE SMOOTH",
"189 377 LINE"
);
}
);
width = 649;
}
);
note = Rdotbelow;
unicode = 1E5A;
},
{
glyphname = Rdotbelowmacron;
lastChange = "2015-07-16 07:54:36 +0000";
layers = (
{
layerId = "0E118B91-E289-4192-A9B8-5E503DF06BFB";
name = Light;
paths = (
{
closed = 1;
nodes = (
"256 0 LINE SMOOTH",
"264 0 OFFCURVE",
"265 5 OFFCURVE",
"265 11 CURVE SMOOTH",
"265 21 OFFCURVE",
"258 27 OFFCURVE",
"243 31 CURVE SMOOTH",
"189 40 LINE",
"189 336 LINE",
"507 0 LINE",
"617 0 LINE SMOOTH",
"625 0 OFFCURVE",
"626 6 OFFCURVE",
"626 11 CURVE SMOOTH",
"626 22 OFFCURVE",
"618 27 OFFCURVE",
"604 31 CURVE SMOOTH",
"553 39 LINE",
"264 336 LINE",
"350 336 LINE SMOOTH",
"473 336 OFFCURVE",
"565 384 OFFCURVE",
"565 514 CURVE SMOOTH",
"565 645 OFFCURVE",
"473 695 OFFCURVE",
"350 695 CURVE SMOOTH",
"72 695 LINE SMOOTH",
"66 695 OFFCURVE",
"61 690 OFFCURVE",
"61 682 CURVE SMOOTH",
"61 668 OFFCURVE",
"73 664 OFFCURVE",
"91 660 CURVE SMOOTH",
"129 654 LINE",
"129 39 LINE",
"92 39 LINE SMOOTH",
"74 39 OFFCURVE",
"63 31 OFFCURVE",
"63 17 CURVE SMOOTH",
"63 7 OFFCURVE",
"68 0 OFFCURVE",
"76 0 CURVE SMOOTH"
);
},
{
closed = 1;
nodes = (
"354 -151 OFFCURVE",
"373 -133 OFFCURVE",
"373 -108 CURVE SMOOTH",
"373 -84 OFFCURVE",
"354 -65 OFFCURVE",
"330 -65 CURVE SMOOTH",
"306 -65 OFFCURVE",
"287 -84 OFFCURVE",
"287 -108 CURVE SMOOTH",
"287 -133 OFFCURVE",
"306 -151 OFFCURVE",
"330 -151 CURVE SMOOTH"
);
},
{
closed = 1;
nodes = (
"189 654 LINE",
"349 654 LINE SMOOTH",
"452 654 OFFCURVE",
"503 602 OFFCURVE",
"503 514 CURVE SMOOTH",
"503 426 OFFCURVE",
"452 377 OFFCURVE",
"349 377 CURVE SMOOTH",
"189 377 LINE"
);
},
{
closed = 1;
nodes = (
"453 776 LINE",
"453 818 LINE",
"176 818 LINE",
"176 776 LINE"
);
}
);
width = 649;
}
);
note = Rdotbelowmacron;
unicode = 1E5C;
},
{
glyphname = Rlinebelow;
lastChange = "2015-07-16 07:54:36 +0000";
layers = (
{
layerId = "0E118B91-E289-4192-A9B8-5E503DF06BFB";
name = Light;
paths = (
{
closed = 1;
nodes = (
"256 0 LINE SMOOTH",
"264 0 OFFCURVE",
"265 5 OFFCURVE",
"265 11 CURVE SMOOTH",
"265 21 OFFCURVE",
"258 27 OFFCURVE",
"243 31 CURVE SMOOTH",
"189 40 LINE",
"189 336 LINE",
"507 0 LINE",
"617 0 LINE SMOOTH",
"625 0 OFFCURVE",
"626 6 OFFCURVE",
"626 11 CURVE SMOOTH",
"626 22 OFFCURVE",
"618 27 OFFCURVE",
"604 31 CURVE SMOOTH",
"553 39 LINE",
"264 336 LINE",
"350 336 LINE SMOOTH",
"473 336 OFFCURVE",
"565 384 OFFCURVE",
"565 514 CURVE SMOOTH",
"565 645 OFFCURVE",
"473 695 OFFCURVE",
"350 695 CURVE SMOOTH",
"72 695 LINE SMOOTH",
"66 695 OFFCURVE",
"61 690 OFFCURVE",
"61 682 CURVE SMOOTH",
"61 668 OFFCURVE",
"73 664 OFFCURVE",
"91 660 CURVE SMOOTH",
"129 654 LINE",
"129 39 LINE",
"92 39 LINE SMOOTH",
"74 39 OFFCURVE",
"63 31 OFFCURVE",
"63 17 CURVE SMOOTH",
"63 7 OFFCURVE",
"68 0 OFFCURVE",
"76 0 CURVE SMOOTH"
);
},
{
closed = 1;
nodes = (
"523 -129 LINE",
"523 -88 LINE",
"156 -88 LINE",
"156 -129 LINE"
);
},
{
closed = 1;
nodes = (
"189 654 LINE",
"349 654 LINE SMOOTH",
"452 654 OFFCURVE",
"503 602 OFFCURVE",
"503 514 CURVE SMOOTH",
"503 426 OFFCURVE",
"452 377 OFFCURVE",
"349 377 CURVE SMOOTH",
"189 377 LINE"
);
}
);
width = 649;
}
);
note = Rlinebelow;
unicode = 1E5E;
},
{
glyphname = S;
lastChange = "2015-07-16 07:54:35 +0000";
layers = (
{
layerId = "0E118B91-E289-4192-A9B8-5E503DF06BFB";
name = Light;
paths = (
{
closed = 1;
nodes = (
"423 -11 OFFCURVE",
"538 37 OFFCURVE",
"538 163 CURVE SMOOTH",
"538 274 OFFCURVE",
"463 321 OFFCURVE",
"326 376 CURVE SMOOTH",
"197 428 OFFCURVE",
"120 459 OFFCURVE",
"120 545 CURVE SMOOTH",
"120 630 OFFCURVE",
"200 663 OFFCURVE",
"287 663 CURVE SMOOTH",
"349 663 OFFCURVE",
"414 647 OFFCURVE",
"457 613 CURVE",
"468 548 LINE SMOOTH",
"472 523 OFFCURVE",
"479 515 OFFCURVE",
"492 515 CURVE SMOOTH",
"500 515 OFFCURVE",
"504 520 OFFCURVE",
"504 527 CURVE SMOOTH",
"504 635 LINE",
"453 679 OFFCURVE",
"365 706 OFFCURVE",
"285 706 CURVE SMOOTH",
"172 706 OFFCURVE",
"58 661 OFFCURVE",
"58 536 CURVE SMOOTH",
"58 435 OFFCURVE",
"146 382 OFFCURVE",
"268 334 CURVE SMOOTH",
"414 277 OFFCURVE",
"477 245 OFFCURVE",
"477 158 CURVE SMOOTH",
"477 62 OFFCURVE",
"380 32 OFFCURVE",
"289 32 CURVE SMOOTH",
"231 32 OFFCURVE",
"149 46 OFFCURVE",
"103 82 CURVE",
"91 148 LINE SMOOTH",
"86 172 OFFCURVE",
"80 181 OFFCURVE",
"67 181 CURVE SMOOTH",
"59 181 OFFCURVE",
"55 175 OFFCURVE",
"55 169 CURVE SMOOTH",
"55 57 LINE",
"112 11 OFFCURVE",
"221 -11 OFFCURVE",
"292 -11 CURVE SMOOTH"
);
}
);
width = 593;
}
);
note = S;
unicode = 0053;
},
{
glyphname = Sacute;
lastChange = "2015-07-16 07:54:36 +0000";
layers = (
{
layerId = "0E118B91-E289-4192-A9B8-5E503DF06BFB";
name = Light;
paths = (
{
closed = 1;
nodes = (
"423 -11 OFFCURVE",
"538 37 OFFCURVE",
"538 163 CURVE SMOOTH",
"538 274 OFFCURVE",
"463 321 OFFCURVE",
"326 376 CURVE SMOOTH",
"197 428 OFFCURVE",
"120 459 OFFCURVE",
"120 545 CURVE SMOOTH",
"120 630 OFFCURVE",
"200 663 OFFCURVE",
"287 663 CURVE SMOOTH",
"349 663 OFFCURVE",
"414 647 OFFCURVE",
"457 613 CURVE",
"468 548 LINE SMOOTH",
"472 523 OFFCURVE",
"479 515 OFFCURVE",
"492 515 CURVE SMOOTH",
"500 515 OFFCURVE",
"504 520 OFFCURVE",
"504 527 CURVE SMOOTH",
"504 635 LINE",
"453 679 OFFCURVE",
"365 706 OFFCURVE",
"285 706 CURVE SMOOTH",
"172 706 OFFCURVE",
"58 661 OFFCURVE",
"58 536 CURVE SMOOTH",
"58 435 OFFCURVE",
"146 382 OFFCURVE",
"268 334 CURVE SMOOTH",
"414 277 OFFCURVE",
"477 245 OFFCURVE",
"477 158 CURVE SMOOTH",
"477 62 OFFCURVE",
"380 32 OFFCURVE",
"289 32 CURVE SMOOTH",
"231 32 OFFCURVE",
"149 46 OFFCURVE",
"103 82 CURVE",
"91 148 LINE SMOOTH",
"86 172 OFFCURVE",
"80 181 OFFCURVE",
"67 181 CURVE SMOOTH",
"59 181 OFFCURVE",
"55 175 OFFCURVE",
"55 169 CURVE SMOOTH",
"55 57 LINE",
"112 11 OFFCURVE",
"221 -11 OFFCURVE",
"292 -11 CURVE SMOOTH"
);
},
{
closed = 1;
nodes = (
"357 876 LINE",
"310 906 LINE",
"229 772 LINE",
"264 750 LINE"
);
}
);
width = 593;
}
);
note = Sacute;
unicode = 015A;
},
{
glyphname = Scaron;
lastChange = "2015-07-16 07:54:36 +0000";
layers = (
{
layerId = "0E118B91-E289-4192-A9B8-5E503DF06BFB";
name = Light;
paths = (
{
closed = 1;
nodes = (
"423 -11 OFFCURVE",
"538 37 OFFCURVE",
"538 163 CURVE SMOOTH",
"538 274 OFFCURVE",
"463 321 OFFCURVE",
"326 376 CURVE SMOOTH",
"197 428 OFFCURVE",
"120 459 OFFCURVE",
"120 545 CURVE SMOOTH",
"120 630 OFFCURVE",
"200 663 OFFCURVE",
"287 663 CURVE SMOOTH",
"349 663 OFFCURVE",
"414 647 OFFCURVE",
"457 613 CURVE",
"468 548 LINE SMOOTH",
"472 523 OFFCURVE",
"479 515 OFFCURVE",
"492 515 CURVE SMOOTH",
"500 515 OFFCURVE",
"504 520 OFFCURVE",
"504 527 CURVE SMOOTH",
"504 635 LINE",
"453 679 OFFCURVE",
"365 706 OFFCURVE",
"285 706 CURVE SMOOTH",
"172 706 OFFCURVE",
"58 661 OFFCURVE",
"58 536 CURVE SMOOTH",
"58 435 OFFCURVE",
"146 382 OFFCURVE",
"268 334 CURVE SMOOTH",
"414 277 OFFCURVE",
"477 245 OFFCURVE",
"477 158 CURVE SMOOTH",
"477 62 OFFCURVE",
"380 32 OFFCURVE",
"289 32 CURVE SMOOTH",
"231 32 OFFCURVE",
"149 46 OFFCURVE",
"103 82 CURVE",
"91 148 LINE SMOOTH",
"86 172 OFFCURVE",
"80 181 OFFCURVE",
"67 181 CURVE SMOOTH",
"59 181 OFFCURVE",
"55 175 OFFCURVE",
"55 169 CURVE SMOOTH",
"55 57 LINE",
"112 11 OFFCURVE",
"221 -11 OFFCURVE",
"292 -11 CURVE SMOOTH"
);
},
{
closed = 1;
nodes = (
"305 750 LINE",
"406 878 LINE",
"376 901 LINE",
"287 806 LINE",
"198 901 LINE",
"168 878 LINE",
"270 750 LINE"
);
}
);
width = 593;
}
);
note = Scaron;
unicode = 0160;
},
{
glyphname = Scedilla;
lastChange = "2015-07-16 07:54:35 +0000";
layers = (
{
layerId = "0E118B91-E289-4192-A9B8-5E503DF06BFB";
name = Light;
paths = (
{
closed = 1;
nodes = (
"291 -195 OFFCURVE",
"342 -160 OFFCURVE",
"342 -115 CURVE SMOOTH",
"342 -76 OFFCURVE",
"318 -58 OFFCURVE",
"293 -47 CURVE",
"310 -11 LINE",
"433 -6 OFFCURVE",
"538 43 OFFCURVE",
"538 163 CURVE SMOOTH",
"538 274 OFFCURVE",
"463 321 OFFCURVE",
"326 376 CURVE SMOOTH",
"197 428 OFFCURVE",
"120 459 OFFCURVE",
"120 545 CURVE SMOOTH",
"120 630 OFFCURVE",
"200 663 OFFCURVE",
"287 663 CURVE SMOOTH",
"349 663 OFFCURVE",
"414 647 OFFCURVE",
"457 613 CURVE",
"468 548 LINE SMOOTH",
"472 523 OFFCURVE",
"479 515 OFFCURVE",
"492 515 CURVE SMOOTH",
"500 515 OFFCURVE",
"504 520 OFFCURVE",
"504 527 CURVE SMOOTH",
"504 635 LINE",
"453 679 OFFCURVE",
"365 706 OFFCURVE",
"285 706 CURVE SMOOTH",
"172 706 OFFCURVE",
"58 661 OFFCURVE",
"58 536 CURVE SMOOTH",
"58 435 OFFCURVE",
"146 382 OFFCURVE",
"268 334 CURVE SMOOTH",
"414 277 OFFCURVE",
"477 245 OFFCURVE",
"477 158 CURVE SMOOTH",
"477 62 OFFCURVE",
"380 32 OFFCURVE",
"289 32 CURVE SMOOTH",
"231 32 OFFCURVE",
"149 46 OFFCURVE",
"103 82 CURVE",
"91 148 LINE SMOOTH",
"86 172 OFFCURVE",
"80 181 OFFCURVE",
"67 181 CURVE SMOOTH",
"59 181 OFFCURVE",
"55 175 OFFCURVE",
"55 169 CURVE SMOOTH",
"55 57 LINE",
"106 16 OFFCURVE",
"198 -6 OFFCURVE",
"268 -10 CURVE",
"250 -59 LINE",
"285 -70 OFFCURVE",
"297 -87 OFFCURVE",
"297 -114 CURVE SMOOTH",
"297 -142 OFFCURVE",
"274 -168 OFFCURVE",
"228 -183 CURVE",
"238 -208 LINE"
);
}
);
width = 593;
}
);
note = Scedilla;
unicode = 015E;
},
{
glyphname = Scircumflex;
lastChange = "2015-07-16 07:54:36 +0000";
layers = (
{
layerId = "0E118B91-E289-4192-A9B8-5E503DF06BFB";
name = Light;
paths = (
{
closed = 1;
nodes = (
"423 -11 OFFCURVE",
"538 37 OFFCURVE",
"538 163 CURVE SMOOTH",
"538 274 OFFCURVE",
"463 321 OFFCURVE",
"326 376 CURVE SMOOTH",
"197 428 OFFCURVE",
"120 459 OFFCURVE",
"120 545 CURVE SMOOTH",
"120 630 OFFCURVE",
"200 663 OFFCURVE",
"287 663 CURVE SMOOTH",
"349 663 OFFCURVE",
"414 647 OFFCURVE",
"457 613 CURVE",
"468 548 LINE SMOOTH",
"472 523 OFFCURVE",
"479 515 OFFCURVE",
"492 515 CURVE SMOOTH",
"500 515 OFFCURVE",
"504 520 OFFCURVE",
"504 527 CURVE SMOOTH",
"504 635 LINE",
"453 679 OFFCURVE",
"365 706 OFFCURVE",
"285 706 CURVE SMOOTH",
"172 706 OFFCURVE",
"58 661 OFFCURVE",
"58 536 CURVE SMOOTH",
"58 435 OFFCURVE",
"146 382 OFFCURVE",
"268 334 CURVE SMOOTH",
"414 277 OFFCURVE",
"477 245 OFFCURVE",
"477 158 CURVE SMOOTH",
"477 62 OFFCURVE",
"380 32 OFFCURVE",
"289 32 CURVE SMOOTH",
"231 32 OFFCURVE",
"149 46 OFFCURVE",
"103 82 CURVE",
"91 148 LINE SMOOTH",
"86 172 OFFCURVE",
"80 181 OFFCURVE",
"67 181 CURVE SMOOTH",
"59 181 OFFCURVE",
"55 175 OFFCURVE",
"55 169 CURVE SMOOTH",
"55 57 LINE",
"112 11 OFFCURVE",
"221 -11 OFFCURVE",
"292 -11 CURVE SMOOTH"
);
},
{
closed = 1;
nodes = (
"282 846 LINE",
"371 750 LINE",
"401 773 LINE",
"300 901 LINE",
"265 901 LINE",
"163 773 LINE",
"193 750 LINE"
);
}
);
width = 593;
}
);
note = Scircumflex;
unicode = 015C;
},
{
glyphname = Scommaaccent;
lastChange = "2015-07-16 07:54:36 +0000";
layers = (
{
layerId = "0E118B91-E289-4192-A9B8-5E503DF06BFB";
name = Light;
paths = (
{
closed = 1;
nodes = (
"423 -11 OFFCURVE",
"538 37 OFFCURVE",
"538 163 CURVE SMOOTH",
"538 274 OFFCURVE",
"463 321 OFFCURVE",
"326 376 CURVE SMOOTH",
"197 428 OFFCURVE",
"120 459 OFFCURVE",
"120 545 CURVE SMOOTH",
"120 630 OFFCURVE",
"200 663 OFFCURVE",
"287 663 CURVE SMOOTH",
"349 663 OFFCURVE",
"414 647 OFFCURVE",
"457 613 CURVE",
"468 548 LINE SMOOTH",
"472 523 OFFCURVE",
"479 515 OFFCURVE",
"492 515 CURVE SMOOTH",
"500 515 OFFCURVE",
"504 520 OFFCURVE",
"504 527 CURVE SMOOTH",
"504 635 LINE",
"453 679 OFFCURVE",
"365 706 OFFCURVE",
"285 706 CURVE SMOOTH",
"172 706 OFFCURVE",
"58 661 OFFCURVE",
"58 536 CURVE SMOOTH",
"58 435 OFFCURVE",
"146 382 OFFCURVE",
"268 334 CURVE SMOOTH",
"414 277 OFFCURVE",
"477 245 OFFCURVE",
"477 158 CURVE SMOOTH",
"477 62 OFFCURVE",
"380 32 OFFCURVE",
"289 32 CURVE SMOOTH",
"231 32 OFFCURVE",
"149 46 OFFCURVE",
"103 82 CURVE",
"91 148 LINE SMOOTH",
"86 172 OFFCURVE",
"80 181 OFFCURVE",
"67 181 CURVE SMOOTH",
"59 181 OFFCURVE",
"55 175 OFFCURVE",
"55 169 CURVE SMOOTH",
"55 57 LINE",
"112 11 OFFCURVE",
"221 -11 OFFCURVE",
"292 -11 CURVE SMOOTH"
);
},
{
closed = 1;
nodes = (
"305 -174 OFFCURVE",
"331 -115 OFFCURVE",
"345 -58 CURVE",
"281 -43 LINE SMOOTH",
"263 -39 OFFCURVE",
"250 -46 OFFCURVE",
"250 -62 CURVE SMOOTH",
"250 -68 OFFCURVE",
"254 -72 OFFCURVE",
"259 -74 CURVE",
"289 -84 LINE",
"285 -116 OFFCURVE",
"264 -166 OFFCURVE",
"240 -202 CURVE",
"268 -219 LINE"
);
}
);
width = 593;
}
);
note = Scommaaccent;
unicode = 0218;
},
{
glyphname = Sdotaccent;
lastChange = "2015-07-16 07:54:35 +0000";
layers = (
{
layerId = "0E118B91-E289-4192-A9B8-5E503DF06BFB";
name = Light;
paths = (
{
closed = 1;
nodes = (
"423 -11 OFFCURVE",
"538 37 OFFCURVE",
"538 163 CURVE SMOOTH",
"538 274 OFFCURVE",
"463 321 OFFCURVE",
"326 376 CURVE SMOOTH",
"197 428 OFFCURVE",
"120 459 OFFCURVE",
"120 545 CURVE SMOOTH",
"120 630 OFFCURVE",
"200 663 OFFCURVE",
"287 663 CURVE SMOOTH",
"349 663 OFFCURVE",
"414 647 OFFCURVE",
"457 613 CURVE",
"468 548 LINE",
"474 523 OFFCURVE",
"479 515 OFFCURVE",
"492 515 CURVE SMOOTH",
"500 515 OFFCURVE",
"504 520 OFFCURVE",
"504 527 CURVE SMOOTH",
"504 635 LINE",
"453 679 OFFCURVE",
"365 706 OFFCURVE",
"285 706 CURVE SMOOTH",
"172 706 OFFCURVE",
"58 661 OFFCURVE",
"58 536 CURVE SMOOTH",
"58 435 OFFCURVE",
"146 382 OFFCURVE",
"268 334 CURVE SMOOTH",
"414 277 OFFCURVE",
"477 245 OFFCURVE",
"477 158 CURVE SMOOTH",
"477 62 OFFCURVE",
"380 32 OFFCURVE",
"289 32 CURVE SMOOTH",
"231 32 OFFCURVE",
"149 46 OFFCURVE",
"103 82 CURVE",
"91 148 LINE SMOOTH",
"86 172 OFFCURVE",
"80 181 OFFCURVE",
"67 181 CURVE SMOOTH",
"59 181 OFFCURVE",
"55 175 OFFCURVE",
"55 169 CURVE SMOOTH",
"55 57 LINE",
"112 11 OFFCURVE",
"221 -11 OFFCURVE",
"292 -11 CURVE SMOOTH"
);
},
{
closed = 1;
nodes = (
"311 767 OFFCURVE",
"330 785 OFFCURVE",
"330 810 CURVE SMOOTH",
"330 834 OFFCURVE",
"311 853 OFFCURVE",
"287 853 CURVE SMOOTH",
"263 853 OFFCURVE",
"244 834 OFFCURVE",
"244 810 CURVE SMOOTH",
"244 785 OFFCURVE",
"263 767 OFFCURVE",
"287 767 CURVE SMOOTH"
);
}
);
width = 593;
}
);
note = Sdotaccent;
unicode = 1E60;
},
{
glyphname = Sdotbelow;
lastChange = "2015-07-16 07:54:35 +0000";
layers = (
{
layerId = "0E118B91-E289-4192-A9B8-5E503DF06BFB";
name = Light;
paths = (
{
closed = 1;
nodes = (
"423 -11 OFFCURVE",
"538 37 OFFCURVE",
"538 163 CURVE SMOOTH",
"538 274 OFFCURVE",
"463 321 OFFCURVE",
"326 376 CURVE SMOOTH",
"197 428 OFFCURVE",
"120 459 OFFCURVE",
"120 545 CURVE SMOOTH",
"120 630 OFFCURVE",
"200 663 OFFCURVE",
"287 663 CURVE SMOOTH",
"349 663 OFFCURVE",
"414 647 OFFCURVE",
"457 613 CURVE",
"468 548 LINE",
"474 523 OFFCURVE",
"479 515 OFFCURVE",
"492 515 CURVE SMOOTH",
"500 515 OFFCURVE",
"504 520 OFFCURVE",
"504 527 CURVE SMOOTH",
"504 635 LINE",
"453 679 OFFCURVE",
"365 706 OFFCURVE",
"285 706 CURVE SMOOTH",
"172 706 OFFCURVE",
"58 661 OFFCURVE",
"58 536 CURVE SMOOTH",
"58 435 OFFCURVE",
"146 382 OFFCURVE",
"268 334 CURVE SMOOTH",
"414 277 OFFCURVE",
"477 245 OFFCURVE",
"477 158 CURVE SMOOTH",
"477 62 OFFCURVE",
"380 32 OFFCURVE",
"289 32 CURVE SMOOTH",
"231 32 OFFCURVE",
"149 46 OFFCURVE",
"103 82 CURVE",
"91 148 LINE SMOOTH",
"86 172 OFFCURVE",
"80 181 OFFCURVE",
"67 181 CURVE SMOOTH",
"59 181 OFFCURVE",
"55 175 OFFCURVE",
"55 169 CURVE SMOOTH",
"55 57 LINE",
"112 11 OFFCURVE",
"221 -11 OFFCURVE",
"292 -11 CURVE SMOOTH"
);
},
{
closed = 1;
nodes = (
"315 -151 OFFCURVE",
"334 -133 OFFCURVE",
"334 -108 CURVE SMOOTH",
"334 -84 OFFCURVE",
"315 -65 OFFCURVE",
"291 -65 CURVE SMOOTH",
"267 -65 OFFCURVE",
"248 -84 OFFCURVE",
"248 -108 CURVE SMOOTH",
"248 -133 OFFCURVE",
"267 -151 OFFCURVE",
"291 -151 CURVE SMOOTH"
);
}
);
width = 593;
}
);
note = Sdotbelow;
unicode = 1E62;
},
{
glyphname = uni1E9E;
lastChange = "2015-07-16 07:54:36 +0000";
layers = (
{
layerId = "0E118B91-E289-4192-A9B8-5E503DF06BFB";
name = Light;
paths = (
{
closed = 1;
nodes = (
"519 -11 OFFCURVE",
"584 71 OFFCURVE",
"584 175 CURVE SMOOTH",
"584 281 OFFCURVE",
"530 365 OFFCURVE",
"396 365 CURVE SMOOTH",
"383 365 LINE",
"509 534 LINE",
"502 616 OFFCURVE",
"421 676 OFFCURVE",
"317 676 CURVE SMOOTH",
"192 676 OFFCURVE",
"118 605 OFFCURVE",
"118 482 CURVE SMOOTH",
"118 38 LINE",
"82 38 LINE SMOOTH",
"66 38 OFFCURVE",
"54 32 OFFCURVE",
"54 17 CURVE SMOOTH",
"54 6 OFFCURVE",
"59 0 OFFCURVE",
"67 0 CURVE SMOOTH",
"175 0 LINE",
"175 480 LINE SMOOTH",
"175 576 OFFCURVE",
"218 633 OFFCURVE",
"317 633 CURVE SMOOTH",
"392 633 OFFCURVE",
"456 593 OFFCURVE",
"456 538 CURVE",
"333 371 LINE",
"333 324 LINE",
"389 324 LINE SMOOTH",
"488 324 OFFCURVE",
"526 256 OFFCURVE",
"526 174 CURVE SMOOTH",
"526 91 OFFCURVE",
"476 31 OFFCURVE",
"398 31 CURVE SMOOTH",
"360 31 OFFCURVE",
"325 38 OFFCURVE",
"299 52 CURVE",
"291 96 LINE SMOOTH",
"288 113 OFFCURVE",
"283 121 OFFCURVE",
"272 121 CURVE SMOOTH",
"264 121 OFFCURVE",
"260 116 OFFCURVE",
"260 110 CURVE SMOOTH",
"260 26 LINE",
"296 2 OFFCURVE",
"350 -11 OFFCURVE",
"406 -11 CURVE SMOOTH"
);
}
);
width = 642;
}
);
note = uni1E9E;
unicode = 1E9E;
},
{
glyphname = uni018F;
lastChange = "2015-07-16 07:54:35 +0000";
layers = (
{
layerId = "0E118B91-E289-4192-A9B8-5E503DF06BFB";
name = Light;
paths = (
{
closed = 1;
nodes = (
"530 -11 OFFCURVE",
"644 133 OFFCURVE",
"644 350 CURVE SMOOTH",
"644 566 OFFCURVE",
"525 706 OFFCURVE",
"338 706 CURVE SMOOTH",
"264 706 OFFCURVE",
"199 689 OFFCURVE",
"135 653 CURVE SMOOTH",
"109 639 OFFCURVE",
"95 629 OFFCURVE",
"95 614 CURVE SMOOTH",
"95 600 OFFCURVE",
"105 593 OFFCURVE",
"115 593 CURVE SMOOTH",
"122 593 OFFCURVE",
"130 597 OFFCURVE",
"141 604 CURVE SMOOTH",
"201 641 OFFCURVE",
"265 663 OFFCURVE",
"337 663 CURVE SMOOTH",
"476 663 OFFCURVE",
"581 551 OFFCURVE",
"583 352 CURVE",
"70 352 LINE",
"61 333 OFFCURVE",
"53 298 OFFCURVE",
"53 274 CURVE SMOOTH",
"53 102 OFFCURVE",
"160 -11 OFFCURVE",
"335 -11 CURVE SMOOTH"
);
},
{
closed = 1;
nodes = (
"207 32 OFFCURVE",
"114 116 OFFCURVE",
"114 270 CURVE SMOOTH",
"114 283 OFFCURVE",
"115 300 OFFCURVE",
"119 309 CURVE",
"582 309 LINE",
"571 137 OFFCURVE",
"481 32 OFFCURVE",
"336 32 CURVE SMOOTH"
);
}
);
width = 697;
}
);
note = uni018F;
unicode = 018F;
},
{
glyphname = T;
lastChange = "2015-07-16 07:54:35 +0000";
layers = (
{
layerId = "0E118B91-E289-4192-A9B8-5E503DF06BFB";
name = Light;
paths = (
{
closed = 1;
nodes = (
"387 0 LINE SMOOTH",
"395 0 OFFCURVE",
"396 5 OFFCURVE",
"396 11 CURVE SMOOTH",
"396 21 OFFCURVE",
"390 28 OFFCURVE",
"374 31 CURVE SMOOTH",
"320 40 LINE",
"320 652 LINE",
"500 652 LINE",
"509 597 LINE SMOOTH",
"512 577 OFFCURVE",
"519 567 OFFCURVE",
"531 567 CURVE SMOOTH",
"539 567 OFFCURVE",
"545 571 OFFCURVE",
"545 580 CURVE SMOOTH",
"545 695 LINE",
"36 695 LINE",
"36 580 LINE SMOOTH",
"36 571 OFFCURVE",
"41 567 OFFCURVE",
"49 567 CURVE SMOOTH",
"62 567 OFFCURVE",
"67 577 OFFCURVE",
"71 597 CURVE SMOOTH",
"81 652 LINE",
"260 652 LINE",
"260 39 LINE",
"223 39 LINE SMOOTH",
"205 39 OFFCURVE",
"194 31 OFFCURVE",
"194 17 CURVE SMOOTH",
"194 7 OFFCURVE",
"199 0 OFFCURVE",
"207 0 CURVE SMOOTH"
);
}
);
width = 581;
}
);
note = T;
unicode = 0054;
},
{
glyphname = Tbar;
lastChange = "2015-07-16 07:54:36 +0000";
layers = (
{
layerId = "0E118B91-E289-4192-A9B8-5E503DF06BFB";
name = Light;
paths = (
{
closed = 1;
nodes = (
"390 0 LINE SMOOTH",
"398 0 OFFCURVE",
"399 5 OFFCURVE",
"399 11 CURVE SMOOTH",
"399 21 OFFCURVE",
"392 28 OFFCURVE",
"377 31 CURVE SMOOTH",
"323 40 LINE",
"323 349 LINE",
"475 349 LINE",
"475 394 LINE",
"323 394 LINE",
"323 652 LINE",
"503 652 LINE",
"512 597 LINE SMOOTH",
"516 576 OFFCURVE",
"522 566 OFFCURVE",
"534 566 CURVE SMOOTH",
"542 566 OFFCURVE",
"548 570 OFFCURVE",
"548 579 CURVE SMOOTH",
"548 695 LINE",
"39 695 LINE",
"39 579 LINE SMOOTH",
"39 570 OFFCURVE",
"44 566 OFFCURVE",
"52 566 CURVE SMOOTH",
"65 566 OFFCURVE",
"70 576 OFFCURVE",
"74 597 CURVE SMOOTH",
"84 652 LINE",
"263 652 LINE",
"263 394 LINE",
"114 394 LINE",
"114 349 LINE",
"263 349 LINE",
"263 39 LINE",
"226 39 LINE SMOOTH",
"208 39 OFFCURVE",
"197 31 OFFCURVE",
"197 17 CURVE SMOOTH",
"197 7 OFFCURVE",
"202 0 OFFCURVE",
"210 0 CURVE SMOOTH"
);
}
);
width = 587;
}
);
note = Tbar;
unicode = 0166;
},
{
glyphname = Tcaron;
lastChange = "2015-07-16 07:54:35 +0000";
layers = (
{
layerId = "0E118B91-E289-4192-A9B8-5E503DF06BFB";
name = Light;
paths = (
{
closed = 1;
nodes = (
"387 0 LINE SMOOTH",
"395 0 OFFCURVE",
"396 5 OFFCURVE",
"396 11 CURVE SMOOTH",
"396 21 OFFCURVE",
"391 28 OFFCURVE",
"374 31 CURVE SMOOTH",
"320 40 LINE",
"320 652 LINE",
"500 652 LINE",
"509 597 LINE SMOOTH",
"513 576 OFFCURVE",
"519 566 OFFCURVE",
"531 566 CURVE SMOOTH",
"539 566 OFFCURVE",
"545 570 OFFCURVE",
"545 579 CURVE SMOOTH",
"545 695 LINE",
"36 695 LINE",
"36 579 LINE SMOOTH",
"36 570 OFFCURVE",
"41 566 OFFCURVE",
"49 566 CURVE SMOOTH",
"62 566 OFFCURVE",
"67 576 OFFCURVE",
"71 597 CURVE SMOOTH",
"81 652 LINE",
"260 652 LINE",
"260 39 LINE",
"223 39 LINE SMOOTH",
"205 39 OFFCURVE",
"194 31 OFFCURVE",
"194 17 CURVE SMOOTH",
"194 7 OFFCURVE",
"199 0 OFFCURVE",
"207 0 CURVE SMOOTH"
);
},
{
closed = 1;
nodes = (
"308 750 LINE",
"409 878 LINE",
"379 901 LINE",
"290 806 LINE",
"201 901 LINE",
"171 878 LINE",
"273 750 LINE"
);
}
);
width = 581;
}
);
note = Tcaron;
unicode = 0164;
},
{
glyphname = Tcedilla;
lastChange = "2015-07-16 07:54:35 +0000";
layers = (
{
layerId = "0E118B91-E289-4192-A9B8-5E503DF06BFB";
name = Light;
paths = (
{
closed = 1;
nodes = (
"295 -192 OFFCURVE",
"346 -158 OFFCURVE",
"346 -113 CURVE SMOOTH",
"346 -74 OFFCURVE",
"322 -55 OFFCURVE",
"297 -45 CURVE",
"318 0 LINE",
"387 0 LINE SMOOTH",
"395 0 OFFCURVE",
"396 5 OFFCURVE",
"396 11 CURVE SMOOTH",
"396 21 OFFCURVE",
"391 28 OFFCURVE",
"374 31 CURVE SMOOTH",
"320 40 LINE",
"320 652 LINE",
"500 652 LINE",
"509 597 LINE SMOOTH",
"513 576 OFFCURVE",
"519 566 OFFCURVE",
"531 566 CURVE SMOOTH",
"539 566 OFFCURVE",
"545 570 OFFCURVE",
"545 579 CURVE SMOOTH",
"545 695 LINE",
"36 695 LINE",
"36 579 LINE SMOOTH",
"36 570 OFFCURVE",
"41 566 OFFCURVE",
"49 566 CURVE SMOOTH",
"62 566 OFFCURVE",
"67 576 OFFCURVE",
"71 597 CURVE SMOOTH",
"81 652 LINE",
"260 652 LINE",
"260 39 LINE",
"223 39 LINE SMOOTH",
"205 39 OFFCURVE",
"194 31 OFFCURVE",
"194 17 CURVE SMOOTH",
"194 7 OFFCURVE",
"199 0 OFFCURVE",
"207 0 CURVE SMOOTH",
"275 0 LINE",
"254 -57 LINE",
"289 -67 OFFCURVE",
"301 -85 OFFCURVE",
"301 -112 CURVE SMOOTH",
"301 -140 OFFCURVE",
"278 -165 OFFCURVE",
"232 -180 CURVE",
"242 -205 LINE"
);
}
);
width = 581;
}
);
note = Tcedilla;
unicode = 0162;
},
{
glyphname = Tcommaaccent;
lastChange = "2015-07-16 07:54:36 +0000";
layers = (
{
layerId = "0E118B91-E289-4192-A9B8-5E503DF06BFB";
name = Light;
paths = (
{
closed = 1;
nodes = (
"387 0 LINE SMOOTH",
"395 0 OFFCURVE",
"396 5 OFFCURVE",
"396 11 CURVE SMOOTH",
"396 21 OFFCURVE",
"389 28 OFFCURVE",
"374 31 CURVE SMOOTH",
"320 40 LINE",
"320 652 LINE",
"500 652 LINE",
"509 597 LINE SMOOTH",
"513 576 OFFCURVE",
"519 566 OFFCURVE",
"531 566 CURVE SMOOTH",
"539 566 OFFCURVE",
"545 570 OFFCURVE",
"545 579 CURVE SMOOTH",
"545 695 LINE",
"36 695 LINE",
"36 579 LINE SMOOTH",
"36 570 OFFCURVE",
"41 566 OFFCURVE",
"49 566 CURVE SMOOTH",
"62 566 OFFCURVE",
"67 576 OFFCURVE",
"71 597 CURVE SMOOTH",
"81 652 LINE",
"260 652 LINE",
"260 39 LINE",
"223 39 LINE SMOOTH",
"205 39 OFFCURVE",
"194 31 OFFCURVE",
"194 17 CURVE SMOOTH",
"194 7 OFFCURVE",
"199 0 OFFCURVE",
"207 0 CURVE SMOOTH"
);
},
{
closed = 1;
nodes = (
"296 -174 OFFCURVE",
"322 -115 OFFCURVE",
"336 -58 CURVE",
"272 -43 LINE SMOOTH",
"254 -39 OFFCURVE",
"241 -46 OFFCURVE",
"241 -62 CURVE SMOOTH",
"241 -68 OFFCURVE",
"245 -72 OFFCURVE",
"250 -74 CURVE",
"280 -84 LINE",
"276 -116 OFFCURVE",
"255 -166 OFFCURVE",
"231 -202 CURVE",
"259 -219 LINE"
);
}
);
width = 581;
}
);
note = Tcommaaccent;
unicode = 021A;
},
{
glyphname = Tdotbelow;
lastChange = "2015-07-16 07:54:35 +0000";
layers = (
{
layerId = "0E118B91-E289-4192-A9B8-5E503DF06BFB";
name = Light;
paths = (
{
closed = 1;
nodes = (
"387 0 LINE SMOOTH",
"395 0 OFFCURVE",
"396 5 OFFCURVE",
"396 11 CURVE SMOOTH",
"396 21 OFFCURVE",
"390 28 OFFCURVE",
"374 31 CURVE SMOOTH",
"320 40 LINE",
"320 652 LINE",
"500 652 LINE",
"509 597 LINE SMOOTH",
"513 576 OFFCURVE",
"519 566 OFFCURVE",
"531 566 CURVE SMOOTH",
"539 566 OFFCURVE",
"545 570 OFFCURVE",
"545 579 CURVE SMOOTH",
"545 695 LINE",
"36 695 LINE",
"36 579 LINE SMOOTH",
"36 570 OFFCURVE",
"41 566 OFFCURVE",
"49 566 CURVE SMOOTH",
"62 566 OFFCURVE",
"67 576 OFFCURVE",
"71 597 CURVE SMOOTH",
"81 652 LINE",
"260 652 LINE",
"260 39 LINE",
"223 39 LINE SMOOTH",
"205 39 OFFCURVE",
"194 31 OFFCURVE",
"194 17 CURVE SMOOTH",
"194 7 OFFCURVE",
"199 0 OFFCURVE",
"207 0 CURVE SMOOTH"
);
},
{
closed = 1;
nodes = (
"314 -151 OFFCURVE",
"333 -133 OFFCURVE",
"333 -108 CURVE SMOOTH",
"333 -84 OFFCURVE",
"314 -65 OFFCURVE",
"290 -65 CURVE SMOOTH",
"266 -65 OFFCURVE",
"247 -84 OFFCURVE",
"247 -108 CURVE SMOOTH",
"247 -133 OFFCURVE",
"266 -151 OFFCURVE",
"290 -151 CURVE SMOOTH"
);
}
);
width = 581;
}
);
note = Tdotbelow;
unicode = 1E6C;
},
{
glyphname = Tlinebelow;
lastChange = "2015-07-16 07:54:35 +0000";
layers = (
{
layerId = "0E118B91-E289-4192-A9B8-5E503DF06BFB";
name = Light;
paths = (
{
closed = 1;
nodes = (
"387 0 LINE SMOOTH",
"395 0 OFFCURVE",
"396 5 OFFCURVE",
"396 11 CURVE SMOOTH",
"396 21 OFFCURVE",
"391 28 OFFCURVE",
"374 31 CURVE SMOOTH",
"320 40 LINE",
"320 652 LINE",
"500 652 LINE",
"509 597 LINE SMOOTH",
"513 576 OFFCURVE",
"519 566 OFFCURVE",
"531 566 CURVE SMOOTH",
"539 566 OFFCURVE",
"545 570 OFFCURVE",
"545 579 CURVE SMOOTH",
"545 695 LINE",
"36 695 LINE",
"36 579 LINE SMOOTH",
"36 570 OFFCURVE",
"41 566 OFFCURVE",
"49 566 CURVE SMOOTH",
"62 566 OFFCURVE",
"67 576 OFFCURVE",
"71 597 CURVE SMOOTH",
"81 652 LINE",
"260 652 LINE",
"260 39 LINE",
"223 39 LINE SMOOTH",
"205 39 OFFCURVE",
"194 31 OFFCURVE",
"194 17 CURVE SMOOTH",
"194 7 OFFCURVE",
"199 0 OFFCURVE",
"207 0 CURVE SMOOTH"
);
},
{
closed = 1;
nodes = (
"475 -129 LINE",
"475 -88 LINE",
"108 -88 LINE",
"108 -129 LINE"
);
}
);
width = 581;
}
);
note = Tlinebelow;
unicode = 1E6E;
},
{
glyphname = U;
lastChange = "2015-07-16 07:54:36 +0000";
layers = (
{
layerId = "0E118B91-E289-4192-A9B8-5E503DF06BFB";
name = Light;
paths = (
{
closed = 1;
nodes = (
"557 -11 OFFCURVE",
"653 89 OFFCURVE",
"653 260 CURVE SMOOTH",
"653 655 LINE",
"702 665 LINE SMOOTH",
"716 668 OFFCURVE",
"724 675 OFFCURVE",
"724 685 CURVE SMOOTH",
"724 690 OFFCURVE",
"722 695 OFFCURVE",
"714 695 CURVE SMOOTH",
"560 695 LINE SMOOTH",
"542 695 OFFCURVE",
"532 687 OFFCURVE",
"532 673 CURVE SMOOTH",
"532 663 OFFCURVE",
"537 656 OFFCURVE",
"545 656 CURVE SMOOTH",
"604 656 LINE",
"604 261 LINE SMOOTH",
"604 112 OFFCURVE",
"527 33 OFFCURVE",
"387 33 CURVE SMOOTH",
"249 33 OFFCURVE",
"172 114 OFFCURVE",
"172 261 CURVE SMOOTH",
"172 655 LINE",
"226 664 LINE SMOOTH",
"241 667 OFFCURVE",
"248 674 OFFCURVE",
"248 684 CURVE SMOOTH",
"248 690 OFFCURVE",
"247 695 OFFCURVE",
"239 695 CURVE SMOOTH",
"74 695 LINE SMOOTH",
"56 695 OFFCURVE",
"46 687 OFFCURVE",
"46 673 CURVE SMOOTH",
"46 663 OFFCURVE",
"51 656 OFFCURVE",
"59 656 CURVE SMOOTH",
"112 656 LINE",
"112 260 LINE SMOOTH",
"112 89 OFFCURVE",
"213 -11 OFFCURVE",
"386 -11 CURVE SMOOTH"
);
}
);
width = 769;
}
);
note = U;
unicode = 0055;
},
{
glyphname = Uacute;
lastChange = "2015-07-16 07:54:35 +0000";
layers = (
{
components = (
{
name = U;
}
);
layerId = "0E118B91-E289-4192-A9B8-5E503DF06BFB";
name = Light;
paths = (
{
closed = 1;
nodes = (
"454 876 LINE",
"407 906 LINE",
"326 772 LINE",
"361 750 LINE"
);
}
);
width = 769;
}
);
note = Uacute;
unicode = 00DA;
},
{
glyphname = Ubreve;
lastChange = "2015-07-16 07:54:36 +0000";
layers = (
{
components = (
{
name = U;
}
);
layerId = "0E118B91-E289-4192-A9B8-5E503DF06BFB";
name = Light;
paths = (
{
closed = 1;
nodes = (
"449 747 OFFCURVE",
"505 778 OFFCURVE",
"528 860 CURVE",
"490 874 LINE",
"476 826 OFFCURVE",
"443 790 OFFCURVE",
"390 790 CURVE SMOOTH",
"337 790 OFFCURVE",
"303 826 OFFCURVE",
"290 874 CURVE",
"252 860 LINE",
"275 778 OFFCURVE",
"330 747 OFFCURVE",
"390 747 CURVE SMOOTH"
);
}
);
width = 769;
}
);
note = Ubreve;
unicode = 016C;
},
{
glyphname = Ucaron;
lastChange = "2015-07-16 07:54:36 +0000";
layers = (
{
components = (
{
name = U;
}
);
layerId = "0E118B91-E289-4192-A9B8-5E503DF06BFB";
name = Light;
paths = (
{
closed = 1;
nodes = (
"404 750 LINE",
"505 878 LINE",
"475 901 LINE",
"386 806 LINE",
"297 901 LINE",
"267 878 LINE",
"369 750 LINE"
);
}
);
width = 769;
}
);
note = Ucaron;
unicode = 01D3;
},
{
glyphname = Ucircumflex;
lastChange = "2015-07-16 07:54:36 +0000";
layers = (
{
components = (
{
name = U;
}
);
layerId = "0E118B91-E289-4192-A9B8-5E503DF06BFB";
name = Light;
paths = (
{
closed = 1;
nodes = (
"386 846 LINE",
"475 750 LINE",
"505 773 LINE",
"404 901 LINE",
"369 901 LINE",
"267 773 LINE",
"297 750 LINE"
);
}
);
width = 769;
}
);
note = Ucircumflex;
unicode = 00DB;
},
{
glyphname = Udieresis;
lastChange = "2015-07-16 07:54:36 +0000";
layers = (
{
components = (
{
name = U;
}
);
layerId = "0E118B91-E289-4192-A9B8-5E503DF06BFB";
name = Light;
paths = (
{
closed = 1;
nodes = (
"316 761 OFFCURVE",
"335 779 OFFCURVE",
"335 803 CURVE SMOOTH",
"335 828 OFFCURVE",
"316 846 OFFCURVE",
"293 846 CURVE SMOOTH",
"271 846 OFFCURVE",
"251 828 OFFCURVE",
"251 803 CURVE SMOOTH",
"251 779 OFFCURVE",
"271 761 OFFCURVE",
"293 761 CURVE SMOOTH"
);
},
{
closed = 1;
nodes = (
"502 761 OFFCURVE",
"521 779 OFFCURVE",
"521 803 CURVE SMOOTH",
"521 828 OFFCURVE",
"502 846 OFFCURVE",
"479 846 CURVE SMOOTH",
"457 846 OFFCURVE",
"437 828 OFFCURVE",
"437 803 CURVE SMOOTH",
"437 779 OFFCURVE",
"457 761 OFFCURVE",
"479 761 CURVE SMOOTH"
);
}
);
width = 769;
}
);
note = Udieresis;
unicode = 00DC;
},
{
glyphname = Udieresisacute;
lastChange = "2015-07-16 07:54:36 +0000";
layers = (
{
components = (
{
name = U;
}
);
layerId = "0E118B91-E289-4192-A9B8-5E503DF06BFB";
name = Light;
paths = (
{
closed = 1;
nodes = (
"315 761 OFFCURVE",
"334 779 OFFCURVE",
"334 803 CURVE SMOOTH",
"334 828 OFFCURVE",
"315 846 OFFCURVE",
"292 846 CURVE SMOOTH",
"270 846 OFFCURVE",
"250 828 OFFCURVE",
"250 803 CURVE SMOOTH",
"250 779 OFFCURVE",
"270 761 OFFCURVE",
"292 761 CURVE SMOOTH"
);
},
{
closed = 1;
nodes = (
"501 761 OFFCURVE",
"520 779 OFFCURVE",
"520 803 CURVE SMOOTH",
"520 828 OFFCURVE",
"501 846 OFFCURVE",
"478 846 CURVE SMOOTH",
"456 846 OFFCURVE",
"436 828 OFFCURVE",
"436 803 CURVE SMOOTH",
"436 779 OFFCURVE",
"456 761 OFFCURVE",
"478 761 CURVE SMOOTH"
);
},
{
closed = 1;
nodes = (
"483 989 LINE",
"438 1017 LINE",
"361 888 LINE",
"394 868 LINE"
);
}
);
width = 769;
}
);
note = Udieresisacute;
unicode = 01D7;
},
{
glyphname = Udieresiscaron;
lastChange = "2015-07-16 07:54:35 +0000";
layers = (
{
components = (
{
name = U;
}
);
layerId = "0E118B91-E289-4192-A9B8-5E503DF06BFB";
name = Light;
paths = (
{
closed = 1;
nodes = (
"317 761 OFFCURVE",
"336 779 OFFCURVE",
"336 803 CURVE SMOOTH",
"336 828 OFFCURVE",
"317 846 OFFCURVE",
"294 846 CURVE SMOOTH",
"272 846 OFFCURVE",
"252 828 OFFCURVE",
"252 803 CURVE SMOOTH",
"252 779 OFFCURVE",
"272 761 OFFCURVE",
"294 761 CURVE SMOOTH"
);
},
{
closed = 1;
nodes = (
"502 761 OFFCURVE",
"521 779 OFFCURVE",
"521 803 CURVE SMOOTH",
"521 828 OFFCURVE",
"502 846 OFFCURVE",
"479 846 CURVE SMOOTH",
"457 846 OFFCURVE",
"437 828 OFFCURVE",
"437 803 CURVE SMOOTH",
"437 779 OFFCURVE",
"457 761 OFFCURVE",
"479 761 CURVE SMOOTH"
);
},
{
closed = 1;
nodes = (
"405 871 LINE",
"506 999 LINE",
"476 1022 LINE",
"387 927 LINE",
"298 1022 LINE",
"268 999 LINE",
"370 871 LINE"
);
}
);
width = 769;
}
);
note = Udieresiscaron;
unicode = 01D9;
},
{
glyphname = Udieresisgrave;
lastChange = "2015-07-16 07:54:36 +0000";
layers = (
{
components = (
{
name = U;
}
);
layerId = "0E118B91-E289-4192-A9B8-5E503DF06BFB";
name = Light;
paths = (
{
closed = 1;
nodes = (
"317 761 OFFCURVE",
"336 779 OFFCURVE",
"336 803 CURVE SMOOTH",
"336 828 OFFCURVE",
"317 846 OFFCURVE",
"294 846 CURVE SMOOTH",
"272 846 OFFCURVE",
"252 828 OFFCURVE",
"252 803 CURVE SMOOTH",
"252 779 OFFCURVE",
"272 761 OFFCURVE",
"294 761 CURVE SMOOTH"
);
},
{
closed = 1;
nodes = (
"503 761 OFFCURVE",
"522 779 OFFCURVE",
"522 803 CURVE SMOOTH",
"522 828 OFFCURVE",
"503 846 OFFCURVE",
"480 846 CURVE SMOOTH",
"458 846 OFFCURVE",
"438 828 OFFCURVE",
"438 803 CURVE SMOOTH",
"438 779 OFFCURVE",
"458 761 OFFCURVE",
"480 761 CURVE SMOOTH"
);
},
{
closed = 1;
nodes = (
"412 888 LINE",
"335 1017 LINE",
"290 989 LINE",
"379 868 LINE"
);
}
);
width = 769;
}
);
note = Udieresisgrave;
unicode = 01DB;
},
{
glyphname = Udieresismacron;
lastChange = "2015-07-16 07:54:35 +0000";
layers = (
{
components = (
{
name = U;
}
);
layerId = "0E118B91-E289-4192-A9B8-5E503DF06BFB";
name = Light;
paths = (
{
closed = 1;
nodes = (
"318 761 OFFCURVE",
"337 779 OFFCURVE",
"337 803 CURVE SMOOTH",
"337 828 OFFCURVE",
"318 846 OFFCURVE",
"295 846 CURVE SMOOTH",
"273 846 OFFCURVE",
"253 828 OFFCURVE",
"253 803 CURVE SMOOTH",
"253 779 OFFCURVE",
"273 761 OFFCURVE",
"295 761 CURVE SMOOTH"
);
},
{
closed = 1;
nodes = (
"503 761 OFFCURVE",
"522 779 OFFCURVE",
"522 803 CURVE SMOOTH",
"522 828 OFFCURVE",
"503 846 OFFCURVE",
"480 846 CURVE SMOOTH",
"458 846 OFFCURVE",
"438 828 OFFCURVE",
"438 803 CURVE SMOOTH",
"438 779 OFFCURVE",
"458 761 OFFCURVE",
"480 761 CURVE SMOOTH"
);
},
{
closed = 1;
nodes = (
"527 903 LINE",
"527 946 LINE",
"250 946 LINE",
"250 903 LINE"
);
}
);
width = 769;
}
);
note = Udieresismacron;
unicode = 01D5;
},
{
glyphname = Udotbelow;
lastChange = "2015-07-16 07:54:35 +0000";
layers = (
{
components = (
{
name = U;
}
);
layerId = "0E118B91-E289-4192-A9B8-5E503DF06BFB";
name = Light;
paths = (
{
closed = 1;
nodes = (
"410 -151 OFFCURVE",
"429 -133 OFFCURVE",
"429 -108 CURVE SMOOTH",
"429 -84 OFFCURVE",
"410 -65 OFFCURVE",
"386 -65 CURVE SMOOTH",
"362 -65 OFFCURVE",
"343 -84 OFFCURVE",
"343 -108 CURVE SMOOTH",
"343 -133 OFFCURVE",
"362 -151 OFFCURVE",
"386 -151 CURVE SMOOTH"
);
}
);
width = 769;
}
);
note = Udotbelow;
unicode = 1EE4;
},
{
glyphname = Ugrave;
lastChange = "2015-07-16 07:54:35 +0000";
layers = (
{
components = (
{
name = U;
}
);
layerId = "0E118B91-E289-4192-A9B8-5E503DF06BFB";
name = Light;
paths = (
{
closed = 1;
nodes = (
"443 773 LINE",
"362 907 LINE",
"315 877 LINE",
"408 751 LINE"
);
}
);
width = 769;
}
);
note = Ugrave;
unicode = 00D9;
},
{
glyphname = Uhookabove;
lastChange = "2015-07-16 07:54:36 +0000";
layers = (
{
components = (
{
name = U;
}
);
layerId = "0E118B91-E289-4192-A9B8-5E503DF06BFB";
name = Light;
paths = (
{
closed = 1;
nodes = (
"405 750 LINE",
"411 794 LINE",
"441 805 OFFCURVE",
"460 827 OFFCURVE",
"460 855 CURVE SMOOTH",
"460 893 OFFCURVE",
"428 916 OFFCURVE",
"388 916 CURVE SMOOTH",
"369 916 OFFCURVE",
"346 910 OFFCURVE",
"332 904 CURVE",
"338 876 LINE",
"351 879 OFFCURVE",
"367 883 OFFCURVE",
"381 883 CURVE SMOOTH",
"402 883 OFFCURVE",
"416 874 OFFCURVE",
"416 854 CURVE SMOOTH",
"416 833 OFFCURVE",
"399 818 OFFCURVE",
"368 808 CURVE",
"372 750 LINE"
);
}
);
width = 769;
}
);
note = Uhookabove;
unicode = 1EE6;
},
{
glyphname = Uhorn;
lastChange = "2015-07-16 07:54:36 +0000";
layers = (
{
layerId = "0E118B91-E289-4192-A9B8-5E503DF06BFB";
name = Light;
paths = (
{
closed = 1;
nodes = (
"557 -11 OFFCURVE",
"653 89 OFFCURVE",
"653 260 CURVE SMOOTH",
"653 483 LINE",
"750 523 OFFCURVE",
"844 600 OFFCURVE",
"844 763 CURVE",
"794 763 LINE",
"794 631 OFFCURVE",
"733 563 OFFCURVE",
"653 528 CURVE",
"653 655 LINE",
"700 664 LINE SMOOTH",
"714 667 OFFCURVE",
"724 674 OFFCURVE",
"724 684 CURVE SMOOTH",
"724 690 OFFCURVE",
"722 695 OFFCURVE",
"714 695 CURVE SMOOTH",
"560 695 LINE SMOOTH",
"542 695 OFFCURVE",
"532 687 OFFCURVE",
"532 673 CURVE SMOOTH",
"532 663 OFFCURVE",
"537 656 OFFCURVE",
"545 656 CURVE SMOOTH",
"604 656 LINE",
"604 261 LINE SMOOTH",
"604 112 OFFCURVE",
"527 33 OFFCURVE",
"387 33 CURVE SMOOTH",
"249 33 OFFCURVE",
"172 114 OFFCURVE",
"172 261 CURVE SMOOTH",
"172 655 LINE",
"226 664 LINE SMOOTH",
"242 667 OFFCURVE",
"248 674 OFFCURVE",
"248 684 CURVE SMOOTH",
"248 690 OFFCURVE",
"247 695 OFFCURVE",
"239 695 CURVE SMOOTH",
"74 695 LINE SMOOTH",
"56 695 OFFCURVE",
"46 687 OFFCURVE",
"46 673 CURVE SMOOTH",
"46 663 OFFCURVE",
"51 656 OFFCURVE",
"59 656 CURVE SMOOTH",
"112 656 LINE",
"112 260 LINE SMOOTH",
"112 89 OFFCURVE",
"213 -11 OFFCURVE",
"386 -11 CURVE SMOOTH"
);
}
);
width = 863;
}
);
note = Uhorn;
unicode = 01AF;
},
{
glyphname = Uhornacute;
lastChange = "2015-07-16 07:54:36 +0000";
layers = (
{
layerId = "0E118B91-E289-4192-A9B8-5E503DF06BFB";
name = Light;
paths = (
{
closed = 1;
nodes = (
"557 -11 OFFCURVE",
"653 89 OFFCURVE",
"653 260 CURVE SMOOTH",
"653 483 LINE",
"750 523 OFFCURVE",
"844 600 OFFCURVE",
"844 763 CURVE",
"794 763 LINE",
"794 631 OFFCURVE",
"733 563 OFFCURVE",
"653 528 CURVE",
"653 655 LINE",
"700 664 LINE SMOOTH",
"715 667 OFFCURVE",
"724 674 OFFCURVE",
"724 684 CURVE SMOOTH",
"724 690 OFFCURVE",
"722 695 OFFCURVE",
"714 695 CURVE SMOOTH",
"560 695 LINE SMOOTH",
"542 695 OFFCURVE",
"532 687 OFFCURVE",
"532 673 CURVE SMOOTH",
"532 663 OFFCURVE",
"537 656 OFFCURVE",
"545 656 CURVE SMOOTH",
"604 656 LINE",
"604 261 LINE SMOOTH",
"604 112 OFFCURVE",
"527 33 OFFCURVE",
"387 33 CURVE SMOOTH",
"249 33 OFFCURVE",
"172 114 OFFCURVE",
"172 261 CURVE SMOOTH",
"172 655 LINE",
"226 664 LINE SMOOTH",
"242 667 OFFCURVE",
"248 674 OFFCURVE",
"248 684 CURVE SMOOTH",
"248 690 OFFCURVE",
"247 695 OFFCURVE",
"239 695 CURVE SMOOTH",
"74 695 LINE SMOOTH",
"56 695 OFFCURVE",
"46 687 OFFCURVE",
"46 673 CURVE SMOOTH",
"46 663 OFFCURVE",
"51 656 OFFCURVE",
"59 656 CURVE SMOOTH",
"112 656 LINE",
"112 260 LINE SMOOTH",
"112 89 OFFCURVE",
"213 -11 OFFCURVE",
"386 -11 CURVE SMOOTH"
);
},
{
closed = 1;
nodes = (
"456 876 LINE",
"409 906 LINE",
"328 772 LINE",
"363 750 LINE"
);
}
);
width = 863;
}
);
note = Uhornacute;
unicode = 1EE8;
},
{
glyphname = Uhorndotbelow;
lastChange = "2015-07-16 07:54:35 +0000";
layers = (
{
layerId = "0E118B91-E289-4192-A9B8-5E503DF06BFB";
name = Light;
paths = (
{
closed = 1;
nodes = (
"557 -11 OFFCURVE",
"653 89 OFFCURVE",
"653 260 CURVE SMOOTH",
"653 483 LINE",
"750 523 OFFCURVE",
"844 600 OFFCURVE",
"844 763 CURVE",
"794 763 LINE",
"794 631 OFFCURVE",
"733 563 OFFCURVE",
"653 528 CURVE",
"653 655 LINE",
"700 664 LINE SMOOTH",
"714 668 OFFCURVE",
"724 674 OFFCURVE",
"724 684 CURVE SMOOTH",
"724 690 OFFCURVE",
"722 695 OFFCURVE",
"714 695 CURVE SMOOTH",
"560 695 LINE SMOOTH",
"542 695 OFFCURVE",
"532 687 OFFCURVE",
"532 673 CURVE SMOOTH",
"532 663 OFFCURVE",
"537 656 OFFCURVE",
"545 656 CURVE SMOOTH",
"604 656 LINE",
"604 261 LINE SMOOTH",
"604 112 OFFCURVE",
"527 33 OFFCURVE",
"387 33 CURVE SMOOTH",
"249 33 OFFCURVE",
"172 114 OFFCURVE",
"172 261 CURVE SMOOTH",
"172 655 LINE",
"226 664 LINE SMOOTH",
"241 668 OFFCURVE",
"248 674 OFFCURVE",
"248 684 CURVE SMOOTH",
"248 690 OFFCURVE",
"247 695 OFFCURVE",
"239 695 CURVE SMOOTH",
"74 695 LINE SMOOTH",
"56 695 OFFCURVE",
"46 687 OFFCURVE",
"46 673 CURVE SMOOTH",
"46 663 OFFCURVE",
"51 656 OFFCURVE",
"59 656 CURVE SMOOTH",
"112 656 LINE",
"112 260 LINE SMOOTH",
"112 89 OFFCURVE",
"213 -11 OFFCURVE",
"386 -11 CURVE SMOOTH"
);
},
{
closed = 1;
nodes = (
"413 -151 OFFCURVE",
"432 -133 OFFCURVE",
"432 -108 CURVE SMOOTH",
"432 -84 OFFCURVE",
"413 -65 OFFCURVE",
"389 -65 CURVE SMOOTH",
"365 -65 OFFCURVE",
"346 -84 OFFCURVE",
"346 -108 CURVE SMOOTH",
"346 -133 OFFCURVE",
"365 -151 OFFCURVE",
"389 -151 CURVE SMOOTH"
);
}
);
width = 863;
}
);
note = Uhorndotbelow;
unicode = 1EF0;
},
{
glyphname = Uhorngrave;
lastChange = "2015-07-16 07:54:35 +0000";
layers = (
{
layerId = "0E118B91-E289-4192-A9B8-5E503DF06BFB";
name = Light;
paths = (
{
closed = 1;
nodes = (
"557 -11 OFFCURVE",
"653 89 OFFCURVE",
"653 260 CURVE SMOOTH",
"653 483 LINE",
"750 523 OFFCURVE",
"844 600 OFFCURVE",
"844 763 CURVE",
"794 763 LINE",
"794 631 OFFCURVE",
"733 563 OFFCURVE",
"653 528 CURVE",
"653 655 LINE",
"700 664 LINE SMOOTH",
"716 667 OFFCURVE",
"724 674 OFFCURVE",
"724 684 CURVE SMOOTH",
"724 690 OFFCURVE",
"722 695 OFFCURVE",
"714 695 CURVE SMOOTH",
"560 695 LINE SMOOTH",
"542 695 OFFCURVE",
"532 687 OFFCURVE",
"532 673 CURVE SMOOTH",
"532 663 OFFCURVE",
"537 656 OFFCURVE",
"545 656 CURVE SMOOTH",
"604 656 LINE",
"604 261 LINE SMOOTH",
"604 112 OFFCURVE",
"527 33 OFFCURVE",
"387 33 CURVE SMOOTH",
"249 33 OFFCURVE",
"172 114 OFFCURVE",
"172 261 CURVE SMOOTH",
"172 655 LINE",
"226 664 LINE SMOOTH",
"242 667 OFFCURVE",
"248 674 OFFCURVE",
"248 684 CURVE SMOOTH",
"248 690 OFFCURVE",
"247 695 OFFCURVE",
"239 695 CURVE SMOOTH",
"74 695 LINE SMOOTH",
"56 695 OFFCURVE",
"46 687 OFFCURVE",
"46 673 CURVE SMOOTH",
"46 663 OFFCURVE",
"51 656 OFFCURVE",
"59 656 CURVE SMOOTH",
"112 656 LINE",
"112 260 LINE SMOOTH",
"112 89 OFFCURVE",
"213 -11 OFFCURVE",
"386 -11 CURVE SMOOTH"
);
},
{
closed = 1;
nodes = (
"437 773 LINE",
"356 907 LINE",
"309 877 LINE",
"402 751 LINE"
);
}
);
width = 863;
}
);
note = Uhorngrave;
unicode = 1EEA;
},
{
glyphname = Uhornhookabove;
lastChange = "2015-07-16 07:54:36 +0000";
layers = (
{
layerId = "0E118B91-E289-4192-A9B8-5E503DF06BFB";
name = Light;
paths = (
{
closed = 1;
nodes = (
"557 -11 OFFCURVE",
"653 89 OFFCURVE",
"653 260 CURVE SMOOTH",
"653 483 LINE",
"750 523 OFFCURVE",
"844 600 OFFCURVE",
"844 763 CURVE",
"794 763 LINE",
"794 631 OFFCURVE",
"733 563 OFFCURVE",
"653 528 CURVE",
"653 655 LINE",
"700 664 LINE SMOOTH",
"717 667 OFFCURVE",
"724 674 OFFCURVE",
"724 684 CURVE SMOOTH",
"724 690 OFFCURVE",
"722 695 OFFCURVE",
"714 695 CURVE SMOOTH",
"560 695 LINE SMOOTH",
"542 695 OFFCURVE",
"532 687 OFFCURVE",
"532 673 CURVE SMOOTH",
"532 663 OFFCURVE",
"537 656 OFFCURVE",
"545 656 CURVE SMOOTH",
"604 656 LINE",
"604 261 LINE SMOOTH",
"604 112 OFFCURVE",
"527 33 OFFCURVE",
"387 33 CURVE SMOOTH",
"249 33 OFFCURVE",
"172 114 OFFCURVE",
"172 261 CURVE SMOOTH",
"172 655 LINE",
"226 664 LINE SMOOTH",
"243 667 OFFCURVE",
"248 674 OFFCURVE",
"248 684 CURVE SMOOTH",
"248 690 OFFCURVE",
"247 695 OFFCURVE",
"239 695 CURVE SMOOTH",
"74 695 LINE SMOOTH",
"56 695 OFFCURVE",
"46 687 OFFCURVE",
"46 673 CURVE SMOOTH",
"46 663 OFFCURVE",
"51 656 OFFCURVE",
"59 656 CURVE SMOOTH",
"112 656 LINE",
"112 260 LINE SMOOTH",
"112 89 OFFCURVE",
"213 -11 OFFCURVE",
"386 -11 CURVE SMOOTH"
);
},
{
closed = 1;
nodes = (
"407 750 LINE",
"413 794 LINE",
"443 805 OFFCURVE",
"462 827 OFFCURVE",
"462 855 CURVE SMOOTH",
"462 893 OFFCURVE",
"430 916 OFFCURVE",
"390 916 CURVE SMOOTH",
"371 916 OFFCURVE",
"348 910 OFFCURVE",
"334 904 CURVE",
"340 876 LINE",
"353 879 OFFCURVE",
"369 883 OFFCURVE",
"383 883 CURVE SMOOTH",
"404 883 OFFCURVE",
"418 874 OFFCURVE",
"418 854 CURVE SMOOTH",
"418 833 OFFCURVE",
"401 818 OFFCURVE",
"370 808 CURVE",
"374 750 LINE"
);
}
);
width = 863;
}
);
note = Uhornhookabove;
unicode = 1EEC;
},
{
glyphname = Uhorntilde;
lastChange = "2015-07-16 07:54:36 +0000";
layers = (
{
layerId = "0E118B91-E289-4192-A9B8-5E503DF06BFB";
name = Light;
paths = (
{
closed = 1;
nodes = (
"557 -11 OFFCURVE",
"653 89 OFFCURVE",
"653 260 CURVE SMOOTH",
"653 483 LINE",
"750 523 OFFCURVE",
"844 600 OFFCURVE",
"844 763 CURVE",
"794 763 LINE",
"794 631 OFFCURVE",
"733 563 OFFCURVE",
"653 528 CURVE",
"653 655 LINE",
"700 664 LINE SMOOTH",
"714 668 OFFCURVE",
"724 674 OFFCURVE",
"724 684 CURVE SMOOTH",
"724 690 OFFCURVE",
"722 695 OFFCURVE",
"714 695 CURVE SMOOTH",
"560 695 LINE SMOOTH",
"542 695 OFFCURVE",
"532 687 OFFCURVE",
"532 673 CURVE SMOOTH",
"532 663 OFFCURVE",
"537 656 OFFCURVE",
"545 656 CURVE SMOOTH",
"604 656 LINE",
"604 261 LINE SMOOTH",
"604 112 OFFCURVE",
"527 33 OFFCURVE",
"387 33 CURVE SMOOTH",
"249 33 OFFCURVE",
"172 114 OFFCURVE",
"172 261 CURVE SMOOTH",
"172 655 LINE",
"226 664 LINE SMOOTH",
"241 668 OFFCURVE",
"248 674 OFFCURVE",
"248 684 CURVE SMOOTH",
"248 690 OFFCURVE",
"247 695 OFFCURVE",
"239 695 CURVE SMOOTH",
"74 695 LINE SMOOTH",
"56 695 OFFCURVE",
"46 687 OFFCURVE",
"46 673 CURVE SMOOTH",
"46 663 OFFCURVE",
"51 656 OFFCURVE",
"59 656 CURVE SMOOTH",
"112 656 LINE",
"112 260 LINE SMOOTH",
"112 89 OFFCURVE",
"213 -11 OFFCURVE",
"386 -11 CURVE SMOOTH"
);
},
{
closed = 1;
nodes = (
"473 761 OFFCURVE",
"506 780 OFFCURVE",
"531 804 CURVE",
"509 833 LINE",
"487 817 OFFCURVE",
"466 806 OFFCURVE",
"442 806 CURVE SMOOTH",
"410 806 OFFCURVE",
"371 839 OFFCURVE",
"333 839 CURVE SMOOTH",
"303 839 OFFCURVE",
"268 819 OFFCURVE",
"243 796 CURVE",
"265 767 LINE",
"287 783 OFFCURVE",
"307 794 OFFCURVE",
"333 794 CURVE SMOOTH",
"372 794 OFFCURVE",
"402 761 OFFCURVE",
"443 761 CURVE SMOOTH"
);
}
);
width = 863;
}
);
note = Uhorntilde;
unicode = 1EEE;
},
{
glyphname = Uhungarumlaut;
lastChange = "2015-07-16 07:54:35 +0000";
layers = (
{
components = (
{
name = U;
}
);
layerId = "0E118B91-E289-4192-A9B8-5E503DF06BFB";
name = Light;
paths = (
{
closed = 1;
nodes = (
"410 913 LINE",
"370 937 LINE",
"263 774 LINE",
"291 755 LINE"
);
},
{
closed = 1;
nodes = (
"579 913 LINE",
"539 937 LINE",
"432 774 LINE",
"460 755 LINE"
);
}
);
width = 769;
}
);
note = Uhungarumlaut;
unicode = 0170;
},
{
glyphname = Umacron;
lastChange = "2015-07-16 07:54:36 +0000";
layers = (
{
components = (
{
name = U;
}
);
layerId = "0E118B91-E289-4192-A9B8-5E503DF06BFB";
name = Light;
paths = (
{
closed = 1;
nodes = (
"526 776 LINE",
"526 818 LINE",
"249 818 LINE",
"249 776 LINE"
);
}
);
width = 769;
}
);
note = Umacron;
unicode = 016A;
},
{
glyphname = Uogonek;
lastChange = "2015-07-16 07:54:35 +0000";
layers = (
{
layerId = "0E118B91-E289-4192-A9B8-5E503DF06BFB";
name = Light;
paths = (
{
closed = 1;
nodes = (
"462 -207 OFFCURVE",
"482 -203 OFFCURVE",
"498 -196 CURVE",
"492 -169 LINE",
"480 -172 OFFCURVE",
"468 -174 OFFCURVE",
"454 -174 CURVE SMOOTH",
"416 -174 OFFCURVE",
"385 -156 OFFCURVE",
"385 -112 CURVE SMOOTH",
"385 -64 OFFCURVE",
"421 -24 OFFCURVE",
"459 -4 CURVE",
"584 21 OFFCURVE",
"653 115 OFFCURVE",
"653 260 CURVE SMOOTH",
"653 655 LINE",
"702 665 LINE SMOOTH",
"717 668 OFFCURVE",
"724 675 OFFCURVE",
"724 685 CURVE SMOOTH",
"724 690 OFFCURVE",
"722 695 OFFCURVE",
"714 695 CURVE SMOOTH",
"560 695 LINE SMOOTH",
"542 695 OFFCURVE",
"532 687 OFFCURVE",
"532 673 CURVE SMOOTH",
"532 663 OFFCURVE",
"537 656 OFFCURVE",
"545 656 CURVE SMOOTH",
"604 656 LINE",
"604 261 LINE SMOOTH",
"604 112 OFFCURVE",
"527 33 OFFCURVE",
"387 33 CURVE SMOOTH",
"249 33 OFFCURVE",
"172 114 OFFCURVE",
"172 261 CURVE SMOOTH",
"172 655 LINE",
"226 664 LINE SMOOTH",
"241 667 OFFCURVE",
"248 674 OFFCURVE",
"248 684 CURVE SMOOTH",
"248 690 OFFCURVE",
"247 695 OFFCURVE",
"239 695 CURVE SMOOTH",
"74 695 LINE SMOOTH",
"56 695 OFFCURVE",
"46 687 OFFCURVE",
"46 673 CURVE SMOOTH",
"46 663 OFFCURVE",
"51 656 OFFCURVE",
"59 656 CURVE SMOOTH",
"112 656 LINE",
"112 260 LINE SMOOTH",
"112 89 OFFCURVE",
"213 -11 OFFCURVE",
"386 -11 CURVE SMOOTH",
"401 -11 LINE",
"366 -33 OFFCURVE",
"341 -70 OFFCURVE",
"341 -113 CURVE SMOOTH",
"341 -174 OFFCURVE",
"387 -207 OFFCURVE",
"444 -207 CURVE SMOOTH"
);
}
);
width = 769;
}
);
note = Uogonek;
unicode = 0172;
},
{
glyphname = Uring;
lastChange = "2015-07-16 07:54:35 +0000";
layers = (
{
components = (
{
name = U;
}
);
layerId = "0E118B91-E289-4192-A9B8-5E503DF06BFB";
name = Light;
paths = (
{
closed = 1;
nodes = (
"438 735 OFFCURVE",
"470 772 OFFCURVE",
"470 816 CURVE SMOOTH",
"470 860 OFFCURVE",
"438 896 OFFCURVE",
"386 896 CURVE SMOOTH",
"333 896 OFFCURVE",
"301 860 OFFCURVE",
"301 816 CURVE SMOOTH",
"301 772 OFFCURVE",
"333 735 OFFCURVE",
"386 735 CURVE SMOOTH"
);
},
{
closed = 1;
nodes = (
"360 768 OFFCURVE",
"339 785 OFFCURVE",
"339 816 CURVE SMOOTH",
"339 847 OFFCURVE",
"360 864 OFFCURVE",
"386 864 CURVE SMOOTH",
"412 864 OFFCURVE",
"432 847 OFFCURVE",
"432 816 CURVE SMOOTH",
"432 785 OFFCURVE",
"412 768 OFFCURVE",
"386 768 CURVE SMOOTH"
);
}
);
width = 769;
}
);
note = Uring;
unicode = 016E;
},
{
glyphname = Utilde;
lastChange = "2015-07-16 07:54:36 +0000";
layers = (
{
components = (
{
name = U;
}
);
layerId = "0E118B91-E289-4192-A9B8-5E503DF06BFB";
name = Light;
paths = (
{
closed = 1;
nodes = (
"472 761 OFFCURVE",
"505 780 OFFCURVE",
"530 804 CURVE",
"508 833 LINE",
"486 817 OFFCURVE",
"465 806 OFFCURVE",
"441 806 CURVE SMOOTH",
"409 806 OFFCURVE",
"370 839 OFFCURVE",
"332 839 CURVE SMOOTH",
"302 839 OFFCURVE",
"267 819 OFFCURVE",
"242 796 CURVE",
"264 767 LINE",
"286 783 OFFCURVE",
"306 794 OFFCURVE",
"332 794 CURVE SMOOTH",
"371 794 OFFCURVE",
"401 761 OFFCURVE",
"442 761 CURVE SMOOTH"
);
}
);
width = 769;
}
);
note = Utilde;
unicode = 0168;
},
{
glyphname = V;
lastChange = "2015-07-16 07:54:35 +0000";
layers = (
{
layerId = "0E118B91-E289-4192-A9B8-5E503DF06BFB";
name = Light;
paths = (
{
closed = 1;
nodes = (
"382 0 LINE",
"613 655 LINE",
"664 665 LINE SMOOTH",
"677 668 OFFCURVE",
"685 674 OFFCURVE",
"685 684 CURVE SMOOTH",
"685 689 OFFCURVE",
"683 695 OFFCURVE",
"675 695 CURVE SMOOTH",
"517 695 LINE SMOOTH",
"499 695 OFFCURVE",
"489 687 OFFCURVE",
"489 673 CURVE SMOOTH",
"489 663 OFFCURVE",
"494 656 OFFCURVE",
"502 656 CURVE SMOOTH",
"564 656 LINE",
"371 103 LINE SMOOTH",
"360 74 OFFCURVE",
"355 43 OFFCURVE",
"355 43 CURVE SMOOTH",
"349 43 LINE SMOOTH",
"349 43 OFFCURVE",
"343 74 OFFCURVE",
"333 103 CURVE SMOOTH",
"141 655 LINE",
"197 663 LINE SMOOTH",
"213 665 OFFCURVE",
"221 673 OFFCURVE",
"221 684 CURVE SMOOTH",
"221 690 OFFCURVE",
"219 695 OFFCURVE",
"212 695 CURVE SMOOTH",
"42 695 LINE SMOOTH",
"24 695 OFFCURVE",
"14 687 OFFCURVE",
"14 673 CURVE SMOOTH",
"14 663 OFFCURVE",
"19 656 OFFCURVE",
"27 656 CURVE SMOOTH",
"77 656 LINE",
"307 0 LINE"
);
}
);
width = 699;
}
);
note = V;
unicode = 0056;
},
